<?xml version="1.0" encoding="UTF-8"?>
<svg width="80px" height="65px" viewBox="0 0 80 65" version="1.1" xmlns="http://www.w3.org/2000/svg" xmlns:xlink="http://www.w3.org/1999/xlink">
    <title>icon1@1.5x</title>
    <g id="CMO" stroke="none" stroke-width="1" fill="none" fill-rule="evenodd">
        <g id="F-1-2-1CMO平台管理-配置管理-通知渠道管理" transform="translate(-274.000000, -219.000000)">
            <g id="编组-4" transform="translate(234.000000, 177.000000)">
                <g id="编组" transform="translate(30.000000, 24.000000)">
                    <rect id="矩形" x="0" y="0" width="100" height="100"></rect>
                    <g id="编组-2" transform="translate(10.000000, 18.000000)">
                        <g id="编组" fill="#3D8BF2" fill-rule="nonzero">
                            <path d="M32.5081379,5.00228229 C17.340771,5.00228229 5.00026733,15.1002825 5.00026733,27.5193113 C5.24313062,34.4924799 8.92360417,40.8922858 14.8273627,44.6071948 C15.7851441,45.3132775 16.7872536,45.9571099 17.8275073,46.5347189 L16.6075059,51.4069661 C17.0474649,51.6137575 17.4741494,51.8338292 17.9241434,52.0239413 L24.0844392,48.942543 C24.9844273,49.1759739 25.9311926,49.3260084 26.8711626,49.4860821 C27.4712073,49.5927978 28.0712521,49.7028337 28.6879691,49.7761909 C32.4415709,50.2496217 36.2488577,50.046815 39.9297044,49.1781125 C40.0160257,49.1577402 43.1897002,48.4107481 43.2758801,48.3896434 C43.2758801,50.0373294 43.6898247,51.4069661 45.2368378,52.7964815 C45.1597653,52.8145565 40.9408884,54.0674492 40.863718,54.0850392 C38.1224317,54.7098784 35.3200778,55.0286357 32.5080589,55.0353025 C29.9143165,55.0206603 27.3291602,54.7356524 24.7944737,54.1848963 L13.6171592,59.7675543 C12.7480924,60.2122792 11.6986302,60.102476 10.9403466,59.4874847 C10.1790812,58.8773724 9.84202374,57.8800349 10.0770218,56.9329461 L12.0770655,48.875905 C4.74783537,44.2130004 0.219856201,36.2059054 0,27.5193113 C0,12.3190322 14.5538896,0 32.5080589,0 C49.3634483,0 63.2012788,10.869508 64.8253127,24.7754664 C64.9585161,25.999596 65.0744033,27.1051372 65.0744033,28.4804098 C64.4654521,28.1771449 63.5926636,27.9942716 62.4702136,27.9942716 C61.3477636,27.9942716 60.6866235,28.1771449 60.1123227,28.4804098 C60.1123227,27.7363419 60.1123227,26.2677734 59.8098888,24.8256146 C58.2010104,13.6758233 46.5571575,5.00228229 32.5081379,5.00228229 Z" id="形状"></path>
                        </g>
                        <path d="M75.5164263,51.9272648 C74.0220493,52.2253066 72.5971581,52.8022758 71.3162713,53.627998 C70.0609805,54.9459066 68.4761438,55.9038881 66.7260951,56.4026083 C66.9594283,54.8352302 67.736152,53.4046064 68.9095341,52.3474087 C69.8921042,50.8470526 70.599852,49.1836893 70.9996557,47.4351629 C70.9941762,44.9496289 73.0031538,42.9299143 75.4876443,42.9231714 C77.9721349,42.9164622 79.9920094,44.9252699 80,47.4107972 C80.0079433,49.8963245 78.0009879,51.9180503 75.5165054,51.9272648 L75.5164263,51.9272648 Z" id="路径" fill="#3D8BF2"></path>
                        <path d="M67.2829183,41.1455722 C65.7901853,40.1556341 64.1330945,39.4396751 62.3893221,39.031256 C59.9039427,39.031256 57.8891447,37.0156142 57.8891447,34.529194 C57.8891447,32.0427738 59.9039427,30.027132 62.3893221,30.027132 C64.8747014,30.027132 66.8894995,32.0427738 66.8894995,34.529194 C67.1827602,36.0265476 67.7525339,37.4560687 68.5696089,38.7444672 C69.8785352,40.0104111 70.8266391,41.602415 71.3163503,43.356644 C69.7605746,43.10828 68.339447,42.326693 67.2961929,41.1456512 L67.2795996,41.1456512 L67.2829183,41.1455722 Z" id="路径" fill="#4AC032"></path>
                        <path d="M49.485437,43.0297776 C50.9822301,42.7296295 52.4056177,42.156052 53.685671,41.3290443 C54.9426745,40.0130561 56.5286445,39.0573747 58.2791659,38.5610741 C58.0405931,40.1231176 57.2677353,41.5539852 56.0924082,42.6096336 C55.1090586,44.1102946 54.4023428,45.7777483 54.0023657,47.5251994 C54.0060122,50.0102952 51.9962346,52.0283428 49.5121826,52.0338705 C47.0281306,52.0393756 45.0094173,50.0302742 45.0020153,47.5451867 C44.9946539,45.0600993 47.001396,43.0390307 49.485437,43.0297776 L49.485437,43.0297776 Z" id="路径" fill="#F9C938"></path>
                        <path d="M57.592441,53.8614289 C59.0791991,54.8585495 60.7326013,55.5789206 62.4726836,55.9957445 C64.2928354,55.9957445 65.9337634,57.0926367 66.6303053,58.7749419 C67.3268473,60.4572472 66.9418312,62.3936643 65.6547895,63.681245 C64.3677478,64.9688257 62.4321413,65.354003 60.7505402,64.6571693 C59.0689392,63.9603357 57.9725062,62.3187205 57.9725062,60.4978064 C57.6856887,58.9986185 57.1203283,57.5665536 56.3057504,56.2758931 C55.0017446,55.0041606 54.0604421,53.4074513 53.5789209,51.6504361 C55.1361411,51.906794 56.5553708,52.698076 57.592441,53.8881474 L57.592441,53.8614289 Z" id="路径" fill="#F56E1E"></path>
                    </g>
                </g>
            </g>
        </g>
    </g>
</svg>