<?xml version="1.0" encoding="utf-8"?>
<!-- Generator: Adobe Illustrator 19.0.0, SVG Export Plug-In . SVG Version: 6.00 Build 0)  -->
<svg version="1.1" id="图层_1" xmlns="http://www.w3.org/2000/svg" xmlns:xlink="http://www.w3.org/1999/xlink" x="0px" y="0px"
	 viewBox="-281 404.9 32 32" style="enable-background:new -281 404.9 32 32;" xml:space="preserve" width="50" height="50">
<style type="text/css">
	.st0{fill:#3DB58D;}
	.st1{fill:#FFFFFF;}
	.st2{fill:#82E0BE;}
</style>
<g id="图层_2">
</g>
<path class="st0" d="M-249.1,425.9c-0.8,4.1-7.6,7.2-15.9,7.2s-15.1-3.2-15.9-7.2h-0.1v-9.4c0-4.4,7.2-8,16-8c8.8,0,16,3.6,16,8
	L-249.1,425.9L-249.1,425.9L-249.1,425.9L-249.1,425.9z"/>
<path class="st1" d="M-265,410c-8.1,0-14.7,3-14.7,6.7s6.6,6.7,14.7,6.7c8.1,0,14.7-3,14.7-6.7C-250.3,413-256.9,410-265,410z"/>
<path class="st2" d="M-250.3,419.4c-2.5,2.7-8.1,4.6-14.7,4.6c-6.6,0-12.3-1.9-14.7-4.6l-0.1,5.8c0,3.3,6.6,6,14.7,6
	c8.1,0,14.7-2.7,14.7-6L-250.3,419.4z"/>
<path class="st0" d="M-265.1,411.1c4.2,0,7.9,0.8,11.1,2.5c0.5,0.2,0.9,0.5,1.3,0.8c0.4,0.2,0.4,0.5,0.1,0.7
	c-0.2,0.1-0.3,0.2-0.6,0.2s-0.4-0.1-0.6-0.2c-1.1-0.7-2.3-1.2-3.7-1.7c-2.5-0.8-5-1.3-7.7-1.3c-0.7,0-1.4,0-2.2,0.1
	c-3.6,0.3-6.7,1.3-9.3,2.8c-0.2,0.1-0.4,0.2-0.6,0.2c-0.2,0-0.4-0.1-0.5-0.1c-0.3-0.2-0.3-0.5,0-0.7c1.1-0.7,2.3-1.3,3.6-1.8
	c2-0.7,4-1.2,6.2-1.4C-266.9,411.2-266,411.1-265.1,411.1L-265.1,411.1z"/>
<path class="st0" d="M-265.1,413.5L-265.1,413.5c3.8,0,7.1,0.8,9.8,2.5c0.2,0.1,0.3,0.2,0.3,0.4c0,0.2-0.2,0.4-0.4,0.4
	c-0.1,0-0.2,0.1-0.3,0.1c-0.2,0-0.4-0.1-0.6-0.1c-0.7-0.4-1.5-0.8-2.3-1.2c-2-0.7-4.1-1.1-6.4-1.1c-0.2,0-0.4,0-0.6,0
	c-3.1,0.1-5.8,0.8-8.1,2.2c-0.2,0.1-0.4,0.3-0.7,0.3c0,0-0.1,0-0.1,0c-0.3,0-0.6-0.1-0.7-0.3c-0.1-0.2-0.1-0.4,0.1-0.5
	c0.7-0.4,1.5-0.9,2.3-1.2C-270.3,413.9-267.8,413.5-265.1,413.5z"/>
<path class="st0" d="M-265,415.8c1.9,0,3.8,0.3,5.5,1c0.6,0.2,1.1,0.6,1.7,0.9c0.1,0.1,0.2,0.2,0.2,0.3c0,0-0.1,0-0.1,0
	c0.1,0.2-0.1,0.4-0.4,0.4c-0.1,0-0.2,0.1-0.3,0.1c-0.2,0-0.4-0.1-0.5-0.1c-0.8-0.5-1.6-0.8-2.6-1.1c-1.1-0.3-2.3-0.5-3.5-0.5
	c-0.4,0-0.8,0-1.3,0.1c-1.8,0.2-3.3,0.7-4.7,1.4c-0.2,0.1-0.4,0.2-0.7,0.2c-0.3,0-0.6-0.1-0.7-0.3c-0.1-0.2,0-0.4,0.2-0.6
	c1.4-0.9,3.1-1.5,5.1-1.7C-266.4,415.9-265.7,415.8-265,415.8L-265,415.8z"/>
<path class="st0" d="M-265.1,418.5c1.8,0,3.3,1,3.3,2.1s-1.4,2.1-3.1,2.1c-0.1,0-0.1,0-0.2,0c-0.1,0-0.1,0-0.2,0
	c-1.7,0-3.1-1-3.1-2.1C-268.4,419.5-266.9,418.5-265.1,418.5L-265.1,418.5z M-265.1,421.7c0.9,0,1.7-0.5,1.7-1.1
	c0-0.6-0.8-1.1-1.7-1.1c0,0,0,0-0.1,0h0c-1,0-1.7,0.4-1.7,1.1c0,0,0,0,0,0.1C-266.8,421.2-266,421.7-265.1,421.7
	C-265.2,421.7-265.1,421.7-265.1,421.7"/>
</svg>
