<?xml version="1.0" encoding="utf-8"?>
<!-- Generator: Adobe Illustrator 19.0.0, SVG Export Plug-In . SVG Version: 6.00 Build 0)  -->
<svg version="1.1" id="图层_1" xmlns="http://www.w3.org/2000/svg" xmlns:xlink="http://www.w3.org/1999/xlink" x="0px" y="0px"
	 viewBox="-281 404.9 32 32" style="enable-background:new -281 404.9 32 32;" xml:space="preserve" width="50" height="50">
<style type="text/css">
	.st0{fill:#82E0BE;}
	.st1{fill:#3DB58D;}
	.st2{fill:#FFFFFF;}
	.st3{fill:#B5D6FB;}
</style>
<g id="图层_2">
</g>
<path class="st0" d="M-272.3,436.5c0,0-0.1,0-0.1,0l-8-4.3c-0.1,0-0.1-0.1-0.1-0.2v-17.5c0-0.1,0.1-0.2,0.1-0.2l15.1-8.9
	c0,0,0.1,0,0.1,0c0,0,0.1,0,0.1,0l8.1,4.4c0.1,0,0.1,0.1,0.1,0.2v17.8c0,0.1-0.1,0.2-0.1,0.2l-15.2,8.5
	C-272.3,436.5-272.3,436.5-272.3,436.5z"/>
<g>
	<path class="st1" d="M-272.3,436.9c-0.1,0-0.2,0-0.3-0.1l-8-4.3c-0.2-0.1-0.3-0.3-0.3-0.6v-17.5c0-0.2,0.1-0.4,0.3-0.5l15.3-8.9
		c0.1-0.1,0.2-0.1,0.3-0.1c0.1,0,0.2,0,0.3,0.1l8.1,4.4c0.2,0.1,0.3,0.3,0.3,0.6v17.8c0,0.2-0.1,0.4-0.3,0.6l-15.3,8.4
		C-272.1,436.9-272.2,436.9-272.3,436.9z M-272.3,436.1l15.2-8.3v-17.6l-7.9-4.3l-4.5,2.6l-10.5,6.2v17.3L-272.3,436.1z"/>
</g>
<path class="st2" d="M-265,405.8l-14.8,8.7l7.8,4.2l14.9-8.5L-265,405.8z"/>
<path class="st3" d="M-272.3,435.3v-16.6"/>
<path class="st1" d="M-272.3,436.4c-0.1,0-0.2-0.1-0.2-0.2v-17.4c0-0.1,0.1-0.2,0.2-0.2s0.2,0.1,0.2,0.2v17.4
	C-272.1,436.3-272.2,436.4-272.3,436.4L-272.3,436.4z"/>
<path class="st3" d="M-262.9,413.4l-9.4,5.3"/>
<path class="st1" d="M-272.3,418.9c-0.1,0-0.2,0-0.2-0.1c-0.1-0.1,0-0.2,0.1-0.3l15.1-8.6c0.1-0.1,0.3,0,0.3,0.1
	c0.1,0.1,0,0.2-0.1,0.3l-15.1,8.6C-272.3,418.9-272.3,418.9-272.3,418.9z"/>
<path class="st3" d="M-279.3,415l7,3.7"/>
<path class="st1" d="M-272.3,418.9c0,0-0.1,0-0.1,0l-7.7-4c-0.1-0.1-0.2-0.2-0.1-0.3c0.1-0.1,0.2-0.2,0.3-0.1l7.7,4
	c0.1,0.1,0.2,0.2,0.1,0.3C-272.2,418.9-272.3,418.9-272.3,418.9z"/>
<path class="st3" d="M-279.4,429.7l5.9,3.2"/>
<path class="st1" d="M-273.5,433.1c0,0-0.1,0-0.1,0l-5.9-3.2c-0.1-0.1-0.2-0.2-0.1-0.3s0.2-0.2,0.3-0.1l5.9,3.2
	c0.1,0.1,0.2,0.2,0.1,0.3C-273.4,433-273.5,433.1-273.5,433.1L-273.5,433.1z"/>
<path class="st3" d="M-279.4,428.1l5.9,3.2"/>
<path class="st1" d="M-273.5,431.5c0,0-0.1,0-0.1,0l-5.9-3.2c-0.1-0.1-0.2-0.2-0.1-0.3s0.2-0.2,0.3-0.1l5.9,3.2
	c0.1,0.1,0.2,0.2,0.1,0.3C-273.4,431.4-273.5,431.5-273.5,431.5L-273.5,431.5z"/>
<path class="st3" d="M-279.4,426.5l5.9,3.2"/>
<path class="st1" d="M-273.5,429.9c0,0-0.1,0-0.1,0l-5.9-3.2c-0.1-0.1-0.2-0.2-0.1-0.3s0.2-0.2,0.3-0.1l5.9,3.2
	c0.1,0.1,0.2,0.2,0.1,0.3C-273.4,429.8-273.5,429.9-273.5,429.9z"/>
<path class="st3" d="M-280.6,423.1l8.3,4.4"/>
<path class="st1" d="M-280.7,423.3l0.2-0.4l8.3,4.4l-0.2,0.4L-280.7,423.3z"/>
<path class="st3" d="M-274.9,419.6l1.3,0.6"/>
<g>
	<path class="st1" d="M-273.8,420.7c-0.1,0-0.1,0-0.2,0l-1.3-0.6c-0.1-0.1-0.2-0.1-0.2-0.2c0-0.1,0-0.2,0-0.3
		c0.1-0.1,0.2-0.2,0.4-0.2c0.1,0,0.1,0,0.2,0l1.3,0.6c0.1,0.1,0.2,0.1,0.2,0.2c0,0.1,0,0.2,0,0.3
		C-273.5,420.6-273.7,420.7-273.8,420.7z"/>
</g>
<path class="st2" d="M-253.7,420L-253.7,420c-0.1-0.1-0.2-0.1-0.3-0.1c0,0,0,0,0,0c0,0,0,0-0.1,0c0,0-0.1,0-0.1,0c0,0-0.1,0-0.1,0
	c0,0-0.1,0-0.1,0s0,0,0,0c-0.1,0-0.2,0-0.3,0h-0.1c-0.1,0-0.2,0-0.2,0c0,0,0,0-0.1,0l-0.1,0c0,0-0.1,0-0.1,0c0,0-0.1,0-0.1,0
	c-0.1,0-0.1,0-0.2,0c0,0-0.1,0-0.1,0c0,0-0.1,0-0.1,0c-0.1,0-0.2,0.1-0.4,0.1c0,0-0.1,0-0.1,0c0,0,0,0-0.1,0
	c-0.2,0.1-0.4,0.2-0.7,0.3c-0.2,0.1-0.3,0.2-0.5,0.3l-0.1,0.1c-0.1,0.1-0.2,0.2-0.3,0.2c-0.1,0-0.1,0.1-0.2,0.1
	c-0.1,0.1-0.2,0.2-0.3,0.3c0,0-0.1,0.1-0.2,0.2c0,0-0.1,0.1-0.1,0.1c0,0-0.1,0.1-0.1,0.1c-0.1,0.1-0.2,0.2-0.3,0.4
	c0,0-0.1,0.1-0.1,0.1c0,0,0,0.1-0.1,0.1c-0.1,0.1-0.1,0.2-0.2,0.2c0,0-0.1,0.1-0.1,0.1c0,0-0.1,0.1-0.1,0.1c0,0.1-0.1,0.1-0.1,0.2
	c0,0-0.1,0.1-0.1,0.1c0,0.1-0.1,0.1-0.1,0.2c0,0-0.1,0.1-0.1,0.1c0,0,0,0,0,0.1c-0.1,0.1-0.2,0.3-0.3,0.4c0,0,0,0,0,0
	c0,0,0,0.1,0,0.1c-0.1,0.1-0.1,0.2-0.2,0.3c0,0,0,0.1-0.1,0.1c0,0,0,0.1-0.1,0.1s0,0.1-0.1,0.1c0,0.1-0.1,0.2-0.2,0.4c0,0,0,0,0,0.1
	v0c-0.1,0.1-0.1,0.3-0.2,0.5l0,0.1c0,0,0,0.1-0.1,0.2c0,0.1,0,0.1-0.1,0.2c0,0.1,0,0.1,0,0.2c0,0.1,0,0.1-0.1,0.2c0,0,0,0.1,0,0.1
	c0,0.1,0,0.1,0,0.2c0,0.1,0,0.2-0.1,0.3c0,0,0,0.1,0,0.1c0,0.1,0,0.1,0,0.2c0,0.1,0,0.3-0.1,0.4c0,0,0,0.1,0,0.1s0,0.1,0,0.1
	c0,0.3-0.1,0.6,0,0.9c0,1.6,0.6,2.8,1.5,3.3l2.7,1.6c-0.9-0.5-1.5-1.7-1.5-3.3c0-0.3,0-0.6,0-0.9c0-0.1,0-0.1,0-0.2
	c0-0.1,0-0.3,0.1-0.4c0-0.1,0-0.2,0-0.3s0-0.2,0.1-0.3c0-0.1,0.1-0.2,0.1-0.4c0-0.1,0-0.1,0.1-0.2c0-0.1,0.1-0.3,0.1-0.4
	c0,0,0-0.1,0.1-0.2c0.1-0.2,0.1-0.4,0.2-0.6c0,0,0,0,0-0.1c0.1-0.2,0.1-0.3,0.2-0.5c0,0,0-0.1,0.1-0.1c0.1-0.1,0.2-0.3,0.2-0.5
	c0,0,0-0.1,0-0.1c0.1-0.2,0.2-0.4,0.3-0.5c0,0,0.1-0.1,0.1-0.1c0.1-0.1,0.2-0.2,0.3-0.4c0-0.1,0.1-0.1,0.1-0.2
	c0.1-0.1,0.1-0.2,0.2-0.3l0.2-0.2c0.1-0.1,0.1-0.1,0.2-0.2c0.1-0.1,0.2-0.2,0.3-0.4c0.1-0.1,0.1-0.1,0.2-0.2c0,0,0.1-0.1,0.2-0.2
	c0.1-0.1,0.2-0.2,0.3-0.3c0,0,0.1-0.1,0.2-0.1c0.1-0.1,0.2-0.2,0.3-0.2l0.1-0.1c0.2-0.1,0.3-0.2,0.5-0.3c0.2-0.1,0.4-0.2,0.7-0.3
	c0.1,0,0.1,0,0.2-0.1c0.1,0,0.2-0.1,0.4-0.1c0.1,0,0.1,0,0.2-0.1c0.1,0,0.1,0,0.2,0c0.1,0,0.2,0,0.3,0c0,0,0.1,0,0.1,0
	c0.1,0,0.2,0,0.3,0h0.1c0.1,0,0.3,0,0.4,0c0,0,0.1,0,0.1,0c0.1,0,0.2,0,0.3,0.1c0,0,0,0,0.1,0c0.1,0,0.2,0.1,0.3,0.2L-253.7,420
	L-253.7,420z"/>
<path class="st1" d="M-258.5,434.5C-258.5,434.5-258.5,434.5-258.5,434.5l-2.7-1.6c-1.1-0.6-1.7-1.9-1.7-3.6c0-0.3,0-0.6,0.1-1
	c0,0,0-0.1,0-0.1l0-0.1c0-0.2,0-0.3,0.1-0.5v-0.1c0,0,0-0.1,0-0.1l0-0.1c0-0.1,0-0.2,0.1-0.2l0.4-1.3c0.1-0.2,0.1-0.3,0.2-0.5l0-0.1
	c0.1-0.1,0.1-0.3,0.2-0.4l0.2-0.5c0-0.1,0.1-0.2,0.2-0.3l0.3,0.1l-0.3-0.2l0-0.1c0.1-0.2,0.2-0.3,0.3-0.5l0.2-0.3
	c0-0.1,0.1-0.1,0.1-0.2l0.5-0.6c0.1-0.1,0.1-0.2,0.2-0.2l0.2-0.2c0.1-0.2,0.3-0.3,0.4-0.4l0.4-0.4c0.1-0.1,0.2-0.2,0.3-0.3l0.2-0.1
	c0.1-0.1,0.2-0.2,0.3-0.3l0.2-0.1c0.2-0.1,0.3-0.2,0.5-0.3c0.2-0.1,0.4-0.2,0.7-0.3c0,0,0,0,0.1,0s0.1,0,0.1,0
	c0.2-0.1,0.3-0.1,0.4-0.1c0.1,0,0.1,0,0.1,0l0.1,0c0.1,0,0.2,0,0.3,0c0.1,0,0.1,0,0.1,0l0.1,0c0.1,0,0.2,0,0.2,0h0.1
	c0.1,0,0.2,0,0.3,0l0.1,0.3l0-0.3c0.1,0,0.3,0,0.4,0l0.1,0v0.3l0.1-0.3c0,0,0.1,0,0.1,0c0,0,0.1,0,0.1,0l0.1,0
	c0.1,0.1,0.3,0.1,0.3,0.2l0,0l2.7,1.6l-0.3,0.6c-0.1,0-0.2-0.1-0.3-0.1v0l-0.1,0l0,0c-0.1,0-0.2,0-0.2-0.1v-0.1l0,0l0,0.1
	c-0.1,0-0.2,0-0.3,0l0-0.3v0.3c-0.1,0-0.2,0-0.3,0l-0.1,0c-0.1,0-0.2,0-0.3,0c-0.1,0-0.1,0-0.2,0l-0.2,0c-0.1,0-0.2,0.1-0.3,0.1
	c-0.1,0-0.1,0-0.2,0.1c-0.2,0.1-0.4,0.2-0.6,0.3c-0.2,0.1-0.3,0.2-0.5,0.3l-0.1,0.1c-0.1,0.1-0.2,0.1-0.3,0.2l-0.1,0.1
	c-0.1,0.1-0.2,0.2-0.3,0.3l-0.3,0.3c-0.1,0.1-0.3,0.3-0.4,0.4c-0.1,0.1-0.1,0.1-0.2,0.2c-0.1,0.1-0.1,0.1-0.2,0.2s-0.1,0.2-0.2,0.3
	l-0.1,0.2c-0.1,0.1-0.2,0.2-0.2,0.4l-0.1,0.1c-0.1,0.2-0.2,0.3-0.3,0.5l-0.3-0.1l0.3,0.2c-0.1,0.1-0.2,0.3-0.2,0.5l-0.1,0.1
	c-0.1,0.2-0.1,0.3-0.2,0.5l-0.3-0.1l0.3,0.1c-0.1,0.2-0.1,0.4-0.2,0.6l0,0.1c-0.1,0.2-0.1,0.3-0.1,0.5l-0.1,0.2
	c0,0.1-0.1,0.2-0.1,0.4l-0.1,0.2c0,0.1,0,0.1,0,0.2l0,0.1c0,0.1,0,0.3-0.1,0.4l0,0.2c0,0.4-0.1,0.7-0.1,0.9c0,1.5,0.5,2.5,1.3,3.1
	l0,0L-258.5,434.5L-258.5,434.5z M-261.9,426l0.3,0.1l-0.4,1.4l-0.3,0l0.3,0.1l0,0.2c0,0.1,0,0.3-0.1,0.4v0.1h-0.3l0.3,0.1v0.1
	c0,0.3,0,0.6,0,0.9c0,1.5,0.5,2.5,1.3,3.1l1.1,0.6c-0.2-0.6-0.4-1.3-0.4-2.1c0-0.3,0-0.6,0.1-1l0-0.2c0-0.1,0-0.3,0.1-0.4l0-0.1
	c0-0.1,0-0.1,0-0.2l0.1-0.3c0-0.1,0.1-0.3,0.1-0.4l0.1-0.2c0-0.1,0.1-0.3,0.1-0.4l0.1-0.2c0.1-0.2,0.1-0.4,0.2-0.6l0-0.1
	c0.1-0.2,0.1-0.3,0.2-0.5l0.1-0.2c0.1-0.2,0.2-0.3,0.3-0.5l0-0.1c0.1-0.2,0.2-0.4,0.3-0.5l0.1-0.1c0.1-0.2,0.2-0.3,0.3-0.4l0.1-0.2
	c0.1-0.1,0.2-0.2,0.2-0.3c0.1-0.1,0.1-0.2,0.2-0.2c0-0.1,0.1-0.1,0.2-0.2c0.1-0.1,0.3-0.3,0.4-0.4c0.1-0.1,0.2-0.2,0.2-0.2l0.2-0.2
	c0.1-0.1,0.2-0.2,0.3-0.3l0.2-0.1c0.1-0.1,0.2-0.2,0.3-0.3l0.2-0.1c0.2-0.1,0.3-0.2,0.5-0.3c0.2-0.1,0.4-0.2,0.7-0.3
	c0.1,0,0.1,0,0.2-0.1c0.2-0.1,0.3-0.1,0.4-0.1c0.1,0,0.2,0,0.2-0.1c0.1,0,0.1,0,0.2,0c0.1,0,0.2,0,0.3,0l0,0l-1.1-0.6
	c-0.1,0-0.2-0.1-0.2-0.1l-0.5-0.1c-0.1,0-0.2,0-0.3,0l-0.1-0.3v0.3c-0.1,0-0.1,0-0.2,0l-0.1-0.3l0,0.3l-0.4,0c-0.1,0-0.1,0-0.2,0
	l-0.2,0c-0.1,0-0.2,0.1-0.3,0.1l-0.2,0.1c-0.2,0.1-0.4,0.2-0.6,0.3c-0.1,0.1-0.3,0.2-0.5,0.3l-0.1,0.1c-0.1,0.1-0.2,0.1-0.3,0.2
	l-0.1,0.1c-0.1,0.1-0.2,0.2-0.3,0.3l-0.4,0.4c-0.1,0.1-0.2,0.2-0.3,0.4l-0.2,0.2c-0.1,0.1-0.1,0.1-0.2,0.2l-0.7,1l-0.3-0.1l0.3,0.2
	c-0.1,0.1-0.2,0.3-0.3,0.4l-0.3-0.1l0.3,0.2l0,0.1c0,0.1-0.1,0.2-0.1,0.3l-0.2,0.4c0,0.1-0.1,0.2-0.2,0.4l-0.3-0.1l0.3,0.1
	c-0.1,0.2-0.1,0.3-0.2,0.5L-261.9,426L-261.9,426z"/>
<path class="st0" d="M-249.5,424.9c0,3.3-2.3,7.3-5.2,9s-5.2,0.3-5.2-3c0-3.3,2.3-7.3,5.2-9C-251.8,420.3-249.5,421.6-249.5,424.9
	L-249.5,424.9z"/>
<path class="st1" d="M-257,434.9c-0.6,0-1.1-0.1-1.5-0.4c-1.1-0.6-1.7-1.9-1.7-3.6c0-3.4,2.4-7.6,5.4-9.3c1.5-0.9,2.9-1,4-0.4
	c1.1,0.6,1.7,1.9,1.7,3.6c0,3.4-2.4,7.6-5.4,9.3C-255.4,434.6-256.2,434.9-257,434.9L-257,434.9z M-252.4,421.5
	c-0.7,0-1.4,0.2-2.2,0.7c-2.8,1.6-5,5.5-5,8.7c0,1.5,0.5,2.5,1.3,3.1c0.9,0.5,2.1,0.4,3.3-0.4c2.8-1.6,5-5.5,5-8.7
	c0-1.5-0.5-2.5-1.3-3.1C-251.5,421.6-251.9,421.5-252.4,421.5L-252.4,421.5z"/>
<path class="st2" d="M-257.3,426.2l2.2-1.1c0.3-0.1,0.5,0,0.5,0.2v2c0,0.3-0.2,0.6-0.5,0.8l-2.2,1.2c-0.3,0.2-0.6,0.1-0.6-0.2V427
	C-257.9,426.7-257.6,426.3-257.3,426.2z M-257.3,429.7l2.2-1.2c0.3-0.1,0.5-0.1,0.5,0.2v2c0,0.3-0.2,0.6-0.5,0.8l-2.2,1.3
	c-0.3,0.2-0.6,0.1-0.6-0.2v-2.1C-257.9,430.2-257.6,429.9-257.3,429.7z M-254.2,426.1l1.4-2.1c0.1-0.1,0.2-0.2,0.3-0.2l1.3,0.7
	c0.1,0,0.1,0.2,0,0.3l-1.3,2c-0.1,0.1-0.2,0.2-0.3,0.2l-1.4-0.6C-254.4,426.4-254.3,426.2-254.2,426.1z M-253.7,427.7l2-1.1
	c0.2-0.1,0.5,0,0.5,0.2v1.9c0,0.2-0.2,0.6-0.5,0.7l-2,1.1c-0.3,0.2-0.5,0.1-0.5-0.2v-2C-254.1,428.2-253.9,427.9-253.7,427.7z"/>
</svg>
