<?xml version="1.0" encoding="utf-8"?>
<!-- Generator: Adobe Illustrator 19.0.0, SVG Export Plug-In . SVG Version: 6.00 Build 0)  -->
<svg version="1.1" id="图层_1" xmlns="http://www.w3.org/2000/svg" xmlns:xlink="http://www.w3.org/1999/xlink" x="0px" y="0px"
	 viewBox="-281 404.9 32 32" style="enable-background:new -281 404.9 32 32;" xml:space="preserve" width="50" height="50">
<style type="text/css">
	.st0{fill:#D4E4FC;}
	.st1{fill:#3DB58D;}
	.st2{fill:#82E0BE;}
	.st3{fill:#FFFFFF;}
</style>
<g id="图层_2">
</g>
<path class="st0" d="M-254.9,425.2c0,0.1,0,0.1,0,0.2c0,0,0,0.1,0,0.1c0,0,0,0.1,0,0.1s0,0.1,0,0.1c0,0,0,0.1-0.1,0.1s0,0.1-0.1,0.1
	c0,0-0.1,0.1-0.1,0.1c0,0,0,0.1-0.1,0.1c-0.1,0.1-0.1,0.1-0.2,0.2l0,0c-0.1,0.1-0.2,0.2-0.4,0.3c0,0,0,0-0.1,0
	c-0.1,0.1-0.2,0.1-0.3,0.2c0,0-0.1,0-0.1,0.1c-0.1,0-0.2,0.1-0.2,0.1c-0.2,0.1-0.4,0.1-0.6,0.1c-0.1,0-0.1,0-0.2,0
	c-0.1,0-0.2,0-0.3,0l-0.2,0c-0.1,0-0.1,0-0.2,0c-0.1,0-0.2,0-0.3,0c-0.1,0-0.2,0-0.2,0c-0.1,0-0.2,0-0.3,0c-0.1,0-0.2,0-0.3,0
	c-0.1,0-0.2,0-0.2,0c-0.1,0-0.2,0-0.3,0c-0.1,0-0.1,0-0.2,0c-0.1,0-0.3-0.1-0.5-0.1c-0.1,0-0.1,0-0.2,0c-0.2-0.1-0.5-0.1-0.7-0.2
	c0,0-0.1,0-0.1,0c-0.3-0.1-0.6-0.2-1-0.3c-0.1,0-0.1,0-0.2-0.1c-0.2-0.1-0.3-0.1-0.5-0.2c-0.1,0-0.1-0.1-0.2-0.1
	c-0.2-0.1-0.4-0.2-0.6-0.3c-1.6-1-2.5-2.1-2.5-3.1v0.8c0,1,0.9,2.1,2.5,3.1c0.2,0.1,0.4,0.2,0.6,0.3c0.1,0,0.1,0.1,0.2,0.1
	c0.2,0.1,0.3,0.1,0.5,0.2c0,0,0.1,0,0.1,0.1c0,0,0,0,0,0c0.3,0.1,0.6,0.2,1,0.3c0,0,0.1,0,0.1,0c0,0,0,0,0.1,0
	c0.2,0.1,0.5,0.1,0.7,0.2c0,0,0,0,0.1,0c0.1,0,0.1,0,0.1,0c0.1,0,0.3,0.1,0.5,0.1c0,0,0.1,0,0.1,0s0.1,0,0.1,0c0.1,0,0.2,0,0.3,0
	c0.1,0,0.1,0,0.1,0c0,0,0.1,0,0.1,0c0.1,0,0.2,0,0.3,0c0.1,0,0.1,0,0.2,0h0.5c0,0,0.1,0,0.1,0c0.1,0,0.2,0,0.2,0c0.1,0,0.1,0,0.1,0
	c0,0,0.1,0,0.1,0c0.1,0,0.2,0,0.3,0c0.1,0,0.1,0,0.1,0c0,0,0,0,0.1,0c0.2,0,0.4-0.1,0.6-0.1c0,0,0,0,0,0c0.1,0,0.1-0.1,0.2-0.1
	c0,0,0.1,0,0.1-0.1c0.1-0.1,0.2-0.1,0.3-0.2l0,0l0,0c0.1-0.1,0.3-0.2,0.4-0.3l0,0c0.1-0.1,0.1-0.1,0.2-0.2l0,0c0,0,0,0,0-0.1
	c0,0,0.1-0.1,0.1-0.1l0,0c0,0,0,0,0-0.1c0,0,0-0.1,0.1-0.1l0,0c0,0,0,0,0-0.1c0,0,0-0.1,0-0.1c0,0,0,0,0-0.1c0,0,0,0,0,0
	c0-0.1,0-0.1,0-0.2c0,0,0,0,0-0.1v0L-254.9,425.2C-254.8,425.2-254.9,425.2-254.9,425.2L-254.9,425.2z"/>
<g>
	<path class="st1" d="M-258.2,428.4c-0.1,0-0.1,0-0.2,0h-0.2l-0.2,0c-0.1,0-0.2,0-0.3,0l-0.3,0c-0.1,0-0.2,0-0.3,0l-0.2,0
		c-0.2,0-0.3-0.1-0.5-0.1l-0.2,0c-0.3-0.1-0.5-0.1-0.7-0.2l-0.1,0c-0.4-0.1-0.7-0.2-1-0.3l-0.1-0.1c-0.2-0.1-0.4-0.2-0.6-0.3
		l-0.2-0.1c-0.3-0.1-0.5-0.2-0.6-0.3c-1.7-1-2.8-2.3-2.8-3.5v-1h0.9v0.2c0,0.8,0.9,1.9,2.3,2.7c0.2,0.1,0.4,0.2,0.6,0.3l0.1,0.1
		c0.2,0.1,0.3,0.1,0.5,0.2l0.1,0.1c0.3,0.1,0.6,0.2,0.9,0.3l0.1,0c0.2,0.1,0.5,0.1,0.7,0.2l0.2,0c0.1,0,0.3,0.1,0.4,0.1l0.1,0l0.2,0
		c0.1,0,0.2,0,0.3,0l0.2,0c0.1,0,0.2,0,0.3,0s0.2,0,0.2,0c0,0,0.1,0,0.1,0h0.1c0.1,0,0.1,0,0.2,0c0,0,0.1,0,0.1,0s0.1,0,0.1,0l0.2,0
		c0.1,0,0.2,0,0.2,0l0.2,0c0.2,0,0.4-0.1,0.5-0.1c0.1,0,0.1-0.1,0.2-0.1l0.1,0c0.1,0,0.1-0.1,0.2-0.1l0.1-0.1
		c0.1-0.1,0.2-0.1,0.3-0.2c0.1-0.1,0.1-0.1,0.1-0.1l0,0c0-0.1,0.1-0.1,0.1-0.1c0,0,0,0,0,0l0,0c0,0,0-0.1,0-0.1l0-0.1l0-0.1l0-0.1
		c0,0,0-0.1,0-0.1l0-0.3h0.9v1c0,0.1,0,0.1,0,0.1v0c0,0.1,0,0.1,0,0.2l0,0.1c0,0.1,0,0.1-0.1,0.2c0,0,0,0,0,0v0l0,0l0,0.1
		c0,0,0,0.1-0.1,0.1c0,0,0,0,0,0.1v0l-0.1,0c0,0-0.1,0.1-0.1,0.1c0,0,0,0.1-0.1,0.1c-0.1,0.1-0.1,0.2-0.3,0.3
		c-0.1,0.1-0.2,0.2-0.3,0.3v0c0,0-0.2,0.1-0.2,0.1l0,0l0,0c-0.1,0.1-0.2,0.1-0.3,0.1c0,0-0.1,0-0.1,0l-0.1,0c-0.1,0-0.1,0-0.2,0.1
		c-0.2,0.1-0.4,0.1-0.6,0.2c0,0-0.1,0-0.1,0c0,0-0.1,0-0.1,0c-0.1,0-0.2,0-0.3,0l-0.3,0c0,0-0.1,0-0.1,0c0,0-0.1,0-0.1,0h-0.1
		L-258.2,428.4L-258.2,428.4z"/>
</g>
<path class="st2" d="M-257.6,422.4c2.6,1.5,3.3,3.5,1.6,4.5s-5.2,0.6-7.9-0.9c-2.6-1.5-3.3-3.5-1.6-4.5
	C-263.7,420.5-260.2,420.9-257.6,422.4z"/>
<path class="st1" d="M-258.5,427.3c-1.7,0-3.8-0.5-5.5-1.5c-1.7-1-2.7-2.2-2.7-3.3c0-0.7,0.4-1.3,1.1-1.7c1.8-1,5.4-0.6,8.1,0.9
	c1.7,1,2.7,2.2,2.7,3.3c0,0.7-0.4,1.3-1.1,1.7C-256.5,427.2-257.5,427.3-258.5,427.3z M-262.9,420.8c-1,0-1.8,0.2-2.4,0.5
	c-0.5,0.3-0.8,0.7-0.8,1.2c0,0.9,0.9,2,2.4,2.9c2.5,1.5,5.9,1.9,7.6,0.9c0.5-0.3,0.8-0.7,0.8-1.2c0-0.9-0.9-2-2.4-2.9
	C-259.3,421.3-261.2,420.8-262.9,420.8z"/>
<path class="st3" d="M-260,423.4c0.8,0.4,1,1,0.5,1.3s-1.5,0.2-2.3-0.3c-0.8-0.4-1-1-0.5-1.3C-261.8,422.8-260.7,422.9-260,423.4z"
	/>
<path class="st1" d="M-260.3,425.1c-0.5,0-1.2-0.2-1.7-0.5c-0.5-0.3-0.8-0.7-0.8-1.1c0-0.3,0.1-0.5,0.4-0.6c0.6-0.3,1.7-0.2,2.5,0.3
	c0.5,0.3,0.8,0.7,0.8,1.1c0,0.3-0.1,0.5-0.4,0.6C-259.6,425-259.9,425.1-260.3,425.1z M-261.5,423.2c-0.3,0-0.5,0.1-0.6,0.1
	c-0.1,0.1-0.1,0.2-0.1,0.2c0,0.1,0.2,0.4,0.6,0.7c0.7,0.4,1.6,0.5,2,0.3c0.1-0.1,0.1-0.2,0.1-0.2c0-0.1-0.2-0.4-0.6-0.7
	C-260.6,423.3-261.1,423.2-261.5,423.2z"/>
<path class="st2" d="M-273.4,422.2l-6,3.5c-0.2,0.1-0.3,0.4-0.3,0.6c0,0.3,0.1,0.5,0.3,0.6l16.5,9.5c0.2,0.1,0.5,0.1,0.7,0l6-3.5
	c0.2-0.1,0.3-0.4,0.3-0.6c0-0.3-0.1-0.5-0.3-0.6l-16.5-9.5C-272.9,422-273.2,422-273.4,422.2z"/>
<g>
	<g>
		<path class="st1" d="M-262.6,436.9c-0.2,0-0.4-0.1-0.6-0.2l-16.5-9.5c-0.4-0.2-0.6-0.6-0.6-1s0.2-0.8,0.6-1l6-3.5
			c0.2-0.1,0.4-0.2,0.6-0.2s0.4,0.1,0.6,0.2l16.5,9.5c0.4,0.2,0.6,0.6,0.6,1c0,0.4-0.2,0.8-0.6,1l-6,3.5
			C-262.1,436.8-262.3,436.9-262.6,436.9z M-273,422.5c0,0-0.1,0-0.1,0l-6,3.5c-0.1,0-0.1,0.1-0.1,0.2c0,0.1,0.1,0.2,0.1,0.2
			l16.5,9.5c0,0,0.1,0,0.1,0c0.1,0,0.1,0,0.1,0l6-3.5c0.1,0,0.1-0.1,0.1-0.2c0-0.1-0.1-0.2-0.1-0.2l-16.5-9.5
			C-272.9,422.5-273,422.5-273,422.5z"/>
	</g>
</g>
<g>
	<g>
		<path class="st1" d="M-253,429c-0.1,0-0.1,0-0.2-0.1l-16.2-9.4c-0.2-0.1-0.3-0.3-0.2-0.4l1.4-13c0-0.1,0.1-0.3,0.2-0.4
			c0.1,0,0.1-0.1,0.2-0.1s0.2,0,0.2,0.1l16.2,9.4c0.2,0.1,0.3,0.3,0.2,0.4l-1.4,13c0,0.1-0.1,0.3-0.2,0.4
			C-252.9,429-253,429-253,429z M-253.4,427.8l1.3-12.1l-15.4-8.9l-1.3,12.1L-253.4,427.8z"/>
	</g>
</g>
<path class="st2" d="M-251.6,415.5l1.4-0.8l-1.4,13l-1.4,0.8L-251.6,415.5z"/>
<g>
	<path class="st1" d="M-253,429c-0.1,0-0.2,0-0.3-0.1c-0.1-0.1-0.2-0.3-0.2-0.4l1.4-13c0-0.1,0.1-0.3,0.2-0.3l1.4-0.8
		c0.1,0,0.1-0.1,0.2-0.1c0.1,0,0.2,0,0.3,0.1c0.1,0.1,0.2,0.3,0.2,0.4l-1.4,13c0,0.1-0.1,0.3-0.2,0.3l-1.4,0.8h0
		C-252.9,429-253,429-253,429z M-252.5,427.7l0.4-0.3l1.3-11.9l-0.4,0.3L-252.5,427.7z"/>
</g>
<path class="st2" d="M-267.9,406.2l1.4-0.8l16.2,9.4l-1.4,0.8L-267.9,406.2z"/>
<g>
	<g>
		<path class="st1" d="M-251.6,416c-0.1,0-0.1,0-0.2-0.1l-16.2-9.4c-0.1-0.1-0.2-0.2-0.2-0.4c0-0.2,0.1-0.3,0.2-0.4l1.4-0.8
			c0.1,0,0.1-0.1,0.2-0.1s0.2,0,0.2,0.1l16.2,9.4c0.1,0.1,0.2,0.2,0.2,0.4s-0.1,0.3-0.2,0.4l-1.4,0.8
			C-251.5,416-251.6,416-251.6,416z M-251.6,415l0.5-0.3l-15.3-8.8l-0.5,0.3L-251.6,415z"/>
	</g>
</g>
<path class="st1" d="M-266.7,433.2c-0.1,0-0.2,0-0.2-0.1c-0.1-0.1,0-0.3,0.1-0.3l6.2-3.6c0.1-0.1,0.3,0,0.3,0.1
	c0.1,0.1,0,0.3-0.1,0.3l-6.2,3.6C-266.6,433.2-266.6,433.2-266.7,433.2z M-269,430.5c0,0-0.1,0-0.1,0l-6.1-3.6
	c-0.1-0.1-0.2-0.2-0.1-0.3c0.1-0.1,0.2-0.2,0.3-0.1l6.1,3.6c0.1,0.1,0.2,0.2,0.1,0.3C-268.8,430.4-268.9,430.5-269,430.5z"/>
<path class="st1" d="M-262.5,435.6c0,0-0.1,0-0.1,0l-16.9-9.6c-0.1-0.1-0.2-0.2-0.1-0.3s0.2-0.2,0.3-0.1l16.8,9.6l5.1-2.9
	c0.1-0.1,0.3,0,0.3,0.1c0.1,0.1,0,0.3-0.1,0.3l-5.3,3C-262.5,435.6-262.5,435.6-262.5,435.6L-262.5,435.6z"/>
<path class="st2" d="M-251.6,415.5l-1.4,12.6l-15.8-9.1l1.4-12.7L-251.6,415.5z"/>
<path class="st3" d="M-253.2,416.1l-1.1,10.1l-13.4-7.9l1.1-10.1L-253.2,416.1z"/>
<path class="st1" d="M-254.3,426.1c0,0-0.1,0-0.1,0l-13.4-7.9c-0.1-0.1-0.1-0.1-0.1-0.2l1.1-10.1c0-0.1,0.1-0.2,0.1-0.2s0.2,0,0.2,0
	l13.4,7.9c0.1,0.1,0.1,0.1,0.1,0.2l-1.1,10.1c0,0.1-0.1,0.2-0.1,0.2C-254.2,426.1-254.3,426.1-254.3,426.1L-254.3,426.1z
	 M-267.4,417.8l12.9,7.6l1-9.6l-12.9-7.6C-266.4,408.3-267.4,417.8-267.4,417.8z"/>
</svg>
