<?xml version="1.0" encoding="utf-8"?>
<!-- Generator: Adobe Illustrator 19.0.0, SVG Export Plug-In . SVG Version: 6.00 Build 0)  -->
<svg version="1.1" id="图层_1" xmlns="http://www.w3.org/2000/svg" xmlns:xlink="http://www.w3.org/1999/xlink" x="0px" y="0px"
	 viewBox="-281 404.9 32 32" style="enable-background:new -281 404.9 32 32;" xml:space="preserve" width="50" height="50">
<style type="text/css">
	.st0{fill:#FFFFFF;}
	.st1{fill:#3DB58D;}
	.st2{fill:#82E0BE;}
</style>
<g id="图层_2">
</g>
<path class="st0" d="M-272.8,409.9c-0.1,0-0.2,0-0.2,0c0,0-0.1,0-0.1,0c0,0,0,0,0,0s0,0-0.1,0c-0.1,0-0.2,0-0.2,0
	c-0.1,0-0.2,0-0.3,0h0h0c-0.1,0-0.2,0-0.3,0c-0.1,0-0.1,0-0.2,0.1c0,0-0.1,0-0.1,0c0,0,0,0-0.1,0c-0.2,0.1-0.3,0.1-0.4,0.2l-4.1,2.4
	c0.2-0.1,0.3-0.2,0.5-0.2c0,0,0.1,0,0.1,0c0.2,0,0.3-0.1,0.5-0.1h0c0.2,0,0.4,0,0.6,0c0,0,0,0,0,0c0.2,0,0.4,0.1,0.6,0.1l4.1-2.4
	c0,0,0,0-0.1,0C-272.6,409.9-272.7,409.9-272.8,409.9z"/>
<path class="st1" d="M-278.8,412.8l-0.3-0.5l0,0l4.1-2.4c0.2-0.1,0.3-0.2,0.5-0.2l0.2-0.1c0.1,0,0.1,0,0.2-0.1c0.1,0,0.2,0,0.3,0
	c0.2,0,0.2,0,0.3,0c0.1,0,0.2,0,0.2,0h0.1l0.1,0.3l0-0.3l0.1,0c0.1,0,0.2,0,0.2,0c0.1,0,0.2,0,0.2,0.1l0.7,0.2l-4.7,2.8l-0.1,0
	c-0.2-0.1-0.4-0.1-0.6-0.1c-0.2,0-0.4,0-0.6,0c-0.2,0-0.3,0-0.5,0.1l0-0.1l-0.1,0l0,0.1C-278.5,412.6-278.6,412.7-278.8,412.8z
	 M-277.3,411.9C-277.3,411.9-277.2,411.9-277.3,411.9c0.3,0,0.5,0.1,0.7,0.1l3.3-1.9c-0.1,0-0.1,0-0.2,0c-0.1,0-0.2,0-0.2,0
	c-0.1,0-0.2,0-0.3,0c0,0-0.1,0-0.1,0l-0.1,0l-0.2-0.2l0.1,0.3l-0.1,0c-0.1,0-0.2,0.1-0.4,0.2L-277.3,411.9z M-273.2,409.9l-0.1,0.2
	l0.1,0V409.9L-273.2,409.9z"/>
<path class="st0" d="M-249.6,428.7l0-0.2v0v0c0-0.1,0-0.1,0-0.2c0-0.1,0-0.2,0-0.2c0,0,0,0,0,0s0,0,0,0l0-0.2c0-0.1,0-0.2,0-0.2
	c0,0,0,0,0,0l0,0c0-0.1,0-0.1,0-0.2c0-0.1,0-0.2-0.1-0.2c0,0,0,0,0,0c0,0,0,0,0-0.1c0-0.1,0-0.1,0-0.2c0-0.1,0-0.2-0.1-0.2l0,0
	c0,0,0,0,0,0c0-0.1,0-0.1-0.1-0.2c0-0.1-0.1-0.2-0.1-0.2c0,0,0,0,0,0c0,0,0,0,0,0c0-0.1,0-0.1-0.1-0.2c0-0.1-0.1-0.2-0.1-0.2l0-0.1
	c0,0,0,0,0-0.1c0,0,0-0.1-0.1-0.1l-0.1-0.2c0,0,0-0.1,0-0.1c0,0,0,0,0-0.1c0,0,0-0.1-0.1-0.1c0-0.1-0.1-0.2-0.1-0.3c0,0,0,0,0,0
	c0-0.1-0.1-0.1-0.1-0.2c0-0.1-0.1-0.2-0.1-0.2c0,0,0,0,0,0c-0.1-0.2-0.2-0.4-0.3-0.6c0,0,0,0,0,0c-0.1-0.1-0.1-0.2-0.2-0.2
	c0,0-0.1-0.1-0.1-0.1c0,0,0,0,0,0c-0.1-0.1-0.1-0.2-0.2-0.2c0,0,0-0.1-0.1-0.1c0,0,0,0-0.1-0.1s0-0.1-0.1-0.1
	c-0.1-0.1-0.1-0.1-0.2-0.2c0,0,0,0-0.1-0.1s0,0,0-0.1c0,0-0.1-0.1-0.1-0.1c-0.1-0.1-0.1-0.1-0.2-0.2l0,0c0,0,0,0,0,0l-0.1-0.1
	c-0.1-0.1-0.1-0.1-0.2-0.2l0,0c0,0,0-0.1,0-0.1c0-0.1,0-0.2,0.1-0.3c0-0.1,0-0.1,0-0.2c0,0,0,0,0-0.1c0,0,0,0,0-0.1l0-0.3
	c0-0.1,0-0.2,0-0.3v0c0-0.1,0-0.2,0-0.3s0-0.2,0-0.3c0-0.1,0-0.1,0-0.2c0,0,0,0,0-0.1l0-0.1c0-0.1,0-0.2,0-0.3c0-0.1,0-0.2-0.1-0.4
	v0v0c0-0.1,0-0.2-0.1-0.3c0-0.1-0.1-0.2-0.1-0.4c0,0,0-0.1,0-0.1c0,0,0-0.1,0-0.1c0-0.1,0-0.1,0-0.2c0-0.1-0.1-0.2-0.1-0.4
	c0-0.1-0.1-0.2-0.1-0.3c0,0,0,0,0-0.1s0,0,0-0.1c0-0.1-0.1-0.2-0.1-0.4c0-0.1-0.1-0.2-0.1-0.4c0,0,0,0,0-0.1l0-0.1
	c0-0.1-0.1-0.2-0.1-0.2c0-0.1-0.1-0.2-0.1-0.3c0-0.1-0.1-0.2-0.1-0.2c0,0,0,0,0,0c0,0,0,0,0-0.1l-0.2-0.3c-0.1-0.1-0.1-0.2-0.2-0.4
	c0,0,0,0,0-0.1s0-0.1,0-0.1c-0.1-0.1-0.1-0.2-0.2-0.3c-0.1-0.1-0.1-0.2-0.2-0.4c0-0.1-0.1-0.1-0.1-0.2c0,0,0-0.1,0-0.1
	c-0.1-0.1-0.1-0.2-0.2-0.3c-0.1-0.2-0.2-0.3-0.3-0.5c0,0,0-0.1,0-0.1c-0.2-0.2-0.3-0.4-0.5-0.7l0,0c-0.1-0.1-0.2-0.3-0.3-0.4
	c-0.1-0.1-0.2-0.2-0.3-0.3l0,0l0,0c-0.1-0.1-0.2-0.2-0.3-0.3s-0.2-0.2-0.3-0.3c0,0,0,0-0.1-0.1s0,0-0.1-0.1
	c-0.1-0.1-0.1-0.1-0.2-0.2c-0.1-0.1-0.2-0.2-0.3-0.3c0,0-0.1-0.1-0.1-0.1c0,0-0.1,0-0.1-0.1c-0.1,0-0.1-0.1-0.2-0.1
	c-0.1-0.1-0.2-0.2-0.3-0.3c-0.1,0-0.1-0.1-0.1-0.1c0,0-0.1,0-0.1-0.1c0,0-0.1-0.1-0.1-0.1c-0.1-0.1-0.2-0.2-0.3-0.2
	c-0.1-0.1-0.2-0.1-0.2-0.2c0,0,0,0,0,0c0,0,0,0,0,0c-0.1-0.1-0.2-0.1-0.3-0.2c-0.1-0.1-0.2-0.1-0.3-0.2c0,0-0.1,0-0.1,0
	c-0.1,0-0.2-0.1-0.2-0.1c-0.1-0.1-0.2-0.1-0.3-0.2l-0.2-0.1c0,0,0,0,0,0c0,0,0,0-0.1,0c-0.1,0-0.2-0.1-0.3-0.1s-0.2-0.1-0.3-0.1
	c0,0,0,0-0.1,0s0,0,0,0c-0.1,0-0.1,0-0.2-0.1c-0.1,0-0.2-0.1-0.3-0.1c-0.1,0-0.1,0-0.2,0c0,0,0,0-0.1,0c0,0-0.1,0-0.1,0
	c-0.1,0-0.2,0-0.3-0.1l-0.2,0c0,0,0,0-0.1,0s0,0-0.1,0c-0.1,0-0.2,0-0.3,0c-0.1,0-0.1,0-0.2,0c0,0-0.1,0-0.1,0c0,0-0.1,0-0.1,0
	c-0.1,0-0.3,0-0.4,0.1c0,0,0,0,0,0c0,0-0.1,0-0.1,0c-0.1,0-0.2,0.1-0.4,0.1c0,0,0,0,0,0c-0.2,0.1-0.4,0.2-0.6,0.2l-1.3,0.8
	c0,0-0.1-0.1-0.1-0.1l0,0l0,0l-0.2-0.2c0,0-0.1-0.1-0.1-0.1c0,0,0,0,0,0l0,0c-0.1-0.1-0.1-0.1-0.2-0.1c-0.1,0-0.1-0.1-0.2-0.1
	c0,0,0,0,0,0l0,0c-0.1,0-0.1-0.1-0.2-0.1s-0.1-0.1-0.2-0.1c0,0,0,0,0,0c0,0-0.1-0.1-0.1-0.1c-0.1,0-0.1-0.1-0.2-0.1
	c0,0-0.1,0-0.1-0.1c0,0,0,0,0,0c0,0,0,0,0,0c-0.1,0-0.1-0.1-0.2-0.1s-0.1,0-0.2-0.1c0,0,0,0,0,0h0c0,0-0.1,0-0.1,0
	c-0.1,0-0.1,0-0.2-0.1c0,0-0.1,0-0.1,0s0,0,0,0l-0.1,0c-0.1,0-0.1,0-0.2,0c0,0-0.1,0-0.1,0c0,0,0,0,0,0s0,0,0,0c-0.1,0-0.1,0-0.2,0
	c0,0-0.1,0-0.1,0c0,0,0,0-0.1,0c0,0,0,0-0.1,0c-0.1,0-0.2,0-0.2,0l0,0c0,0,0,0-0.1,0c-0.1,0-0.2,0-0.2,0.1c0,0,0,0,0,0
	c-0.1,0-0.2,0.1-0.3,0.2l-4.1,2.4c0.1-0.1,0.2-0.1,0.3-0.2c0.1,0,0.2-0.1,0.2-0.1c0,0,0,0,0.1,0c0.1,0,0.2,0,0.3,0c0,0,0,0,0.1,0
	c0.1,0,0.2,0,0.3,0c0,0,0,0,0,0c0.1,0,0.2,0,0.4,0.1c0,0,0,0,0,0c0.1,0,0.2,0.1,0.4,0.1h0c0.1,0,0.3,0.1,0.4,0.2c0,0,0,0,0,0
	c0.1,0.1,0.3,0.1,0.4,0.2c0.1,0.1,0.3,0.2,0.4,0.2c0,0,0,0,0,0c0.1,0.1,0.2,0.2,0.4,0.3c0,0,0,0,0,0c0.1,0.1,0.2,0.2,0.3,0.3l0,0
	c0.1,0.1,0.2,0.2,0.3,0.3l2.4-1.4c0.1,0,0.2,0,0.3,0c0,0,0.1,0,0.1,0c0.2,0,0.4,0,0.6,0c0,0,0,0,0.1,0c0.2,0,0.4,0.1,0.6,0.1
	c0,0,0,0,0.1,0c0.2,0,0.4,0.1,0.6,0.2c0,0,0,0,0,0c0.2,0.1,0.5,0.2,0.7,0.3c0,0,0,0,0,0c0.2,0.1,0.5,0.2,0.7,0.4
	c0.2,0.1,0.5,0.3,0.7,0.5c0,0,0,0,0,0c0.2,0.2,0.4,0.3,0.7,0.5c0,0,0.1,0,0.1,0.1c0.2,0.2,0.4,0.3,0.6,0.5c0,0,0.1,0,0.1,0.1
	c0.2,0.2,0.4,0.4,0.6,0.6c0,0,0,0,0.1,0.1c0.2,0.2,0.4,0.5,0.6,0.7l0,0c0.2,0.2,0.4,0.5,0.6,0.7l0,0c0.2,0.2,0.3,0.5,0.5,0.7
	c0.1,0.2,0.2,0.3,0.3,0.5c0.1,0.1,0.2,0.2,0.2,0.4c0,0.1,0.1,0.1,0.1,0.2c0.1,0.2,0.2,0.4,0.4,0.7c0,0,0,0.1,0,0.1
	c0.1,0.3,0.3,0.6,0.4,0.8c0,0,0,0,0,0c0.1,0.3,0.2,0.6,0.3,0.8c0,0,0,0,0,0.1c0.1,0.3,0.2,0.6,0.3,0.9c0,0,0,0,0,0.1
	c0.1,0.3,0.2,0.6,0.2,0.8c0,0,0,0.1,0,0.1c0.1,0.3,0.1,0.6,0.2,0.8v0c0,0.3,0.1,0.6,0.1,0.8c0,0,0,0,0,0.1c0,0.3,0,0.6,0,0.8
	c0,0.3,0,0.5,0,0.8c0,0,0,0,0,0.1c0,0.2-0.1,0.5-0.1,0.7c0.1,0.1,0.2,0.2,0.3,0.3l0,0c0.1,0.1,0.2,0.2,0.3,0.3c0,0,0,0,0,0.1
	c0.1,0.1,0.2,0.2,0.3,0.3c0,0,0,0,0.1,0.1c0.1,0.1,0.2,0.2,0.3,0.4c0,0,0.1,0.1,0.1,0.1c0.1,0.1,0.1,0.2,0.2,0.3
	c0.1,0.2,0.2,0.4,0.3,0.6c0.1,0.1,0.1,0.2,0.2,0.3c0,0.1,0.1,0.1,0.1,0.2c0.1,0.1,0.1,0.3,0.2,0.4c0,0,0,0,0,0.1
	c0.1,0.1,0.1,0.3,0.2,0.4c0,0,0,0,0,0.1c0.1,0.1,0.1,0.3,0.2,0.4c0,0,0,0,0,0c0.1,0.2,0.1,0.3,0.2,0.4c0,0,0,0,0,0
	c0,0.2,0.1,0.3,0.1,0.4c0,0,0,0,0,0.1c0,0.1,0.1,0.3,0.1,0.4c0,0,0,0,0,0.1c0,0.1,0.1,0.3,0.1,0.4c0,0,0,0,0,0c0,0.2,0,0.3,0,0.4
	c0,0,0,0,0,0c0,0.2,0,0.3,0,0.5c0,0.2,0,0.3,0,0.5c0,0,0,0,0,0c0,0.2,0,0.3-0.1,0.4l0,0.1c0,0.1-0.1,0.3-0.1,0.4l0,0.1
	c0,0.1-0.1,0.2-0.1,0.3c0,0,0,0,0,0c-0.1,0.1-0.1,0.2-0.2,0.3c-0.1,0.2-0.2,0.3-0.3,0.4c0,0-0.1,0.1-0.1,0.1
	c-0.1,0.1-0.2,0.2-0.4,0.3l4.1-2.4c0.1-0.1,0.3-0.2,0.4-0.3c0,0,0.1-0.1,0.1-0.1c0.1-0.1,0.2-0.2,0.3-0.4l0,0
	c0.1-0.1,0.1-0.2,0.2-0.3c0,0,0,0,0,0s0,0,0,0c0-0.1,0.1-0.1,0.1-0.2c0,0,0-0.1,0-0.1l0-0.1c0,0,0,0,0-0.1c0-0.1,0-0.2,0.1-0.2
	c0,0,0-0.1,0-0.1l0-0.1c0,0,0-0.1,0-0.1c0-0.1,0-0.2,0-0.2c0,0,0-0.1,0-0.1c0,0,0,0,0,0c0,0,0,0,0-0.1c0-0.1,0-0.2,0-0.2
	C-249.6,428.9-249.6,428.8-249.6,428.7L-249.6,428.7C-249.5,428.8-249.5,428.8-249.6,428.7L-249.6,428.7z"/>
<g>
	<g>
		<path class="st1" d="M-255.2,434.2l0.2-0.1c0.1-0.1,0.2-0.1,0.3-0.2l0.1-0.1c0.1-0.1,0.2-0.2,0.2-0.3c0.1-0.1,0.1-0.2,0.2-0.3
			c0.1-0.1,0.1-0.2,0.1-0.3l0-0.1c0-0.1,0.1-0.2,0.1-0.3c0-0.2,0.1-0.3,0.1-0.4c0-0.2,0-0.3,0-0.5c0-0.2,0-0.3,0-0.4
			c0-0.2,0-0.3,0-0.4c0-0.2,0-0.3-0.1-0.4c0-0.2-0.1-0.3-0.1-0.4c-0.1-0.2-0.1-0.3-0.1-0.5c-0.1-0.2-0.1-0.3-0.2-0.5
			c-0.1-0.2-0.1-0.3-0.2-0.4c-0.1-0.2-0.1-0.3-0.2-0.4l-0.1-0.1c-0.1-0.1-0.1-0.2-0.2-0.4l-0.2-0.4c-0.1-0.2-0.2-0.4-0.3-0.5
			c-0.1-0.1-0.1-0.2-0.2-0.3l-0.1-0.1c-0.1-0.1-0.2-0.2-0.3-0.3l-0.1-0.1c-0.1-0.1-0.2-0.2-0.3-0.3l0,0c-0.1-0.1-0.2-0.2-0.3-0.3
			c-0.2-0.2-0.2-0.2-0.3-0.3l-0.2-0.2l0.1-0.3c0-0.2,0.1-0.4,0.1-0.7l0-0.2c0-0.2,0-0.4,0-0.6c0-0.3,0-0.5,0-0.8v-0.1
			c0-0.3-0.1-0.5-0.1-0.8c0-0.2-0.1-0.5-0.2-0.8l0-0.1c-0.1-0.3-0.1-0.5-0.2-0.8c-0.1-0.3-0.2-0.6-0.3-0.9l0-0.1
			c-0.1-0.3-0.2-0.6-0.3-0.8c-0.2-0.3-0.3-0.7-0.4-0.9l0-0.1c-0.1-0.2-0.2-0.4-0.4-0.7l-0.1-0.2c-0.1-0.1-0.1-0.2-0.2-0.3l-0.1-0.2
			c-0.1-0.1-0.2-0.2-0.2-0.4c-0.2-0.2-0.3-0.5-0.5-0.7c-0.2-0.3-0.4-0.5-0.6-0.7c-0.2-0.2-0.3-0.4-0.5-0.6l0,0l-0.2-0.2
			c-0.2-0.2-0.4-0.4-0.6-0.6l-0.1-0.1c-0.2-0.2-0.4-0.4-0.6-0.5l-0.1-0.1c-0.2-0.2-0.4-0.3-0.6-0.5c-0.3-0.2-0.5-0.3-0.7-0.5
			c-0.2-0.1-0.4-0.2-0.7-0.3c-0.2-0.1-0.5-0.2-0.7-0.3c-0.2-0.1-0.4-0.1-0.5-0.2l-0.2,0c-0.2,0-0.3-0.1-0.5-0.1l-0.1,0
			c-0.1,0-0.2,0-0.3,0c-0.1,0-0.1,0-0.2,0h-0.1c0,0-0.1,0-0.1,0l-2.7,1.6l-0.3-0.3c-0.1-0.1-0.2-0.2-0.2-0.2l-0.1-0.1
			c-0.2-0.1-0.2-0.2-0.4-0.3c-0.2-0.1-0.3-0.2-0.4-0.3c-0.1-0.1-0.3-0.2-0.4-0.2c-0.2-0.1-0.3-0.2-0.4-0.2c-0.2-0.1-0.3-0.1-0.4-0.2
			c-0.1,0-0.2-0.1-0.3-0.1c-0.2,0-0.2,0-0.3-0.1c-0.1,0-0.2,0-0.2,0c0,0-0.1,0-0.1,0l-0.2,0l0,0c-0.1,0-0.1,0-0.1,0
			c-0.1,0-0.2,0.1-0.2,0.1c-0.1,0-0.2,0.1-0.2,0.1l-0.2,0.2l-0.2-0.2l-0.5-0.8h0.3l4-2.3c0.1-0.1,0.2-0.1,0.4-0.2
			c0.1,0,0.2-0.1,0.3-0.1c0,0,0.1,0,0.1,0c0.1,0,0.2,0,0.3,0l0.3,0c0,0,0.1,0,0.1,0l0,0h0c0,0,0.3,0,0.3,0v0h0l0.1,0
			c0.1,0,0.1,0,0.2,0l0.2,0c0.1,0,0.1,0,0.2,0.1l0.2,0.1l0.1,0c0,0,0.1,0,0.2,0.1c0.1,0,0.1,0.1,0.2,0.1l0.2,0.1l0.1,0
			c0,0,0.1,0,0.1,0.1l0.1,0.1c0.1,0.1,0.2,0.1,0.2,0.1l0.2,0.1c0.1,0.1,0.2,0.1,0.2,0.2l0.1,0c0.1,0,0.1,0.1,0.2,0.1l0.2,0.2
			c0,0,0.1,0.1,0.1,0.1l1-0.6c0.2-0.1,0.4-0.2,0.7-0.3c0.2-0.1,0.3-0.1,0.4-0.1c0.1,0,0.1,0,0.2,0c0.2,0,0.4-0.1,0.5-0.1
			c0,0,0.4,0,0.4,0c0.1,0,0.2,0,0.4,0l0.1,0c0.1,0,0.1,0,0.2,0h0c0.1,0,0.2,0,0.3,0.1h0l0,0h0l0.2,0l0,0l0.1,0
			c0.1,0,0.2,0.1,0.3,0.1c0,0,0.1,0,0.1,0c0,0,0.2,0.1,0.2,0.1c0.1,0,0.2,0.1,0.3,0.1l0.1,0c0.1,0,0.2,0.1,0.2,0.1l0.2,0.1
			c0,0,0.1,0,0.1,0.1c0.1,0.1,0.2,0.1,0.3,0.2c0,0,0.2,0.1,0.2,0.1l0.1,0l0.3,0.2c0.1,0.1,0.2,0.1,0.3,0.2l0.3,0.2l0.3,0.2l0.3,0.3
			c0.1,0.1,0.2,0.2,0.3,0.3l0.3,0.3c0.1,0.1,0.2,0.2,0.3,0.3l0.1,0.1l0,0l0.1,0.1l0.1,0.1l0,0l0,0c0.1,0.1,0.2,0.2,0.3,0.3
			c0.1,0.1,0.2,0.2,0.3,0.3l0.1,0.1c0.1,0.1,0.2,0.2,0.2,0.3c0.1,0.1,0.2,0.3,0.3,0.4c0.2,0.2,0.3,0.4,0.5,0.7l0,0.1
			c0.1,0.1,0.1,0.2,0.2,0.3l0.2,0.3c0,0,0,0.1,0,0.1c0,0,0.1,0.1,0.1,0.1l0.2,0.3c0.1,0.1,0.1,0.2,0.2,0.3l0.1,0.2l0,0l0.1,0.2
			l0,0.1l0,0c0.1,0.2,0.1,0.3,0.2,0.4c0.1,0.1,0.1,0.2,0.2,0.4l0.2,0.3l0,0.1c0,0.1,0.1,0.2,0.1,0.3l0,0.1l0,0l0.1,0.3
			c0,0.1,0.1,0.2,0.1,0.4c0,0.1,0.1,0.2,0.1,0.4l0.1,0.4c0,0.1,0.1,0.3,0.1,0.4l0.1,0.4l0.1,0.4c0,0.1,0,0.2,0.1,0.4v0
			c0,0.1,0,0.3,0.1,0.4c0,0.1,0,0.2,0,0.3l0,0l0,0.2l0,0.1l0,0l0,0.1c0,0.1,0,0.1,0,0.2c0,0.1,0,0.1,0,0.2c0,0.1,0,0.2,0,0.3
			c0,0.1,0,0.2,0,0.4c0,0.1,0,0.2,0,0.4l0,0.4c0,0.1,0,0.2,0,0.2l0.2,0.2c0.1,0.1,0.2,0.2,0.2,0.2l0,0l0,0l0.2,0.2
			c0.1,0.1,0.1,0.2,0.2,0.2l0,0l0.2,0.3c0.1,0.1,0.1,0.2,0.2,0.3l0.1,0.1c0.1,0.1,0.1,0.2,0.2,0.2c0.2,0.2,0.3,0.4,0.4,0.6l0.2,0.4
			l0,0.1c0,0.1,0.1,0.2,0.1,0.2l0.2,0.3l0,0c0,0,0.1,0.2,0.1,0.2l0,0l0.1,0.2l0,0.1l0,0l0.2,0.4c0,0.1,0.1,0.2,0.1,0.3l0,0l0,0
			l0.1,0.2c0,0.1,0.1,0.3,0.1,0.3l0,0l0,0.2l0,0.1l0,0c0,0.1,0,0.1,0,0.2l0,0l0,0.2l0,0.1l0,0l0,0.2l0,0l0,0.2c0,0.1,0,0.2,0,0.3
			l0,0.2c0,0.1,0,0.2,0,0.3v0c0,0.1,0,0.2,0,0.2c0,0.1,0,0.1,0,0.1c0,0,0,0.1,0,0.1c0,0.1,0,0.2,0,0.2l0,0.2l0,0.2l0,0.3l0,0
			c0,0.1,0,0.2-0.1,0.2l-0.1,0.3c0,0.1-0.1,0.2-0.1,0.2l0,0.1c-0.1,0.1-0.1,0.3-0.2,0.4l0,0l0,0c-0.1,0.2-0.2,0.3-0.4,0.4l-0.1,0.1
			c-0.2,0.2-0.3,0.3-0.5,0.4l-4.2,2.5L-255.2,434.2z M-256.3,424.4c0.1,0,0.1,0.1,0.2,0.1l0,0c0.1,0.1,0.2,0.2,0.3,0.3l0.1,0.1
			c0.1,0.1,0.2,0.2,0.3,0.4l0.1,0.1c0.1,0.2,0.2,0.3,0.3,0.4c0,0,0.2,0.3,0.3,0.4c0.1,0.2,0.2,0.4,0.4,0.6c0.1,0.1,0.1,0.2,0.2,0.3
			l0.1,0.2c0.1,0.1,0.2,0.3,0.2,0.4l0,0.1c0.1,0.2,0.1,0.3,0.2,0.4c0.1,0.2,0.2,0.3,0.2,0.5c0.1,0.2,0.1,0.3,0.2,0.5
			c0.1,0.2,0.1,0.3,0.1,0.5c0.1,0.2,0.1,0.3,0.1,0.5c0,0.2,0.1,0.4,0.1,0.5c0,0.2,0,0.3,0.1,0.5c0,0.2,0,0.3,0,0.5
			c0,0.2,0,0.3,0,0.6c0,0.2,0,0.3-0.1,0.5l0,0.1c0,0.1,0,0.2-0.1,0.3l2.1-1.2c0.1-0.1,0.2-0.1,0.3-0.2l0.1-0.1
			c0.1-0.1,0.2-0.2,0.2-0.3v0l0,0c0,0,0,0,0-0.1c0,0,0.1-0.1,0.1-0.2c0-0.1,0.1-0.2,0.1-0.2l0.1-0.2c0,0,0-0.1,0-0.1l0.1-0.3
			c0-0.1,0-0.2,0-0.2l0-0.2c0-0.1,0-0.1,0-0.2c0-0.1,0-0.1,0-0.2s0-0.1,0-0.2v-0.1c0,0,0-0.1,0-0.1l0-0.2l0-0.2l0-0.2
			c0,0,0-0.1,0-0.1c0,0,0-0.1,0-0.1v0l0-0.2l0-0.1c0-0.1,0-0.1,0-0.2l-0.1-0.2l0,0l0-0.1l-0.1-0.2l-0.1-0.2c0-0.1,0-0.1-0.1-0.2
			l-0.2-0.5l-0.1-0.2c0-0.1,0-0.1-0.1-0.1l0-0.1l-0.1-0.2c0-0.1-0.1-0.2-0.1-0.2l-0.2-0.4c-0.1-0.2-0.2-0.4-0.4-0.6
			c0-0.1-0.1-0.1-0.1-0.2l-0.2-0.2c-0.1-0.1-0.1-0.2-0.2-0.2l-0.2-0.2c0,0-0.1-0.1-0.1-0.1l-0.1-0.2l-0.1-0.1l0,0l-0.1-0.1
			c0,0-0.1-0.1-0.1-0.1l0,0l-0.2-0.2c-0.1-0.1-0.1-0.1-0.2-0.2l0,0l-0.2-0.2l0.1-0.4c0-0.1,0-0.2,0-0.3l0-0.4c0-0.1,0-0.2,0-0.2
			c0-0.1,0-0.2,0-0.3s0-0.2,0-0.3c0-0.1,0-0.2,0-0.3l0-0.2l0-0.1c0-0.1,0-0.2,0-0.3v0c0-0.1,0-0.2,0-0.3c0-0.1,0-0.2-0.1-0.3
			c0-0.1-0.1-0.2-0.1-0.4l-0.1-0.4c0-0.1-0.1-0.2-0.1-0.3l0-0.1l-0.1-0.3c0-0.1-0.1-0.2-0.1-0.4c0-0.1-0.1-0.2-0.1-0.3l-0.2-0.4
			c0-0.1-0.1-0.2-0.1-0.3l-0.1-0.3c-0.1-0.2-0.1-0.3-0.2-0.4c-0.1-0.1-0.1-0.2-0.2-0.4l0-0.1l-0.2-0.3c0-0.1-0.1-0.2-0.2-0.3
			l-0.2-0.4l-0.2-0.4c-0.1-0.1-0.2-0.2-0.2-0.4l-0.1-0.1l0,0c-0.1-0.2-0.3-0.4-0.4-0.6c-0.1-0.1-0.2-0.3-0.3-0.4
			c-0.1-0.1-0.2-0.2-0.3-0.3c-0.1-0.1-0.1-0.2-0.2-0.2l-0.1-0.1c-0.1-0.1-0.2-0.2-0.3-0.3l-0.3-0.3c-0.1-0.1-0.2-0.2-0.3-0.3
			l-0.3-0.3c-0.1-0.1-0.2-0.2-0.3-0.3l-0.3-0.2c-0.1-0.1-0.2-0.2-0.3-0.2c-0.1-0.1-0.2-0.1-0.2-0.2l-0.1,0c-0.1-0.1-0.2-0.2-0.3-0.2
			c-0.1-0.1-0.2-0.1-0.2-0.1l-0.1-0.1l-0.1,0c0,0-0.1,0-0.1-0.1c0,0-0.1,0-0.1-0.1l-0.1,0c-0.1,0-0.1-0.1-0.2-0.1l-0.1,0
			c0,0-0.1,0-0.1-0.1l-0.1,0l-0.1,0c-0.1,0-0.1-0.1-0.2-0.1s-0.1-0.1-0.2-0.1l-0.1,0l-0.1,0c-0.1,0-0.1,0-0.2,0
			c-0.1,0-0.2-0.1-0.3-0.1l-0.2-0.1c-0.1,0-0.2,0-0.3-0.1c-0.1,0-0.1,0-0.2,0l-0.1,0c-0.1,0-0.2,0-0.3,0l-0.3,0
			c-0.1,0-0.2,0-0.3,0.1l-0.1,0l0,0c-0.1,0-0.2,0-0.3,0.1c-0.2,0.1-0.4,0.2-0.5,0.2l-1.6,1l-0.4-0.4c-0.1-0.1-0.1-0.1-0.2-0.2
			l-0.2-0.1c-0.1-0.1-0.1-0.1-0.2-0.1c0,0-0.1-0.1-0.1-0.1l-0.1,0c-0.1-0.1-0.1-0.1-0.2-0.1c0,0-0.1-0.1-0.2-0.1l-0.2-0.1
			c-0.1,0-0.1-0.1-0.2-0.1l-0.2-0.1c-0.1,0-0.1,0-0.2-0.1s-0.1,0-0.2-0.1l-0.2-0.1c0,0-0.1,0-0.1,0h0l-0.2,0l0,0c-0.1,0-0.1,0-0.2,0
			l-0.2,0l0,0c0,0-0.1,0-0.1,0l-0.2,0c-0.1,0-0.1,0-0.2,0l-0.2,0c-0.1,0-0.1,0-0.2,0.1c-0.1,0-0.2,0.1-0.3,0.1l-2.2,1.3
			c0.1,0,0.2,0,0.2,0.1c0.2,0.1,0.3,0.1,0.5,0.2c0.2,0.1,0.3,0.2,0.5,0.2c0.2,0.1,0.3,0.2,0.4,0.3c0.2,0.1,0.3,0.2,0.4,0.3
			c0.2,0.1,0.3,0.2,0.4,0.3c0,0,0.1,0.1,0.1,0.1l2.3-1.3h0c0.1,0,0.2,0,0.2,0h0.1c0.1,0,0.1,0,0.2,0c0.1,0,0.3,0,0.4,0h0.1
			c0.2,0,0.4,0.1,0.7,0.1l0.1,0c0.2,0.1,0.5,0.1,0.7,0.2c0.3,0.1,0.5,0.2,0.8,0.3c0.3,0.1,0.5,0.2,0.8,0.4c0.2,0.2,0.5,0.3,0.8,0.5
			c0.3,0.2,0.5,0.4,0.7,0.5l0.1,0.1c0.2,0.2,0.4,0.4,0.6,0.6l0.1,0.1c0.2,0.2,0.4,0.4,0.6,0.6l0.1,0.1c0.2,0.2,0.4,0.5,0.6,0.7
			c0.2,0.3,0.4,0.5,0.6,0.8c0.2,0.2,0.4,0.5,0.5,0.7c0.1,0.1,0.2,0.2,0.2,0.4l0.1,0.2c0.1,0.1,0.1,0.2,0.2,0.3l0.1,0.2
			c0.1,0.2,0.2,0.4,0.3,0.6l0,0l0.1,0.1l0.1,0.2l0,0c0.1,0.3,0.3,0.6,0.4,0.8c0.1,0.3,0.2,0.6,0.4,0.9l0,0.1
			c0.1,0.2,0.2,0.6,0.3,0.9c0.1,0.3,0.2,0.6,0.2,0.9l0,0.1c0.1,0.3,0.1,0.6,0.2,0.9c0,0.3,0.1,0.6,0.1,0.9v0.1c0,0.3,0,0.6,0,0.9
			c0,0.2,0,0.5,0,0.8v0.1C-256.1,424.1-256.1,424.2-256.3,424.4C-256.2,424.2-256.3,424.3-256.3,424.4z"/>
	</g>
</g>
<path class="st2" d="M-264.5,410.8c4,2.3,7.2,7.9,7.2,12.4c0,0.6-0.1,1.1-0.1,1.5c1.9,1.7,3.3,4.6,3.3,7c0,2.9-2.1,4.1-4.6,2.6
	l-16.5-9.5c-2.9-1.7-5.2-5.7-5.2-9c0-2.8,1.6-4.2,3.9-3.6c0.1-2.6,2-3.6,4.3-2.3c0.6,0.3,1.1,0.7,1.6,1.2
	C-269.4,409.6-267.1,409.3-264.5,410.8z"/>
<g>
	<path class="st1" d="M-256.6,435.6c-0.7,0-1.5-0.2-2.3-0.7l-16.5-9.5c-3-1.7-5.5-6-5.5-9.4c0-1.6,0.5-2.9,1.5-3.6
		c0.6-0.4,1.2-0.6,1.9-0.6c0.2,0,0.4,0,0.5,0c0.2-1.1,0.7-2,1.5-2.4c0.4-0.2,0.9-0.3,1.3-0.3c0.7,0,1.4,0.2,2.2,0.7
		c0.4,0.2,0.9,0.6,1.3,1c0.8-0.8,1.8-1.2,3-1.2c1.1,0,2.3,0.4,3.5,1.1c4.1,2.4,7.4,8.2,7.4,12.9c0,0.4,0,0.9-0.1,1.3
		c2,1.9,3.3,4.8,3.3,7.2c0,1.6-0.6,2.8-1.6,3.4C-255.6,435.4-256.1,435.6-256.6,435.6z M-277.5,412.7c-0.5,0-1,0.2-1.3,0.4
		c-0.7,0.5-1.1,1.5-1.1,2.8c0,3.1,2.2,7,5,8.6l16.5,9.5c0.7,0.4,1.3,0.6,1.8,0.6c0.4,0,0.7-0.1,1-0.2c0.7-0.4,1.1-1.3,1.1-2.5
		c0-2.2-1.3-5-3.2-6.7l-0.2-0.2l0.1-0.3c0.1-0.4,0.1-0.9,0.1-1.4c0-4.4-3.1-9.8-6.9-12c-1.1-0.6-2.1-0.9-3-0.9c-1.1,0-2,0.4-2.6,1.3
		l-0.3,0.5l-0.4-0.4c-0.5-0.5-1-0.9-1.5-1.2c-0.6-0.3-1.2-0.5-1.7-0.5c-0.3,0-0.6,0.1-0.9,0.2c-0.6,0.3-1,1.1-1,2.2l0,0.6l-0.6-0.2
		C-277,412.7-277.3,412.7-277.5,412.7z"/>
</g>
<path class="st1" d="M-256.4,424.7c-0.1,0-0.2-0.1-0.2-0.1c-0.1-0.1,0-0.3,0.1-0.4l4.1-2.3c0.1-0.1,0.3,0,0.4,0.1
	c0.1,0.1,0,0.3-0.1,0.4l-4.1,2.3C-256.3,424.7-256.3,424.7-256.4,424.7z"/>
<rect x="-268.3" y="408.9" transform="matrix(0.8632 -0.5048 0.5048 0.8632 -243.0344 -78.693)" class="st1" width="3" height="0.6"/>
</svg>
