<?xml version="1.0" encoding="utf-8"?>
<!-- Generator: Adobe Illustrator 19.0.0, SVG Export Plug-In . SVG Version: 6.00 Build 0)  -->
<svg version="1.1" id="图层_1" xmlns="http://www.w3.org/2000/svg" xmlns:xlink="http://www.w3.org/1999/xlink" x="0px" y="0px"
	 viewBox="-281 404.9 32 32" style="enable-background:new -281 404.9 32 32;" xml:space="preserve" width="50" height="50">
<style type="text/css">
	.st0{fill:#3DB58D;}
	.st1{fill:#82E0BE;}
</style>
<g id="图层_2">
</g>
<path class="st0" d="M-278.9,408.1v28.8h19.2v-28.8l-4.8-3.2L-278.9,408.1z M-268.5,433.4h-8v-2.9l8-0.2V433.4z M-268.5,427l-8,0.2
	v-2.9l8-0.6V427z M-268.5,420.1l-8,0.6v-2.9l8-1.1V420.1z M-268.5,413.1l-8,1.3v-3l8-1.9V413.1z M-252.2,433.7v-25.6l-4.8-3.2h-2.4
	l2.4,1.6v30.4h8v-3.2H-252.2L-252.2,433.7z"/>
<rect x="-281" y="433.7" class="st0" width="22.8" height="3.2"/>
<polygon class="st1" points="-261.7,434.1 -265.1,434.1 -264.9,407.5 -261.5,409.8 "/>
</svg>
