<?xml version="1.0" encoding="utf-8"?>
<!-- Generator: Adobe Illustrator 19.0.0, SVG Export Plug-In . SVG Version: 6.00 Build 0)  -->
<svg version="1.1" id="图层_1" xmlns="http://www.w3.org/2000/svg" xmlns:xlink="http://www.w3.org/1999/xlink" x="0px" y="0px"
	 viewBox="0 0 32 32" style="enable-background:new 0 0 32 32;" xml:space="preserve" width="50" height="50">
<style type="text/css">
	.st0{fill:#87CAB1;}
	.st1{fill:#FFFFFF;}
	.st2{fill:#40AD88;}
</style>
<path id="XMLID_233_" class="st0" d="M31.5,10.5c0,4.2-6.2,8.3-13.8,8.3c-1.4,0-3.4-0.2-4.4-0.6v9.4c1.4,0.4,3,0.6,4.4,0.6
	c7.5,0,13.8-3.5,13.8-7.7V10.5"/>
<path id="XMLID_232_" class="st1" d="M17.6,3.1c-7.5,0-13.9,3.4-13.9,7.7c0,0.7,0.2,1.4,0.5,2.1l9,5.4c1,0.3,3,0.6,4.4,0.6
	c7.5,0,13.8-4,13.8-8.3S25.2,3.1,17.6,3.1z"/>
<path id="XMLID_231_" class="st2" d="M17.7,19.3c-1.4,0-3.5-0.2-4.6-0.6l0.3-1.1c0.9,0.3,2.9,0.5,4.2,0.5c7.5,0,13.2-4.1,13.2-7.7
	c0-3.7-6-6.8-13.3-6.8C10.4,3.6,4.3,6.9,4.3,10.7c0,0.6,0.2,1.3,0.4,1.9l-1,0.5c-0.4-0.8-0.6-1.6-0.6-2.4c0-4.5,6.5-8.2,14.4-8.2
	c8,0,14.4,3.5,14.4,7.9C32,15.2,25.3,19.3,17.7,19.3z"/>
<path id="XMLID_230_" class="st0" d="M0.7,13.7L17,10.3l0.4,0.2l-9.7,9.1v8.5C6.5,28,1.6,26,0.6,22.6L0.7,13.7z"/>
<path id="XMLID_225_" class="st2" d="M8.3,28.7l-0.6-0.1c-1.5-0.1-6.6-2.3-7.7-5.9C0,22.7,0,22.7,0,13.7v-0.4l17-3.5l1.3,0.7
	l-10,9.5V28.7z M1.2,22.5c0.8,2.6,4.4,4.5,6.1,5v-8l8.9-8.4L1.1,14.1L1.2,22.5L1.2,22.5z M14.9,20.4H16v3.9h-1.1V20.4z M14.9,25.3
	H16v1.1h-1.1V25.3z"/>
<path id="XMLID_222_" class="st2" d="M3.2,10.7h1.1V13H3.2V10.7z M17.7,28.6c-1.9,0-3.4-0.2-4.6-0.6l-0.4-0.2V18l3.9-7.8l1,0.5
	l-3.8,7.6v8.8c1.1,0.3,2.3,0.4,3.9,0.4c7.2,0,13.2-3.3,13.2-7.2v-9.9H32v9.9C32,24.9,25.6,28.6,17.7,28.6L17.7,28.6z"/>
<g id="XMLID_220_">
	<path id="XMLID_221_" class="st2" d="M7.5,19.9c-3.9-1.2-6.6-3.5-7.2-6l0.8-0.1c0.5,2.3,3.1,4.4,6.7,5.5L7.5,19.9z"/>
</g>
<polygon id="XMLID_219_" class="st0" points="8.3,28.7 8.3,28.7 8.3,19.9 14.9,13.6 "/>
</svg>
