<?xml version="1.0" encoding="utf-8"?>
<!-- Generator: Adobe Illustrator 19.0.0, SVG Export Plug-In . SVG Version: 6.00 Build 0)  -->
<svg version="1.1" id="图层_1" xmlns="http://www.w3.org/2000/svg" xmlns:xlink="http://www.w3.org/1999/xlink" x="0px" y="0px"
	 viewBox="-281 404.9 32 32" style="enable-background:new -281 404.9 32 32;" xml:space="preserve" width="50" height="50">
<style type="text/css">
	.st0{fill:#3DB58D;}
	.st1{fill:#FFFFFF;}
	.st2{fill:#82E0BE;}
</style>
<g id="图层_2">
</g>
<path class="st0" d="M-252.2,431.2c-0.7,3.2-6.1,5.7-12.7,5.7s-12.1-2.5-12.7-5.8h-0.1v-19.8c0-3.5,5.7-6.4,12.8-6.4
	c7,0,12.8,2.9,12.8,6.4L-252.2,431.2L-252.2,431.2L-252.2,431.2z"/>
<path class="st1" d="M-264.9,406.1c-6.5,0-11.7,2.4-11.7,5.3s5.3,5.3,11.7,5.3c6.5,0,11.7-2.4,11.7-5.3
	C-253.1,408.5-258.4,406.1-264.9,406.1z"/>
<path class="st2" d="M-253.1,413.7c-2,2.1-6.5,3.7-11.7,3.7s-9.8-1.5-11.7-3.7l-0.1,4.6c0,2.7,5.3,4.8,11.7,4.8s11.7-2.2,11.7-4.8
	L-253.1,413.7z"/>
<path class="st2" d="M-253.1,420c-2,2.1-6.5,3.7-11.7,3.7s-9.8-1.5-11.7-3.7l-0.1,4.6c0,2.7,5.3,4.8,11.7,4.8s11.7-2.2,11.7-4.8
	L-253.1,420z"/>
<path class="st2" d="M-253.1,426.4c-2,2.1-6.5,3.7-11.7,3.7s-9.8-1.5-11.7-3.7l-0.1,4.6c0,2.7,5.3,4.8,11.7,4.8s11.7-2.2,11.7-4.8
	L-253.1,426.4z"/>
<polygon class="st0" points="-256,430 -254.7,429.4 -254.7,431.3 -256,432 "/>
<polygon class="st0" points="-256,423.8 -254.7,423.2 -254.7,425.1 -256,425.8 "/>
<polygon class="st0" points="-256,417.3 -254.7,416.6 -254.7,418.5 -256,419.2 "/>
</svg>
