<?xml version="1.0" encoding="utf-8"?>
<!-- Generator: Adobe Illustrator 19.0.0, SVG Export Plug-In . SVG Version: 6.00 Build 0)  -->
<svg version="1.1" id="图层_1" xmlns="http://www.w3.org/2000/svg" xmlns:xlink="http://www.w3.org/1999/xlink" x="0px" y="0px"
	 viewBox="0 0 32 32" style="enable-background:new 0 0 32 32;" xml:space="preserve" width="50" height="50">
<style type="text/css">
	.st0{fill:#FFFFFF;}
	.st1{fill:#40AD88;}
	.st2{fill:#87CAB1;}
</style>
<polygon id="XMLID_223_" class="st0" points="29.2,27.8 0.8,27.8 0.8,4 8.5,4.3 9.8,7.7 29.2,8 "/>
<path id="XMLID_220_" class="st1" d="M30.7,12.5L30.7,12.5l-0.1-3.3c0-1.1-0.9-2.1-2.1-2.1h-18L9.2,3.6C9,3.2,8.7,3,8.3,3H0.9
	C0.7,3,0.4,3.1,0.3,3.3C0.1,3.5,0,3.7,0,3.9v5.2v17.7C0,28.1,0.9,29,2.1,29h26.5c0,0,0,0,0.1,0h2.1c0.7,0,1.3-0.6,1.3-1.3V13.8
	C32,13.1,31.4,12.5,30.7,12.5z M28.7,12.5H5.3c-0.7,0-1.3,0.6-1.3,1.3v13.3H2c-0.1,0-0.2-0.1-0.2-0.2V9.2l0-4.3h5.8l1.3,3.5
	C9.1,8.8,9.4,9,9.8,9h18.7c0.1,0,0.2,0.1,0.2,0.2L28.7,12.5L28.7,12.5z"/>
<path id="XMLID_219_" class="st2" d="M30.3,27.1H5.8c-0.5,0-1-0.4-1-1V14.2c0-0.5,0.4-1,1-1h24.5c0.5,0,1,0.4,1,1v11.9
	C31.4,26.6,30.9,27.1,30.3,27.1z"/>
</svg>
