<?xml version="1.0" encoding="utf-8"?>
<!-- Generator: Adobe Illustrator 19.0.0, SVG Export Plug-In . SVG Version: 6.00 Build 0)  -->
<svg version="1.1" id="图层_1" xmlns="http://www.w3.org/2000/svg" xmlns:xlink="http://www.w3.org/1999/xlink" x="0px" y="0px"
	 viewBox="0 0 32 32" style="enable-background:new 0 0 32 32;" xml:space="preserve" width="50" height="50">
<style type="text/css">
	.st0{fill:#40AD88;}
	.st1{fill:#FFFFFF;}
	.st2{fill:#87CAB1;}
</style>
<path id="XMLID_225_" class="st0" d="M31.9,21.1c-0.8,4.1-7.6,7.2-15.9,7.2S0.9,25.1,0.1,21.1H0v-9.4c0-4.4,7.2-8,16-8s16,3.6,16,8
	L31.9,21.1L31.9,21.1L31.9,21.1L31.9,21.1z"/>
<path id="XMLID_224_" class="st1" d="M16,5.2c-8.1,0-14.7,3-14.7,6.7s6.6,6.7,14.7,6.7s14.7-3,14.7-6.7C30.7,8.2,24.1,5.2,16,5.2z"
	/>
<path id="XMLID_223_" class="st2" d="M30.8,14.6c-2.5,2.7-8.1,4.6-14.7,4.6S3.8,17.3,1.4,14.6l-0.1,5.8c0,3.3,6.6,6,14.7,6
	s14.7-2.7,14.7-6L30.8,14.6z"/>
<g id="XMLID_227_">
	<g id="XMLID_228_">
		<g id="XMLID_253_">
			<path id="XMLID_254_" class="st0" d="M3.8,14.3c-0.2,0-0.3-0.1-0.4-0.2c0-0.1-0.1-0.2,0-0.4l2.4-4.8c0.1-0.2,0.2-0.3,0.4-0.3
				l3.4-0.1h0.2c0.7,0,1.2,0.1,1.6,0.2c0.5,0.2,0.8,0.6,0.8,1.1v0c0,0.2,0,0.3,0,0.6c0,0.3-0.1,0.6-0.2,0.9
				c-0.1,0.5-0.2,0.9-0.4,1.3c-0.2,0.4-0.4,0.7-0.7,0.9c-0.3,0.2-0.7,0.4-1.1,0.5c-0.4,0.1-1,0.2-1.6,0.2H3.8z M5.5,12.8h3.1
				c0.7,0,1.1-0.1,1.2-0.1h0c0.2-0.1,0.3-0.2,0.4-0.3v0v0c0-0.1,0.1-0.1,0.1-0.3c0.1-0.2,0.1-0.4,0.2-0.7l0.1-0.4
				c0.2-0.7,0.1-0.9,0.1-0.9l0,0c0,0-0.2-0.1-1-0.1l-2.8,0L5.5,12.8z"/>
		</g>
		<g id="XMLID_233_">
			<path id="XMLID_220_" class="st0" d="M18.5,14.3c-0.2,0-0.3-0.1-0.4-0.2l-4.4-4.2l-0.5,4c0,0.2-0.2,0.4-0.5,0.4h-0.7
				c-0.2,0-0.3-0.1-0.3-0.2c-0.1-0.1-0.1-0.2-0.1-0.4l0.8-4.9c0-0.2,0.2-0.4,0.4-0.4l1.2,0c0.1,0,0.2,0,0.3,0.1h0l3.7,3.5l-0.3-3.1
				c0-0.1,0-0.2,0.1-0.3c0.1-0.1,0.2-0.2,0.3-0.2h0.6c0.2,0,0.4,0.2,0.5,0.4l0.8,5c0,0.1,0,0.3-0.1,0.4c-0.1,0.1-0.2,0.2-0.4,0.2
				L18.5,14.3z"/>
		</g>
		<g id="XMLID_229_">
			<path id="XMLID_230_" class="st0" d="M22.9,14.3c-0.8,0-1.4-0.2-2-0.5c-0.6-0.4-1-0.9-1.1-1.6c0-0.1,0-0.3,0.1-0.4
				c0.1-0.1,0.2-0.2,0.3-0.2h0.7c0.2,0,0.4,0.2,0.5,0.4c0,0.1,0.1,0.2,0.2,0.3c0.1,0.1,0.2,0.1,0.3,0.2c0.1,0.1,0.3,0.1,0.4,0.1
				c0.2,0,0.4,0.1,0.6,0.1h3.2c0.2,0,0.4,0,0.6-0.1c0.2,0,0.2-0.1,0.2-0.1c0,0,0-0.1-0.1-0.3c-0.1-0.3-0.4-0.4-0.7-0.5
				c-0.2-0.1-0.4-0.1-0.6-0.1s-0.5,0-0.8,0h-0.3c-0.1,0-0.2,0-0.3,0h-0.4c0,0-0.1,0-0.1,0h-0.1c-0.1,0-0.3,0-0.4,0h-0.4
				c-0.9,0-1.6-0.1-2.1-0.3c-0.9-0.3-1.2-0.9-1.3-1.4c-0.1-0.4,0-0.8,0.2-1.1c0.3-0.4,0.8-0.6,1.7-0.6l3-0.1c1.4,0,2.4,0.5,2.9,1.4
				c0.1,0.1,0.1,0.3,0,0.4c-0.1,0.1-0.2,0.2-0.4,0.2H26c0.2,0,0.3,0.1,0.4,0.1c0.8,0.3,1.5,0.8,1.8,1.5c0.4,0.8,0.4,1.4,0.1,1.8
				c-0.2,0.2-0.4,0.3-0.8,0.4c-0.3,0.1-0.7,0.1-1.1,0.1L22.9,14.3z M24.4,10.2c0.4,0,0.8,0,1.1,0.1c0.2,0,0.3,0,0.4,0.1
				c-0.1-0.1-0.2-0.1-0.3-0.2c-0.1-0.1-0.1-0.2-0.2-0.3c-0.1-0.1-0.2-0.1-0.3-0.2c-0.2-0.1-0.5-0.1-0.8-0.1l-3,0c-0.2,0-0.3,0-0.4,0
				c-0.1,0-0.1,0-0.2,0.1c0,0,0,0.1,0,0.1c0,0.1,0.2,0.2,0.4,0.3c0.3,0.1,0.7,0.1,1.2,0.1h0.4c0.1,0,0.3,0,0.5,0h0c0,0,0.1,0,0.1,0
				h0.1c0.1,0,0.2,0,0.3,0L24.4,10.2z"/>
		</g>
	</g>
</g>
</svg>
