<?xml version="1.0" encoding="utf-8"?>
<!-- Generator: Adobe Illustrator 19.0.0, SVG Export Plug-In . SVG Version: 6.00 Build 0)  -->
<svg version="1.1" id="图层_1" xmlns="http://www.w3.org/2000/svg" xmlns:xlink="http://www.w3.org/1999/xlink" x="0px" y="0px"
	 viewBox="-281 404.9 32 32" style="enable-background:new -281 404.9 32 32;" xml:space="preserve" width="50" height="50">
<style type="text/css">
	.st0{fill:#82E0BE;}
	.st1{fill:#FFFFFF;}
	.st2{fill:#3DB58D;}
</style>
<g id="图层_2">
</g>
<path class="st0" d="M-256.8,419l0,16.3l-18.1-10.5l0-16.3L-256.8,419z"/>
<path class="st0" d="M-256.8,419l4.5-2.6l0.1,16.2l-4.6,2.8L-256.8,419z"/>
<path class="st1" d="M-274.9,408.5l4.5-2.6l18,10.5l-4.7,2.4L-274.9,408.5z"/>
<path class="st2" d="M-256.8,430.5c-0.1,0-0.1,0-0.1,0l-18.1-10.8l0.1-0.6l18.2,10.8l4.8-3.1l0.3,0.5l-4.9,3.2
	C-256.7,430.5-256.8,430.5-256.8,430.5L-256.8,430.5z M-256.8,425c-0.1,0-0.1,0-0.1,0l-18.1-10.8l0.1-0.6l18.1,10.9l4.9-3.1l0.3,0.5
	l-5.1,3.1C-256.7,425-256.8,425-256.8,425L-256.8,425z"/>
<path class="st2" d="M-268.2,412.5l0.5,0.3l0.1,5.1h-0.6V412.5z M-262.3,421.8h0.6v5.1h-0.6V421.8z M-268.4,423.2l0.6,0.2v5.6
	l-0.6-0.3V423.2z"/>
<g>
	<path class="st2" d="M-256.8,436.2c-0.1,0-0.3,0-0.4-0.1l-18.3-10.6c-0.2-0.1-0.4-0.4-0.4-0.7v-16.5c0-0.3,0.1-0.5,0.4-0.6l4.6-2.7
		c0.1-0.1,0.3-0.1,0.4-0.1s0.3,0,0.4,0.1l18.3,10.6c0.2,0.1,0.4,0.4,0.4,0.7v16.5c0,0.3-0.2,0.5-0.4,0.7l-4.7,2.8
		C-256.6,436.2-256.7,436.2-256.8,436.2z M-256.8,435.2l4.5-2.6v-16.2l-18-10.5l-4.4,2.6v16.2L-256.8,435.2z"/>
</g>
<path class="st2" d="M-257,419.4c-0.1,0-0.1,0-0.1,0l-18.4-10.6l0.3-0.5l18.3,10.6l4.6-2.9l0.3,0.5l-4.8,3
	C-256.9,419.4-256.9,419.4-257,419.4L-257,419.4z"/>
<path class="st2" d="M-257.1,419.1h0.5l0.1,16.3h-0.6V419.1z"/>
<path class="st2" d="M-268.1,426.5c-1.8-2-1.8-4.5-1.8-7.9c-5.7,2.2-4.3,8.3-4.5,10.4c-1.4-1.2-1.8-4.1-1.8-4.1
	c-1.6,0.8-2.4,2.9-2.4,4.5c0.1,4.2,3.5,7.6,7.7,7.5c4.2,0.1,7.6-3.2,7.7-7.4c0,0,0-0.1,0-0.1c0-2.4-1.8-3.7-1.8-6.9
	C-266.9,422.9-268.2,424.6-268.1,426.5z"/>
<path class="st1" d="M-271.1,428.5c2.6,1,2,3.9,2,4.7c0.4-0.5,0.7-1.2,0.8-1.8c0.6,0.5,1,1.2,1,2c0,1.9-1.5,3.5-3.5,3.5
	c-1.9,0-3.5-1.5-3.5-3.5C-274,431.6-271.1,430.2-271.1,428.5z"/>
</svg>
