<?xml version="1.0" encoding="utf-8"?>
<!-- Generator: Adobe Illustrator 19.0.0, SVG Export Plug-In . SVG Version: 6.00 Build 0)  -->
<svg version="1.1" id="图层_1" xmlns="http://www.w3.org/2000/svg" xmlns:xlink="http://www.w3.org/1999/xlink" x="0px" y="0px"
	 viewBox="-281 404.9 32 32" style="enable-background:new -281 404.9 32 32;" xml:space="preserve" width="50" height="50">
<style type="text/css">
	.st0{fill:#82E0BE;}
	.st1{fill:#3DB58D;}
	.st2{fill:#FFFFFF;}
</style>
<g id="图层_2">
</g>
<path class="st0" d="M-265,433.4c-0.1,0-0.1,0-0.1,0l-15.2-8.8c-0.1-0.1-0.1-0.1-0.1-0.3v-6c0-0.1,0.1-0.2,0.1-0.3l15.2-9
	c0,0,0.1,0,0.1,0s0.1,0,0.1,0l15.2,9c0.1,0.1,0.1,0.1,0.1,0.3v6c0,0.1-0.1,0.2-0.1,0.3l-15.2,8.8C-264.9,433.4-265,433.4-265,433.4
	L-265,433.4z"/>
<g>
	<path class="st1" d="M-265,433.9c-0.1,0-0.3,0-0.4-0.1l-15.2-8.8c-0.3-0.1-0.4-0.4-0.4-0.7v-6c0-0.3,0.2-0.5,0.4-0.7l15.2-9
		c0.1-0.1,0.3-0.1,0.4-0.1s0.3,0,0.4,0.1l15.2,9c0.2,0.1,0.4,0.4,0.4,0.7v6c0,0.3-0.2,0.5-0.4,0.7l-2.5,1.4l-12.7,7.4
		C-264.8,433.8-264.9,433.9-265,433.9z M-265,432.8l15-8.7v-5.7l-15-8.8l-15,8.8v5.7L-265,432.8z"/>
</g>
<path class="st2" d="M-280,418.5l14.9,8.7l15-8.7l-15-8.8L-280,418.5z"/>
<path class="st1" d="M-265,427.5c-0.1,0-0.1,0-0.1,0l-14.9-8.7c-0.1-0.1-0.2-0.3-0.1-0.4c0.1-0.1,0.3-0.2,0.4-0.1l14.8,8.6l14.8-8.6
	c0.1-0.1,0.3,0,0.4,0.1c0.1,0.1,0,0.3-0.1,0.4l-14.9,8.7C-264.9,427.5-265,427.5-265,427.5z"/>
<path class="st1" d="M-265.3,427.2l0.5,0.1l0.1,6.1l-0.6-0.1C-265.3,433.2-265.3,427.2-265.3,427.2z"/>
<g id="XMLID_242_">
	<polygon id="XMLID_245_" class="st1" points="-260.3,418.8 -260.3,419.7 -254.9,419.7 -254.9,416.6 -256.7,416.6 -256.7,418.1 
		-267,412 -268.1,412.7 -257.7,418.8 	"/>
	<polygon id="XMLID_244_" class="st1" points="-265.9,415.5 -265.9,414.6 -271.2,414.6 -271.2,417.7 -269.5,417.7 -269.5,416.2 
		-259.2,422.2 -258.1,421.6 -268.5,415.5 	"/>
	<polygon id="XMLID_243_" class="st1" points="-264,421 -264,422.4 -274.5,416.3 -275.5,417 -265.1,423 -267.7,423 -267.7,424.1 
		-262.3,424.1 -262.3,421 	"/>
</g>
</svg>
