<?xml version="1.0" encoding="utf-8"?>
<!-- Generator: Adobe Illustrator 19.0.0, SVG Export Plug-In . SVG Version: 6.00 Build 0)  -->
<svg version="1.1" id="图层_1" xmlns="http://www.w3.org/2000/svg" xmlns:xlink="http://www.w3.org/1999/xlink" x="0px" y="0px"
	 viewBox="-281 404.9 32 32" style="enable-background:new -281 404.9 32 32;" xml:space="preserve" width="50" height="50">
<style type="text/css">
	.st0{fill:#82E0BE;}
	.st1{fill:#3DB58D;}
	.st2{fill:#FFFFFF;}
</style>
<g id="图层_2">
</g>
<path class="st0" d="M-269.8,433.4c-0.1,0-0.1,0-0.2-0.1l-10.3-5.9c-0.1-0.1-0.2-0.2-0.2-0.3v-7.6c0-0.1,0.1-0.2,0.2-0.3l3.1-2
	l0.1-3.6l10-5.1c0.1,0,0.1-0.1,0.2-0.1c0.1,0,0.1,0,0.2,0.1l16.7,8.8c0.1,0.1,0.2,0.2,0.2,0.3l0.1,7.6c0,0.1-0.1,0.3-0.2,0.3
	l-10.7,6.3l-6.2-0.1l-2.8,1.5C-269.7,433.4-269.7,433.4-269.8,433.4L-269.8,433.4z"/>
<g>
	<path class="st1" d="M-269.8,434c-0.2,0-0.3,0-0.5-0.1l-7.2-4.2l-3.1-1.8c-0.3-0.2-0.5-0.5-0.5-0.8v-7.6c0-0.3,0.2-0.6,0.5-0.8
		l3.1-1.8l0-3.5l10.2-5.3c0.1-0.1,0.3-0.1,0.5-0.1c0.2,0,0.3,0.1,0.5,0.1l16.9,9c0.3,0.2,0.5,0.5,0.5,0.8l0,7.4
		c0,0.3-0.2,0.6-0.5,0.8l-11.1,6.5l-6.1-0.1l-2.6,1.5C-269.5,433.9-269.6,434-269.8,434z M-276.9,428.7l7.1,4.1l2.8-1.5l6.3,0.1
		l10.5-6.3l0-7.1l-16.7-8.9l-9.8,4.9l0,3.8l-3.2,1.9v7.3L-276.9,428.7z"/>
</g>
<path class="st2" d="M-279.6,419.5l10,5.9l2.7-1.8l6.3,0.2l10.4-5.8l-16.6-8.9l-9.7,4.9l0,3.7L-279.6,419.5z"/>
<path class="st1" d="M-269.6,426.2c-0.1,0-0.1,0-0.2-0.1l-10.1-6.1c-0.2-0.1-0.2-0.3-0.1-0.5c0.1-0.2,0.3-0.2,0.5-0.1l9.9,6l2.7-1.8
	l6.3,0.2l10.8-6.1c0.2-0.1,0.4,0,0.5,0.1s0,0.4-0.1,0.5l-10.9,6.1l-6.3-0.2l-2.7,1.8C-269.5,426.2-269.6,426.2-269.6,426.2z"/>
<g id="XMLID_747_">
	<path class="st1" d="M-268.5,418.7l-0.3,2.3c0,0.2-0.3,0.3-0.7,0.3c-0.4,0-0.7-0.2-0.7-0.4l0.1-1.5l-3.8,1.4
		c-0.3,0.1-0.7,0.1-1-0.1c-0.2-0.1-0.3-0.4,0-0.5l3.8-1.4l-3.1-0.3c-0.2,0-0.3-0.1-0.4-0.1c-0.1-0.1-0.2-0.2-0.1-0.2
		c0-0.2,0.3-0.3,0.7-0.3l4.7,0.4C-268.8,418.3-268.5,418.5-268.5,418.7z M-261.4,420.7c0.2,0.1,0.1,0.2-0.1,0.3l-0.1,0.1
		c-0.2,0.1-0.5,0.1-0.7,0l-10.6-6.2c-0.2-0.1-0.1-0.2,0.1-0.3l0.1-0.1c0.2-0.1,0.5-0.1,0.7,0L-261.4,420.7z M-266.8,415.5l0.5-2.8
		l-2.3,0.9c-0.1,0.1-0.4,0.1-0.5,0.1c-0.1,0-0.2,0-0.3-0.1c-0.2-0.1-0.2-0.3,0.1-0.5l3.5-1.4c0.3-0.1,0.7-0.1,0.9,0.1l2.9,1.8
		c0.2,0.1,0.2,0.3-0.1,0.5c-0.3,0.1-0.7,0.1-0.9-0.1l-2.2-1.3l-0.2,3c0,0.2-0.3,0.3-0.7,0.3S-266.8,415.7-266.8,415.5z
		 M-254.3,418.4l-3.6,1.3c-0.3,0.1-0.7,0.1-0.9-0.1c-0.1-0.1-0.2-0.2-0.1-0.2c0-0.1,0.1-0.2,0.3-0.2l2.4-0.8l-6.2-0.4
		c-0.4,0-0.6-0.2-0.6-0.3c0-0.2,0.3-0.3,0.7-0.3l6.2,0.4l-2.1-1.1c-0.2-0.1-0.2-0.3,0.1-0.5c0.3-0.1,0.7-0.1,0.9,0.1l3.1,1.7
		C-253.9,418.1-254,418.3-254.3,418.4z"/>
</g>
<path class="st1" d="M-270.1,425.7h0.6l0.1,7.3h-0.7V425.7z"/>
<path class="st1" d="M-266.9,424h0.6l0.1,7.3h-0.7V424z"/>
<path class="st1" d="M-260.8,424.2h0.6l0.1,7.3h-0.7V424.2z"/>
</svg>
