<?xml version="1.0" encoding="utf-8"?>
<!-- Generator: Adobe Illustrator 19.0.0, SVG Export Plug-In . SVG Version: 6.00 Build 0)  -->
<svg version="1.1" id="图层_1" xmlns="http://www.w3.org/2000/svg" xmlns:xlink="http://www.w3.org/1999/xlink" x="0px" y="0px"
	 viewBox="0 0 32 32" style="enable-background:new 0 0 32 32;" xml:space="preserve" width="50" height="50">
<style type="text/css">
	.st0{fill:#87CAB1;}
	.st1{fill:#40AD88;}
	.st2{fill:#FFFFFF;}
	.st3{fill:#B4D1EE;}
</style>
<path id="XMLID_265_" class="st0" d="M8.7,31.6c0,0-0.1,0-0.1,0l-8-4.3c-0.1,0-0.1-0.1-0.1-0.2V9.5c0-0.1,0.1-0.2,0.1-0.2l15.1-8.9
	c0,0,0.1,0,0.1,0c0,0,0.1,0,0.1,0L24,4.9c0.1,0,0.1,0.1,0.1,0.2v17.8c0,0.1-0.1,0.2-0.1,0.2L8.8,31.6C8.7,31.6,8.7,31.6,8.7,31.6z"
	/>
<g id="XMLID_298_">
	<path id="XMLID_299_" class="st1" d="M8.7,32c-0.1,0-0.2,0-0.3-0.1l-8-4.3C0.1,27.5,0,27.3,0,27.1V9.5C0,9.3,0.1,9.1,0.3,9
		l15.3-8.9C15.7,0,15.8,0,16,0s0.2,0,0.3,0.1l8.1,4.4c0.2,0.1,0.3,0.3,0.3,0.6v17.8c0,0.2-0.1,0.4-0.3,0.6L9,31.9
		C8.9,32,8.8,32,8.7,32z M8.7,31.1l15.2-8.4V5.2L16,0.9l-4.5,2.6L0.9,9.6V27L8.7,31.1z"/>
</g>
<path id="XMLID_262_" class="st2" d="M16,0.8L1.1,9.5l7.8,4.2l15-8.6L16,0.8z"/>
<path id="XMLID_261_" class="st3" d="M8.7,30.3V13.7"/>
<path id="XMLID_260_" class="st1" d="M8.7,31.5c-0.1,0-0.2-0.1-0.2-0.2V13.8c0-0.1,0.1-0.2,0.2-0.2c0.1,0,0.2,0.1,0.2,0.2v17.4
	C8.9,31.4,8.8,31.5,8.7,31.5L8.7,31.5z"/>
<path id="XMLID_259_" class="st3" d="M18.1,8.4l-9.4,5.3"/>
<path id="XMLID_258_" class="st1" d="M8.7,14c-0.1,0-0.2,0-0.2-0.1c-0.1-0.1,0-0.2,0.1-0.3L23.7,5c0.1-0.1,0.3,0,0.3,0.1
	c0.1,0.1,0,0.2-0.1,0.3L8.8,13.9C8.7,13.9,8.7,14,8.7,14z"/>
<path id="XMLID_257_" class="st3" d="M1.7,10l7,3.7"/>
<path id="XMLID_256_" class="st1" d="M8.7,14c0,0-0.1,0-0.1,0l-7.7-4C0.8,9.9,0.7,9.7,0.8,9.6C0.9,9.5,1,9.4,1.1,9.5l7.7,4
	c0.1,0.1,0.2,0.2,0.1,0.3C8.8,13.9,8.8,14,8.7,14z"/>
<path id="XMLID_255_" class="st3" d="M1.6,24.7l5.9,3.2"/>
<path id="XMLID_254_" class="st1" d="M7.5,28.2c0,0-0.1,0-0.1,0l-5.9-3.2c-0.1-0.1-0.2-0.2-0.1-0.3c0.1-0.1,0.2-0.2,0.3-0.1l5.9,3.2
	c0.1,0.1,0.2,0.2,0.1,0.3C7.6,28.1,7.6,28.2,7.5,28.2L7.5,28.2z"/>
<path id="XMLID_253_" class="st3" d="M1.6,23.1l5.9,3.2"/>
<path id="XMLID_252_" class="st1" d="M7.5,26.5c0,0-0.1,0-0.1,0l-5.9-3.2c-0.1-0.1-0.2-0.2-0.1-0.3c0.1-0.1,0.2-0.2,0.3-0.1l5.9,3.2
	c0.1,0.1,0.2,0.2,0.1,0.3C7.6,26.5,7.6,26.5,7.5,26.5L7.5,26.5z"/>
<path id="XMLID_233_" class="st3" d="M1.6,21.5l5.9,3.2"/>
<path id="XMLID_232_" class="st1" d="M7.5,25c0,0-0.1,0-0.1,0l-5.9-3.2c-0.1-0.1-0.2-0.2-0.1-0.3c0.1-0.1,0.2-0.2,0.3-0.1l5.9,3.2
	c0.1,0.1,0.2,0.2,0.1,0.3C7.6,24.9,7.6,25,7.5,25z"/>
<path id="XMLID_231_" class="st3" d="M0.4,18.2l8.3,4.4"/>
<path id="XMLID_230_" class="st1" d="M0.3,18.4L0.5,18l8.3,4.4l-0.2,0.4L0.3,18.4z"/>
<path id="XMLID_229_" class="st3" d="M6.1,14.7l1.3,0.7"/>
<g id="XMLID_280_">
	<path id="XMLID_228_" class="st1" d="M7.2,15.7c-0.1,0-0.1,0-0.2,0l-1.3-0.7c-0.1-0.1-0.2-0.1-0.2-0.2c0-0.1,0-0.2,0-0.3
		c0.1-0.1,0.2-0.2,0.4-0.2c0.1,0,0.1,0,0.2,0L7.4,15c0.1,0.1,0.2,0.1,0.2,0.2c0,0.1,0,0.2,0,0.3C7.5,15.7,7.3,15.7,7.2,15.7z"/>
</g>
<path id="XMLID_227_" class="st2" d="M27.4,14.9L27.4,14.9c-0.1-0.1-0.2-0.1-0.3-0.1c0,0,0,0,0,0c0,0,0,0-0.1,0c0,0-0.1,0-0.1,0
	c0,0-0.1,0-0.1,0c0,0-0.1,0-0.1,0c0,0,0,0,0,0c-0.1,0-0.2,0-0.3,0h-0.1c-0.1,0-0.2,0-0.2,0c0,0,0,0-0.1,0l-0.1,0c0,0-0.1,0-0.1,0
	c0,0-0.1,0-0.1,0c-0.1,0-0.1,0-0.2,0c0,0-0.1,0-0.1,0s-0.1,0-0.1,0c-0.1,0-0.2,0.1-0.4,0.1c0,0-0.1,0-0.1,0c0,0,0,0-0.1,0
	c-0.2,0.1-0.4,0.2-0.7,0.3c-0.2,0.1-0.3,0.2-0.5,0.3L23,15.8c-0.1,0.1-0.2,0.2-0.3,0.2c-0.1,0-0.1,0.1-0.2,0.1
	c-0.1,0.1-0.2,0.2-0.3,0.3c0,0-0.1,0.1-0.2,0.2c0,0-0.1,0.1-0.1,0.1c0,0-0.1,0.1-0.1,0.1c-0.1,0.1-0.2,0.2-0.3,0.4
	c0,0-0.1,0.1-0.1,0.1c0,0,0,0.1-0.1,0.1c-0.1,0.1-0.1,0.2-0.2,0.2c0,0-0.1,0.1-0.1,0.1c0,0-0.1,0.1-0.1,0.1c0,0.1-0.1,0.1-0.1,0.2
	c0,0-0.1,0.1-0.1,0.1c0,0.1-0.1,0.1-0.1,0.2c0,0-0.1,0.1-0.1,0.1c0,0,0,0,0,0.1c-0.1,0.1-0.2,0.3-0.3,0.4c0,0,0,0,0,0
	c0,0,0,0.1,0,0.1c-0.1,0.1-0.1,0.2-0.2,0.3c0,0,0,0.1-0.1,0.1c0,0,0,0.1-0.1,0.1c0,0,0,0.1-0.1,0.1c0,0.1-0.1,0.2-0.2,0.4
	c0,0,0,0,0,0.1v0c-0.1,0.1-0.1,0.3-0.2,0.5l0,0.1c0,0,0,0.1-0.1,0.2c0,0.1,0,0.1-0.1,0.2c0,0.1,0,0.1,0,0.2c0,0.1,0,0.1-0.1,0.2
	c0,0,0,0.1,0,0.1c0,0.1,0,0.1,0,0.2c0,0.1,0,0.2-0.1,0.3c0,0,0,0.1,0,0.1c0,0.1,0,0.1,0,0.2c0,0.1,0,0.3-0.1,0.4c0,0,0,0.1,0,0.1
	c0,0,0,0.1,0,0.1c0,0.3-0.1,0.6,0,0.9c0,1.7,0.6,2.8,1.5,3.4l2.7,1.6c-0.9-0.5-1.5-1.7-1.5-3.4c0-0.3,0-0.6,0-0.9c0-0.1,0-0.1,0-0.2
	c0-0.1,0-0.3,0.1-0.4c0-0.1,0-0.2,0-0.3c0-0.1,0-0.2,0.1-0.3c0-0.1,0.1-0.2,0.1-0.4c0-0.1,0-0.1,0.1-0.2c0-0.1,0.1-0.3,0.1-0.4
	c0,0,0-0.1,0.1-0.2c0.1-0.2,0.1-0.4,0.2-0.6c0,0,0,0,0-0.1c0.1-0.2,0.1-0.3,0.2-0.5c0,0,0-0.1,0.1-0.1c0.1-0.1,0.2-0.3,0.2-0.5
	c0,0,0-0.1,0-0.1c0.1-0.2,0.2-0.4,0.3-0.5c0,0,0.1-0.1,0.1-0.1c0.1-0.1,0.2-0.2,0.3-0.4c0-0.1,0.1-0.1,0.1-0.2
	c0.1-0.1,0.1-0.2,0.2-0.3l0.2-0.2c0.1-0.1,0.1-0.1,0.2-0.2c0.1-0.1,0.2-0.2,0.3-0.4c0.1-0.1,0.1-0.1,0.2-0.2c0,0,0.1-0.1,0.2-0.2
	c0.1-0.1,0.2-0.2,0.3-0.3c0,0,0.1-0.1,0.2-0.1c0.1-0.1,0.2-0.2,0.3-0.2l0.1-0.1c0.2-0.1,0.3-0.2,0.5-0.3c0.2-0.1,0.4-0.2,0.7-0.3
	c0.1,0,0.1,0,0.2-0.1c0.1,0,0.2-0.1,0.4-0.1c0.1,0,0.1,0,0.2-0.1c0.1,0,0.1,0,0.2,0c0.1,0,0.2,0,0.3,0c0,0,0.1,0,0.1,0
	c0.1,0,0.2,0,0.3,0h0.1c0.1,0,0.3,0,0.4,0c0,0,0.1,0,0.1,0c0.1,0,0.2,0,0.3,0.1c0,0,0,0,0.1,0c0.1,0,0.2,0.1,0.3,0.2L27.4,14.9
	L27.4,14.9z"/>
<path id="XMLID_276_" class="st1" d="M22.6,29.6C22.5,29.6,22.5,29.6,22.6,29.6L19.8,28c-1.1-0.6-1.7-1.9-1.7-3.6c0-0.3,0-0.6,0.1-1
	c0,0,0-0.1,0-0.1l0-0.1c0-0.2,0-0.3,0.1-0.5v-0.1c0,0,0-0.1,0-0.1l0-0.1c0-0.1,0-0.2,0.1-0.2l0.4-1.3c0.1-0.2,0.1-0.3,0.2-0.5l0-0.1
	c0.1-0.1,0.1-0.3,0.2-0.4l0.2-0.5c0-0.1,0.1-0.2,0.2-0.3l0.3,0.1L19.7,19l0-0.1c0.1-0.2,0.2-0.3,0.3-0.5l0.2-0.3
	c0-0.1,0.1-0.1,0.1-0.2l0.5-0.6c0.1-0.1,0.1-0.2,0.2-0.2l0.2-0.2c0.1-0.2,0.3-0.3,0.4-0.4l0.4-0.4c0.1-0.1,0.2-0.2,0.3-0.3l0.2-0.1
	c0.1-0.1,0.2-0.2,0.3-0.3l0.2-0.1c0.2-0.1,0.3-0.2,0.5-0.3c0.2-0.1,0.4-0.2,0.7-0.3c0,0,0,0,0.1,0c0,0,0.1,0,0.1,0
	c0.2-0.1,0.3-0.1,0.4-0.1c0.1,0,0.1,0,0.1,0l0.1,0c0.1,0,0.2,0,0.3,0c0.1,0,0.1,0,0.1,0l0.1,0c0.1,0,0.2,0,0.2,0h0.1
	c0.1,0,0.2,0,0.3,0l0.1,0.3l0-0.3c0.1,0,0.3,0,0.4,0l0.1,0v0.3l0.1-0.3c0,0,0.1,0,0.1,0c0,0,0.1,0,0.1,0l0.1,0
	c0.1,0.1,0.3,0.1,0.3,0.2l0,0l2.7,1.6L30,16.8c-0.1,0-0.2-0.1-0.3-0.1v0l-0.1,0l0,0c-0.1,0-0.2,0-0.2-0.1v-0.1l0,0l0,0.1
	c-0.1,0-0.2,0-0.3,0l0-0.3v0.3c-0.1,0-0.2,0-0.3,0l-0.1,0c-0.1,0-0.2,0-0.3,0c-0.1,0-0.1,0-0.2,0l-0.2,0c-0.1,0-0.2,0.1-0.3,0.1
	c-0.1,0-0.1,0-0.2,0.1c-0.2,0.1-0.4,0.2-0.6,0.3c-0.2,0.1-0.3,0.2-0.5,0.3L26,17.6c-0.1,0.1-0.2,0.1-0.3,0.2l-0.1,0.1
	c-0.1,0.1-0.2,0.2-0.3,0.3l-0.3,0.3c-0.1,0.1-0.3,0.3-0.4,0.4c-0.1,0.1-0.1,0.1-0.2,0.2c-0.1,0.1-0.1,0.1-0.2,0.2
	c-0.1,0.1-0.1,0.2-0.2,0.3l-0.1,0.2c-0.1,0.1-0.2,0.2-0.2,0.4l-0.1,0.1c-0.1,0.2-0.2,0.3-0.3,0.5l-0.3-0.1L23,21
	c-0.1,0.1-0.2,0.3-0.2,0.5l-0.1,0.1c-0.1,0.2-0.1,0.3-0.2,0.5L22.1,22l0.3,0.1c-0.1,0.2-0.1,0.4-0.2,0.6l0,0.1
	c-0.1,0.2-0.1,0.3-0.1,0.5L22,23.5c0,0.1-0.1,0.2-0.1,0.4l-0.1,0.2c0,0.1,0,0.1,0,0.2l0,0.1c0,0.1,0,0.3-0.1,0.4l0,0.2
	c0,0.4-0.1,0.7-0.1,0.9c0,1.5,0.5,2.6,1.4,3.1l0,0L22.6,29.6L22.6,29.6z M19.1,21l0.3,0.1L19,22.6l-0.3,0l0.3,0.1l0,0.2
	c0,0.1,0,0.3-0.1,0.4v0.1h-0.3l0.3,0.1v0.1c0,0.3,0,0.6,0,0.9c0,1.5,0.5,2.6,1.4,3.1l1.1,0.6c-0.2-0.6-0.4-1.3-0.4-2.1
	c0-0.3,0-0.6,0.1-1l0-0.2c0-0.1,0-0.3,0.1-0.4l0-0.1c0-0.1,0-0.1,0-0.2l0.1-0.3c0-0.1,0.1-0.3,0.1-0.4l0.1-0.2
	c0-0.1,0.1-0.3,0.1-0.4l0.1-0.2c0.1-0.2,0.1-0.4,0.2-0.6l0-0.1c0.1-0.2,0.1-0.3,0.2-0.5l0.1-0.2c0.1-0.2,0.2-0.3,0.3-0.5l0-0.1
	c0.1-0.2,0.2-0.4,0.3-0.5l0.1-0.1c0.1-0.2,0.2-0.3,0.3-0.4l0.1-0.2c0.1-0.1,0.2-0.2,0.2-0.3c0.1-0.1,0.1-0.2,0.2-0.2
	c0-0.1,0.1-0.1,0.2-0.2c0.1-0.1,0.3-0.3,0.4-0.4c0.1-0.1,0.2-0.2,0.2-0.2l0.2-0.2c0.1-0.1,0.2-0.2,0.3-0.3l0.2-0.1
	c0.1-0.1,0.2-0.2,0.3-0.3l0.2-0.1c0.2-0.1,0.3-0.2,0.5-0.3c0.2-0.1,0.4-0.2,0.7-0.3c0.1,0,0.1,0,0.2-0.1c0.2-0.1,0.3-0.1,0.4-0.1
	c0.1,0,0.2,0,0.2-0.1c0.1,0,0.1,0,0.2,0c0.1,0,0.2,0,0.3,0l0,0l-1.1-0.6c-0.1,0-0.2-0.1-0.2-0.1L26.5,15c-0.1,0-0.2,0-0.3,0
	l-0.1-0.3V15c-0.1,0-0.1,0-0.2,0l-0.1-0.3l0,0.3l-0.4,0c-0.1,0-0.1,0-0.2,0l-0.2,0c-0.1,0-0.2,0.1-0.3,0.1l-0.2,0.1
	c-0.2,0.1-0.4,0.2-0.6,0.3c-0.1,0.1-0.3,0.2-0.5,0.3l-0.1,0.1c-0.1,0.1-0.2,0.1-0.3,0.2l-0.1,0.1c-0.1,0.1-0.2,0.2-0.3,0.3l-0.4,0.4
	c-0.1,0.1-0.2,0.2-0.3,0.4l-0.2,0.2c-0.1,0.1-0.1,0.1-0.2,0.2l-0.7,1l-0.3-0.1l0.3,0.2c-0.1,0.1-0.2,0.3-0.3,0.4L20,19.3l0.3,0.2
	l0,0.1c0,0.1-0.1,0.2-0.1,0.3l-0.2,0.4c0,0.1-0.1,0.2-0.2,0.4l-0.3-0.1l0.3,0.1c-0.1,0.2-0.1,0.3-0.2,0.5L19.1,21L19.1,21z"/>
<path id="XMLID_224_" class="st0" d="M31.7,19.9c0,3.3-2.3,7.4-5.2,9c-2.9,1.7-5.2,0.3-5.2-3c0-3.3,2.3-7.4,5.2-9
	C29.3,15.2,31.7,16.5,31.7,19.9L31.7,19.9z"/>
<path id="XMLID_272_" class="st1" d="M24.1,30c-0.6,0-1.1-0.1-1.6-0.4c-1.1-0.6-1.7-1.9-1.7-3.6c0-3.4,2.4-7.6,5.4-9.3
	c1.5-0.9,3-1,4.1-0.4c1.1,0.6,1.7,1.9,1.7,3.6c0,3.4-2.4,7.6-5.4,9.3C25.7,29.7,24.9,30,24.1,30L24.1,30z M28.8,16.5
	c-0.7,0-1.4,0.2-2.2,0.7c-2.8,1.6-5.1,5.5-5.1,8.7c0,1.5,0.5,2.6,1.4,3.1c0.9,0.5,2.1,0.4,3.4-0.4c2.8-1.6,5.1-5.5,5.1-8.7
	c0-1.5-0.5-2.6-1.4-3.1C29.6,16.6,29.2,16.5,28.8,16.5L28.8,16.5z"/>
<path id="XMLID_267_" class="st2" d="M29.7,22.2c0,0.1,0,0.3-0.1,0.5l-1.8-1.2l1.7-3.2c0.1,0.1,0.1,0.2,0.1,0.4V22.2L29.7,22.2z
	 M26.8,22.7l2.6-4.6c-0.1,0-0.2,0-0.3,0.1l-4.8,3.1c-0.2,0.1-0.3,0.2-0.5,0.4L26.8,22.7z M27.5,22l-0.6,1.2c0,0.1-0.1,0.1-0.1,0.2
	c0,0-0.1,0-0.1,0L26,23.2l-2.4,4.9c0.1,0,0.3-0.1,0.5-0.3l5-4.2c0.1-0.1,0.3-0.3,0.4-0.4L27.5,22z M23.4,22.4
	c-0.1,0.2-0.2,0.5-0.2,0.7l-0.1,4.5c0,0.2,0,0.3,0.1,0.4l2.4-4.9L23.4,22.4z"/>
</svg>
