<?xml version="1.0" encoding="utf-8"?>
<!-- Generator: Adobe Illustrator 19.0.0, SVG Export Plug-In . SVG Version: 6.00 Build 0)  -->
<svg version="1.1" id="图层_1" xmlns="http://www.w3.org/2000/svg" xmlns:xlink="http://www.w3.org/1999/xlink" x="0px" y="0px"
	 viewBox="0 0 32 32" style="enable-background:new 0 0 32 32;" xml:space="preserve" width="50" height="50">
<style type="text/css">
	.st0{fill:#87CAB1;}
	.st1{fill:#40AD88;}
	.st2{fill:#FFFFFF;}
</style>
<g id="XMLID_43_">
	<path id="XMLID_21_" class="st0" d="M16,31.5c-0.1,0-0.1,0-0.1,0L1.3,23c-0.1-0.1-0.1-0.1-0.1-0.2V17c0-0.1,0.1-0.2,0.1-0.2
		l14.6-8.6c0,0,0.1,0,0.1,0c0,0,0.1,0,0.1,0l14.6,8.6c0.1,0.1,0.1,0.1,0.1,0.2v5.7c0,0.1-0.1,0.2-0.1,0.2l-14.6,8.5
		C16.1,31.5,16,31.5,16,31.5L16,31.5z"/>
	<g id="XMLID_47_">
		<path id="XMLID_48_" class="st1" d="M16,32c-0.1,0-0.3,0-0.4-0.1L1,23.4c-0.2-0.1-0.4-0.4-0.4-0.7v-5.7c0-0.3,0.1-0.5,0.4-0.7
			l14.6-8.6c0.1-0.1,0.2-0.1,0.4-0.1c0.1,0,0.3,0,0.4,0.1L31,16.4c0.2,0.1,0.4,0.4,0.4,0.7v5.7c0,0.3-0.1,0.5-0.4,0.7l-2.4,1.4
			l-12.2,7.1C16.2,32,16.1,32,16,32z M16,31l14.4-8.3v-5.5L16,8.7L1.6,17.2v5.5L16,31z"/>
	</g>
	<path id="XMLID_18_" class="st2" d="M1.7,17.2L16,25.6l14.4-8.4L16,8.7L1.7,17.2z"/>
	<path id="XMLID_17_" class="st1" d="M16,25.8c-0.1,0-0.1,0-0.1,0L1.5,17.5c-0.1-0.1-0.2-0.2-0.1-0.4C1.5,17,1.7,16.9,1.8,17
		L16,25.2L30.2,17c0.1-0.1,0.3,0,0.4,0.1c0.1,0.1,0,0.3-0.1,0.4l-14.3,8.3C16.1,25.8,16,25.8,16,25.8z"/>
	<path id="XMLID_16_" class="st1" d="M15.7,25.6l0.5,0.1l0.1,5.8l-0.6-0.1C15.7,31.4,15.7,25.6,15.7,25.6z"/>
</g>
<g id="XMLID_34_">
	<path id="XMLID_15_" class="st0" d="M16,23.8c-0.1,0-0.1,0-0.1,0L1.3,15.3c-0.1-0.1-0.1-0.1-0.1-0.2V9.3c0-0.1,0.1-0.2,0.1-0.2
		l14.6-8.6c0,0,0.1,0,0.1,0s0.1,0,0.1,0l14.6,8.6c0.1,0.1,0.1,0.1,0.1,0.2v5.7c0,0.1-0.1,0.2-0.1,0.2l-14.6,8.5
		C16.1,23.8,16,23.8,16,23.8L16,23.8z"/>
	<g id="XMLID_38_">
		<path id="XMLID_39_" class="st1" d="M16,24.3c-0.1,0-0.3,0-0.4-0.1L1,15.7c-0.2-0.1-0.4-0.4-0.4-0.7V9.3c0-0.3,0.1-0.5,0.4-0.7
			l14.6-8.6C15.7,0,15.9,0,16,0s0.3,0,0.4,0.1L31,8.7c0.2,0.1,0.4,0.4,0.4,0.7v5.7c0,0.3-0.1,0.5-0.4,0.7l-2.4,1.4l-12.2,7.1
			C16.2,24.3,16.1,24.3,16,24.3z M16,23.3l14.4-8.3V9.5L16,1L1.6,9.5v5.5L16,23.3z"/>
	</g>
	<path id="XMLID_12_" class="st2" d="M1.7,9.5L16,17.9l14.4-8.4L16,1L1.7,9.5z"/>
	<path id="XMLID_11_" class="st1" d="M16,18.1c-0.1,0-0.1,0-0.1,0L1.5,9.8C1.4,9.7,1.4,9.5,1.4,9.4s0.2-0.2,0.4-0.1L16,17.5
		l14.2-8.2c0.1-0.1,0.3,0,0.4,0.1s0,0.3-0.1,0.4l-14.3,8.3C16.1,18.1,16,18.1,16,18.1z"/>
	<path id="XMLID_10_" class="st1" d="M15.7,17.9l0.5,0.1l0.1,5.8l-0.6-0.1C15.7,23.7,15.7,17.9,15.7,17.9z"/>
</g>
<g id="XMLID_23_">
	<path id="XMLID_29_" class="st1" d="M12,9c0.2-1.7,1.6-3.1,3.3-3.3v-1c-2.2,0.2-4,2-4.3,4.3L12,9z M16.3,5.7
		C18,5.9,19.4,7.3,19.6,9h1c-0.2-2.2-2-4-4.3-4.3V5.7z M15.3,13.2c-1.7-0.2-3.1-1.6-3.3-3.3h-1c0.2,2.2,2,4,4.3,4.3L15.3,13.2z
		 M19.6,9.9c-0.2,1.7-1.6,3.1-3.3,3.3v1c2.2-0.2,4-2,4.3-4.3L19.6,9.9z"/>
	<path id="XMLID_5_" class="st1" d="M11,4.7L11,4.7c0.3-0.3,0.5-0.3,0.7,0l1,1c0.2,0.2,0.2,0.4,0,0.6l0,0c-0.2,0.2-0.4,0.2-0.6,0
		l-1-1C10.8,5.1,10.8,4.9,11,4.7z"/>
	<path id="XMLID_4_" class="st1" d="M11.1,14.2L11.1,14.2c-0.3-0.3-0.3-0.5,0-0.7l1-1c0.2-0.2,0.4-0.2,0.6,0l0,0
		c0.2,0.2,0.2,0.4,0,0.6l-1,1C11.5,14.4,11.3,14.4,11.1,14.2z"/>
	<path id="XMLID_3_" class="st1" d="M20.6,14.2L20.6,14.2c-0.3,0.3-0.5,0.3-0.7,0l-1-1c-0.2-0.2-0.2-0.4,0-0.6l0,0
		c0.2-0.2,0.4-0.2,0.6,0l1,1C20.8,13.8,20.8,14,20.6,14.2z"/>
	<path id="XMLID_2_" class="st1" d="M20.5,4.7L20.5,4.7c0.3,0.3,0.3,0.5,0,0.7l-1,1c-0.2,0.2-0.4,0.2-0.6,0l0,0
		c-0.2-0.2-0.2-0.4,0-0.6l1-1C20.1,4.5,20.3,4.5,20.5,4.7z"/>
	<path id="XMLID_1_" class="st1" d="M13.9,9.5c0,1,0.9,1.9,1.9,1.9s1.9-0.9,1.9-1.9c0-1-0.9-1.9-1.9-1.9S13.9,8.4,13.9,9.5
		C13.9,9.5,13.9,9.5,13.9,9.5z"/>
</g>
</svg>
