<?xml version="1.0" encoding="utf-8"?>
<!-- Generator: Adobe Illustrator 19.0.0, SVG Export Plug-In . SVG Version: 6.00 Build 0)  -->
<svg version="1.1" id="图层_1" xmlns="http://www.w3.org/2000/svg" xmlns:xlink="http://www.w3.org/1999/xlink" x="0px" y="0px"
	 viewBox="-281 404.9 32 32" style="enable-background:new -281 404.9 32 32;" xml:space="preserve" width="50" height="50">
<style type="text/css">
	.st0{fill:#40AD88;}
	.st1{fill:#FFFFFF;}
	.st2{fill:#87CAB1;}
</style>
<path id="XMLID_225_" class="st0" d="M-249.1,425.7c-0.8,4-7.6,7.2-15.9,7.2s-15.1-3.2-15.9-7.2h-0.1v-9.4c0-4.4,7.2-8,16-8
	s16,3.6,16,8L-249.1,425.7L-249.1,425.7L-249.1,425.7L-249.1,425.7z"/>
<path id="XMLID_224_" class="st1" d="M-265,409.7c-8.1,0-14.7,3-14.7,6.7c0,3.7,6.6,6.7,14.7,6.7s14.7-3,14.7-6.7
	C-250.3,412.7-256.9,409.7-265,409.7z"/>
<path id="XMLID_223_" class="st2" d="M-250.2,419.2c-2.5,2.7-8.1,4.6-14.7,4.6s-12.3-2-14.7-4.6l-0.1,5.8c0,3.3,6.6,6,14.7,6
	s14.7-2.7,14.7-6L-250.2,419.2z"/>
<g id="XMLID_219_">
	<path id="XMLID_220_" class="st0" d="M-274.7,412.2h2.9c0.6,0,1.1,0.2,1.3,0.5c0.3,0.3,0.3,0.8,0.2,1.4c-0.2,0.7-0.5,1.3-0.9,1.7
		c-0.5,0.4-1.2,0.6-2,0.6h-1.1l-1.1,3.2h-2.3L-274.7,412.2z M-273.9,414.9h0.4c0.4,0,0.7-0.1,0.9-0.2c0.2-0.1,0.4-0.3,0.4-0.6
		c0.1-0.2,0-0.4,0-0.5c0-0.2-0.4-0.1-0.7-0.1h-0.5L-273.9,414.9z"/>
	<path id="XMLID_226_" class="st0" d="M-268.9,412.2h1.8l-0.9,7.4h-2.3L-268.9,412.2z"/>
	<path id="XMLID_228_" class="st0" d="M-265.9,412.2h1.6l2.5,3.6l-0.3-3.6h1.7l1.1,7.4h-2.2l-2.8-4.5l0,4.5h-2.2L-265.9,412.2
		L-265.9,412.2z"/>
	<path id="XMLID_230_" class="st0" d="M-255.1,416.5l-0.5-1.6h3l1.4,3.3c-0.4,0.5-0.9,0.9-1.3,1.2c-0.4,0.3-1,0.4-1.7,0.4
		c-0.8,0-1.6-0.1-2.3-0.5c-0.6-0.4-1.1-0.9-1.6-1.6c-0.4-0.7-0.6-1.4-0.8-2.1c-0.1-0.8-0.1-1.4,0.1-1.9c0.1-0.5,0.5-0.9,0.9-1.1
		c0.4-0.2,0.8-0.2,1.5-0.2s1.2,0.1,1.5,0.2c0.4,0.1,0.7,0.3,1,0.6c0.4,0.3,0.6,0.6,0.9,1l-1.7,0.4c-0.2-0.3-0.3-0.5-0.5-0.6
		c-0.2-0.1-0.5-0.2-0.7-0.2c-0.4,0-0.7,0.2-0.8,0.5c-0.2,0.3-0.1,0.9,0.1,1.6c0.2,0.9,0.5,1.4,0.9,1.8c0.4,0.4,0.9,0.6,1.4,0.6
		c0.2,0,0.5,0,0.7-0.1c0.2-0.1,0.4-0.2,0.6-0.5l-0.3-0.8h-1.6L-255.1,416.5z"/>
</g>
</svg>
