<?xml version="1.0" encoding="utf-8"?>
<!-- Generator: Adobe Illustrator 19.0.0, SVG Export Plug-In . SVG Version: 6.00 Build 0)  -->
<svg version="1.1" id="图层_1" xmlns="http://www.w3.org/2000/svg" xmlns:xlink="http://www.w3.org/1999/xlink" x="0px" y="0px"
	 viewBox="24 -22 64 64" style="enable-background:new 24 -22 64 64;" xml:space="preserve" width="50" height="50">
<style type="text/css">
	.st0{fill:#0073B4;}
	.st1{fill:#006B84;}
	.st2{fill:#9ECFF0;}
	.st3{fill:#FFFFFF;}
	.st4{fill:#A74B56;}
	.st5{fill:#9E2D2D;}
	.st6{fill:#DD939B;}
	.st7{fill:#D55966;}
	.st8{fill:#201816;}
	.st9{fill:#793E46;}
	.st10{fill:#EFB2B9;}
</style>
<g>
	<path class="st0" d="M87.6,25.7v0.5l-0.3,1.1c-3.8,7.3-22.5,9.1-29.6,9.1h-3.2c-6.6,0.1-27.1-2-29.8-9.6l-0.2-0.5v-1.1l0.2-0.5
		c2.4-7.4,21.8-9.6,28.1-9.6l1.6-0.1H56c7.2-0.2,27.4,1.6,31.2,9.2l0.3,1.1L87.6,25.7"/>
	<path class="st1" d="M56.1,36.6H57c5.5,0.2,29.9-1.8,30.9-10.8v-0.1h-0.4V26c-0.4,3.1-4.1,5-6.6,6.2l-0.3,0.1l-0.2,0.1l-0.3,0.1
		c-3,1.2-6.5,2.1-9.7,2.6l-0.7,0.1L69,35.4l-0.7,0.1c-2.4,0.4-5,0.6-7.5,0.8H60l-0.8,0.1h-0.8l-0.8,0.1H56l-0.1,0.1v0.2l0.1,0.1h0.1
		"/>
	<path class="st1" d="M24.4,25.7L24.4,25.7c1,9.1,25.4,11.2,31,10.9h0.8v-0.4h-1.6c-7.7-0.2-17-1.2-24-4.5L30,31.5
		c-2.2-1.1-5.2-3.1-5.3-5.8v-0.1l0,0v-0.1h-0.1v-0.1h-0.1v0.1h-0.1V25.7L24.4,25.7L24.4,25.7"/>
	<path class="st2" d="M56.1,14.7l-0.8,0.1c-5.5-0.3-30.1,1.9-31,10.8v0.2h0.4v-0.3l0.1-0.2V25l0.1-0.2v-0.1l0.1-0.1v-0.1v-0.1v-0.2
		l0.1-0.1l0.1-0.1l0.1-0.2c0.1-0.3,0.5-0.9,0.8-1.1l0.1-0.2l0.1-0.1l0.2-0.1c0.8-0.9,2.3-1.9,3.4-2.5l0.7-0.3
		c7.5-3.3,15.9-4.3,24-4.5h1.6v0h0.1l0,0h0.1v-0.2h-0.1v-0.1H56.1L56.1,14.7"/>
	<path class="st2" d="M87.9,25.7v-0.2C87,16.6,62.5,14.4,57,14.7l-0.8-0.1V15h1.6c8.1,0.2,16.5,1.1,24,4.5l0.7,0.3
		c1.3,0.7,2.5,1.5,3.5,2.5l0.2,0.2l0.1,0.2c0.2,0.2,0.6,0.7,0.7,1l0.1,0.1L87,24l0.1,0.1l0.1,0.1l0.1,0.2v0.1l0.1,0.2l0.1,0.1v0.1
		l0.1,0.2v0.1l0.1,0.1v0.4"/>
	<polyline class="st0" points="24.5,3.6 24.5,25.9 87.6,25.9 87.7,3.6 24.5,3.6 	"/>
	<path class="st3" d="M87.6,2.9v0.5l-0.3,1.1c-3.7,7.3-22.6,9.1-29.6,9.2h-3.2c-6.6,0.1-27.2-2-29.8-9.7l-0.2-0.5V2.4l0.2-0.5
		c2.5-7.4,21.8-9.6,28.1-9.6h1.6L56-7.8c7.5-0.1,27.1,1.5,31.2,9.2l0.3,1.1L87.6,2.9"/>
	<path class="st1" d="M56.1,13.9H57c5.4,0.3,30-1.9,30.9-10.8V2.9h-0.4v0.4l-0.1,0.2c0,0.2-0.2,0.8-0.3,1L87,4.6v0.1
		c-0.2,0.4-0.5,0.8-0.8,1.1L86.1,6L86,6.2l-0.1,0.1c-1.1,1-2.4,1.9-3.7,2.5l-0.7,0.3c-7,3.2-16.2,4.2-23.8,4.4h-1.6L56.1,13.9"/>
	<path class="st1" d="M24.4,2.9v0.2c0.9,8.9,25.5,11.1,31,10.8h0.8v-0.4h-1.6c-7.6-0.2-16.8-1.2-23.8-4.4L30,8.8
		c-1.2-0.6-2.6-1.4-3.5-2.4l-0.1-0.1l-0.2-0.1L26.1,6l-0.3-0.3l-0.1-0.2l-0.1-0.1l-0.1-0.1l-0.1-0.2L25.3,5l-0.1-0.1l-0.1-0.2
		L25,4.6l-0.1-0.1L25,4.4V4.3V4.1L24.9,4l-0.1-0.1V3.8l-0.1-0.2V3.3l-0.1-0.1V2.9H24.4"/>
	<path class="st2" d="M56.1-8h-1.6c-7.9,0.2-16.9,1.2-24.2,4.5l-0.4,0.2c-2.3,1.2-5.3,3.1-5.5,5.9v0.3h0.4V2.6l0.1-0.1V2.3
		c0-0.4,0.2-0.6,0.3-1l0.1-0.1l0.1-0.1c0-0.4,0.3-0.8,0.6-1.1l0.1-0.1l0.1-0.2l0.2-0.1c1-1,2.2-1.7,3.4-2.4l0.7-0.3
		c7-3.3,16.4-4.4,24-4.5h1.6V-8"/>
	<path class="st2" d="M87.9,2.9V2.6c-0.2-2.8-3.2-4.7-5.5-5.9L82-3.5C74.7-6.8,65.7-7.8,57.8-8h-1.6v0.4h1.6c7.7,0.2,17,1.2,24,4.5
		l0.7,0.3c1.4,0.7,2.3,1.3,3.5,2.4l0.1,0.1l0.1,0.2l0.3,0.3l0.1,0.2l0.2,0.2l0.1,0.2L87,0.9L87.1,1l0.1,0.2l0.1,0.1l0.1,0.1l0.1,0.2
		l0.1,0.1v0.1L87.7,2l0.1,0.1v0.2l0.1,0.1v0.1L88,2.7v0.4h-0.1"/>
	<rect x="24.4" y="3.4" class="st1" width="0.4" height="22.6"/>
	<rect x="87.5" y="3.4" class="st2" width="0.4" height="0.2"/>
	<rect x="87.5" y="3.6" class="st1" width="0.4" height="22.3"/>
	<rect x="87.5" y="25.9" class="st2" width="0.4" height="0.2"/>
	<path class="st4" d="M87.6,1.6v0.6l-0.2,0.5l-0.2,0.5c-3.8,7.3-22.5,9.1-29.6,9.2h-3.2c-6.7,0.1-27-2-29.8-9.6l-0.2-0.5V1l0.2-0.5
		c2.5-7.4,21.8-9.6,28.1-9.6h1.6l1.6-0.1c7.5-0.1,27,1.5,31.2,9.2l0.3,1.1v0.5"/>
	<path class="st5" d="M56.1,12.6H57c5.5,0.2,29.9-1.8,30.9-10.8V1.6h-0.4V2l-0.1,0.1c0,0.4-0.1,0.7-0.3,1L87,3.3v0.1
		c-0.2,0.4-0.5,0.8-0.8,1.1l-0.3,0.3c-1,1-2.4,1.9-3.7,2.6l-0.7,0.3c-7.2,3.2-16,4.2-23.8,4.4h-0.8l-0.8,0.1L56.1,12.6"/>
	<path class="st5" d="M24.4,1.6v0.2c1,9,25.4,11.1,31,10.8h0.8v-0.4l-0.8-0.1h-0.8C46.7,12,37.9,11,30.7,7.8L30,7.5
		c-1.3-0.6-2.5-1.5-3.5-2.4l-0.1-0.2l-0.2-0.1l-0.1-0.1c-0.3-0.3-0.6-0.8-0.8-1.1l-0.1-0.1l-0.1-0.2L25,3.2V3V2.8l0,0l-0.1-0.1
		l-0.1-0.2V2.4l-0.1-0.2V2l-0.1-0.2V1.5h-0.2"/>
	<path class="st6" d="M56.1-9.4h-0.8c-5.5-0.3-30.1,1.8-31,10.8v0.1h0.4V1.2l0.1-0.1V0.8l0.1-0.1V0.5L25,0.4V0.3V0.2l0.1-0.1
		l0.1-0.2l0.1-0.1c0.1-0.3,0.5-0.9,0.8-1.1l0.1-0.1l0.1-0.2l0.2-0.1c1.1-1.1,2.2-1.8,3.7-2.5l0.7-0.3c7.4-3.3,15.8-4.2,23.8-4.4h1.6
		v-0.5"/>
	<path class="st6" d="M87.9,1.6V1.5C87-7.5,62.5-9.7,57-9.4h-0.8V-9H57c5.3-0.4,29.7,1.9,30.6,10.5v0.1H87.9"/>
	<polyline class="st4" points="24.5,-5.3 24.5,2 87.6,2 87.7,-5.3 24.5,-5.3 	"/>
	<path class="st7" d="M87.6-5.7v0.6l-0.2,0.5L87.3-4c-3.7,7.3-22.6,9.2-29.6,9.2h-3.2c-6.7,0.1-27-2-29.8-9.6l-0.2-0.5V-6l0.2-0.5
		c2.5-7.3,21.8-9.6,28.1-9.6l1.6-0.1H56c7.4-0.2,27.2,1.6,31.2,9.1L87.5-6L87.6-5.7"/>
	<path class="st6" d="M56.1,5.3H57c5.5,0.2,29.9-1.8,30.9-10.8v-0.2h-0.4v0.4l-0.1,0.1V-5l-0.1,0.2v0.1l-0.1,0.2l-0.1,0.1v0.1
		L87-4.1L86.9-4L87-4v0.2l-0.1,0.1c-0.2,0.4-0.5,0.8-0.8,1.1l-0.4,0.4c-1.1,1-2.4,1.8-3.8,2.5l-0.4,0.2l-0.2,0.1
		C73.7,4,64.3,4.8,56.1,5H56v0h-0.1v0.2L56.1,5.3L56.1,5.3L56.1,5.3L56.1,5.3"/>
	<path class="st6" d="M24.4-5.7v0.2c1,9,25.4,11.1,31,10.8h0.8V5l-0.8-0.1h-0.8c-7.8-0.1-16.8-1.2-24-4.5l-0.7-0.3L29.6,0
		C29-0.3,28.5-0.6,28-1l-0.7-0.4L27-1.7l-0.2-0.1V-2l-0.2-0.1l-0.1-0.1l-0.1-0.2l-0.2-0.1l-0.1-0.1L26-2.7l-0.1-0.1
		c-0.2-0.3-0.6-0.8-0.7-1.1L25.1-4L25-4.2v-0.2l-0.1-0.2l-0.1-0.2v-0.1V-5v-0.2l-0.1-0.2v-0.4l0,0l-0.1-0.1h-0.1l-0.1,0.1l0,0V-5.7"
		/>
	<path class="st6" d="M56.1-16.6h-0.8c-5.6-0.2-30,1.8-31,10.8v0.1h0.4V-6l0.1-0.1c0-1,0.8-2.3,1.6-2.9l0.2-0.2
		c1.3-1.2,2.5-1.8,4.1-2.6l0.4-0.2l0.3-0.1l0.2-0.1c2.9-1.3,6.3-2.1,9.5-2.7l0.7-0.1l0.7-0.1l0.7-0.1c2.4-0.4,4.9-0.7,7.4-0.8
		l0.8-0.1h0.8l0.8-0.1h0.8l0.8-0.1h1.7l0.1-0.1v-0.1l-0.1-0.1H56.1L56.1-16.6"/>
	<path class="st6" d="M87.9-5.7v-0.1c-1-9-25.3-11.1-30.9-10.8h-0.8v0.4H57c5.3-0.3,29.6,1.9,30.6,10.5v0.1"/>
	<rect x="24.4" y="-5.8" class="st5" width="0.4" height="8"/>
	<rect x="87.5" y="-5.8" class="st6" width="0.4" height="0.2"/>
	<rect x="87.5" y="-5.6" class="st5" width="0.4" height="7.6"/>
	<rect x="87.5" y="2.1" class="st6" width="0.4" height="0.2"/>
	<path class="st8" d="M41.9-9.8L41.9-9.8c-0.2,0-0.3,0.1-0.3,0.3v0.1h0.1v0.1h0.1"/>
	<polyline class="st8" points="48.7,-6.8 41.9,-9.8 41.7,-9.4 48.6,-6.4 	"/>
	<polyline class="st8" points="48.6,-6.4 48.7,-6.4 48.8,-6.4 48.8,-6.5 48.8,-6.5 48.8,-6.6 48.8,-6.7 48.8,-6.7 48.7,-6.7 
		48.7,-6.8 	"/>
	<polyline class="st9" points="56.5,-2.6 56.3,-2.6 56.1,-2.3 56.3,-2.2 	"/>
	<polyline class="st9" points="63.2,0.4 56.5,-2.6 56.3,-2.2 63.1,0.8 	"/>
	<polyline class="st9" points="63.1,0.8 63.2,0.9 63.4,0.5 63.2,0.4 	"/>
	<path class="st9" d="M25.9-3.1L25.9-3.1L25.9-3.1L25.8-3v0.1c0,0.2,0,0.3,0.2,0.3h0.1"/>
	<polyline class="st9" points="58.6,-16.4 25.9,-3.1 26.1,-2.7 58.8,-16 	"/>
	<polyline class="st9" points="58.8,-16 58.8,-16 58.9,-16 58.9,-16.1 58.9,-16.1 58.9,-16.2 58.9,-16.2 58.9,-16.3 58.8,-16.4 
		58.6,-16.4 	"/>
	<path class="st9" d="M31.6,1L31.6,1l-0.1,0.1v0.1c0,0.2,0,0.3,0.2,0.3h0.1"/>
	<polyline class="st9" points="71.2,-15 31.6,1 31.7,1.4 71.3,-14.7 	"/>
	<polyline class="st9" points="71.3,-14.7 71.4,-14.7 71.4,-14.8 71.5,-14.8 71.5,-14.9 71.4,-15 71.3,-15 71.2,-15 	"/>
	<path class="st9" d="M40.6,3.6L40.6,3.6l-0.1,0.1v0.1c0,0.2,0,0.3,0.2,0.3h0.1"/>
	<polyline class="st9" points="80.5,-12.5 40.6,3.6 40.8,4 80.6,-12.2 	"/>
	<polyline class="st9" points="80.6,-12.2 80.7,-12.2 80.7,-12.3 80.8,-12.4 80.7,-12.4 80.7,-12.5 80.7,-12.5 80.5,-12.5 	"/>
	<polyline class="st9" points="26.3,-8.8 26.2,-8.8 26.2,-8.8 26.2,-8.5 26.2,-8.5 26.2,-8.5 26.4,-8.5 	"/>
	<polyline class="st9" points="42,-15.2 26.3,-8.8 26.4,-8.5 42.1,-14.8 	"/>
	<polyline class="st9" points="42.1,-14.8 42.1,-14.8 42.1,-14.9 42.2,-14.9 42.2,-15.1 42.1,-15.2 42.1,-15.2 42.1,-15.2 42,-15.2 
		42,-15.2 	"/>
	<polyline class="st9" points="52.8,4.8 52.8,4.8 52.7,4.8 52.7,5 52.7,5 52.7,5 52.7,5.1 52.8,5.1 52.8,5.2 52.9,5.2 52.9,5.1 	"/>
	<polyline class="st9" points="86.3,-8.8 52.8,4.8 52.9,5.1 86.4,-8.5 	"/>
	<polyline class="st9" points="86.4,-8.5 86.4,-8.5 86.4,-8.5 86.5,-8.5 86.5,-8.7 86.4,-8.8 86.4,-8.8 86.4,-8.8 86.3,-8.8 
		86.3,-8.8 	"/>
	<polyline class="st9" points="74.8,2.8 74.7,2.8 74.7,2.8 74.7,2.8 74.7,3 74.8,3.1 74.9,3.1 	"/>
	<polyline class="st9" points="85.4,-1.9 74.8,2.8 74.9,3.1 85.5,-1.5 	"/>
	<polyline class="st9" points="85.5,-1.5 85.5,-1.5 85.6,-1.5 85.6,-1.6 85.6,-1.6 85.6,-1.7 85.6,-1.7 85.6,-1.8 85.5,-1.8 
		85.5,-1.9 85.4,-1.9 	"/>
	<polyline class="st9" points="29.3,-9.8 29.2,-9.9 29.2,-9.9 29.1,-9.8 29,-9.8 29,-9.8 29,-9.7 29,-9.5 29,-9.5 29,-9.5 
		29.1,-9.5 	"/>
	<polyline class="st9" points="35.7,-7 29.3,-9.8 29.1,-9.5 35.5,-6.7 	"/>
	<polyline class="st9" points="35.5,-6.7 35.7,-6.7 35.8,-6.7 35.8,-6.8 35.8,-6.8 35.8,-6.9 35.8,-6.9 35.8,-7 35.7,-7 	"/>
	<path class="st9" d="M42.2-15.1L42.2-15.1c-0.2,0-0.3,0.1-0.3,0.3v0.1H42v0.1l0,0"/>
	<polyline class="st9" points="48.4,-12.3 42.2,-15.1 42,-14.7 48.2,-12 	"/>
	<polyline class="st9" points="48.2,-12 48.3,-12 48.3,-11.9 48.3,-11.9 48.3,-12 48.5,-12 48.5,-12 48.5,-12.1 48.5,-12.3 
		48.5,-12.3 48.5,-12.3 48.4,-12.3 	"/>
	<polyline class="st9" points="29.2,-4.2 29,-4.2 28.9,-4.1 28.9,-4.1 28.9,-4.1 28.9,-3.9 28.9,-3.9 29,-3.8 	"/>
	<polyline class="st9" points="36.6,-0.9 29.2,-4.2 29,-3.8 36.4,-0.5 	"/>
	<polyline class="st9" points="36.4,-0.5 36.6,-0.5 36.6,-0.6 36.7,-0.7 36.7,-0.8 36.6,-0.9 36.6,-0.9 36.6,-0.9 	"/>
	<polyline class="st9" points="42.2,-9.4 42.2,-9.5 42,-9.5 42,-9.4 42,-9.4 42,-9.4 41.9,-9.3 41.9,-9.3 42,-9.2 42,-9.2 42,-9.1 	
		"/>
	<polyline class="st9" points="49.5,-6.2 42.2,-9.4 42,-9.1 49.4,-5.9 	"/>
	<polyline class="st9" points="49.4,-5.9 49.5,-5.9 49.6,-5.9 49.6,-6 49.7,-6.1 49.7,-6.1 49.6,-6.1 49.6,-6.2 49.5,-6.2 
		49.5,-6.2 	"/>
	<polyline class="st9" points="55.4,-14.9 55.2,-14.9 55.2,-14.8 55.2,-14.8 55.2,-14.8 55.1,-14.7 55.1,-14.6 55.2,-14.6 
		55.2,-14.6 55.2,-14.5 	"/>
	<polyline class="st9" points="62.7,-11.7 55.4,-14.9 55.2,-14.5 62.5,-11.3 	"/>
	<polyline class="st9" points="62.5,-11.3 62.7,-11.3 62.7,-11.3 62.7,-11.3 62.8,-11.4 62.8,-11.6 62.7,-11.6 62.7,-11.6 
		62.7,-11.6 62.7,-11.7 	"/>
	<polyline class="st9" points="43.1,-3.5 43.1,-3.5 42.9,-3.5 42.9,-3.5 42.9,-3.5 42.9,-3.4 42.8,-3.4 42.8,-3.3 42.9,-3.2 	"/>
	<polyline class="st9" points="50.3,-0.4 43.1,-3.5 42.9,-3.2 50.1,-0.1 	"/>
	<polyline class="st9" points="50.1,-0.1 50.1,0 50.3,0 50.3,-0.1 50.3,-0.1 50.3,-0.1 50.4,-0.2 50.4,-0.3 50.3,-0.3 50.3,-0.4 	
		"/>
	<polyline class="st9" points="56.3,-8.8 56.1,-8.8 56.1,-8.8 56.1,-8.8 56.1,-8.7 56,-8.7 56,-8.6 56.1,-8.6 56.1,-8.5 56.1,-8.5 
		56.1,-8.5 	"/>
	<polyline class="st9" points="63.4,-5.7 56.3,-8.8 56.1,-8.5 63.3,-5.3 	"/>
	<path class="st9" d="M63.3-5.3L63.3-5.3c0.2,0,0.3-0.1,0.3-0.3v-0.1h-0.1v-0.1h-0.1"/>
	<polyline class="st9" points="69.4,-14.3 69.3,-14.3 69.2,-14.2 69.2,-14.2 69.2,-14.1 69.1,-14.1 69.1,-14.1 69.2,-14 69.2,-14 
		69.2,-14 69.2,-13.9 69.3,-13.9 	"/>
	<polyline class="st9" points="76.6,-11.1 69.4,-14.3 69.3,-13.9 76.4,-10.7 	"/>
	<polyline class="st9" points="76.4,-10.7 76.6,-10.7 76.6,-10.8 76.7,-10.8 76.7,-11.1 76.6,-11.1 76.6,-11.1 	"/>
	<polyline class="st9" points="70.7,-8.1 70.6,-8.1 70.5,-8.1 70.5,-8.1 70.5,-8.1 70.4,-8 70.4,-7.8 70.5,-7.8 70.5,-7.7 
		70.5,-7.7 	"/>
	<polyline class="st9" points="77.2,-5.2 70.7,-8.1 70.5,-7.7 77.1,-4.9 	"/>
	<polyline class="st9" points="77.1,-4.9 77.2,-4.9 77.2,-4.9 77.3,-4.9 77.3,-5 77.3,-5 77.3,-5.1 77.3,-5.2 77.2,-5.2 77.2,-5.2 	
		"/>
	<polyline class="st9" points="57.8,2.8 57.6,2.8 57.6,2.9 57.6,2.9 57.6,3 57.5,3 57.6,3.1 57.6,3.2 57.6,3.2 57.6,3.2 	"/>
	<polyline class="st9" points="62.2,4.8 57.8,2.8 57.6,3.2 62.1,5.2 	"/>
	<polyline class="st9" points="62.1,5.2 62.2,5.2 62.3,5.1 62.4,5.1 62.4,4.9 62.3,4.9 62.3,4.8 62.2,4.8 62.2,4.8 	"/>
	<polyline class="st9" points="70.9,-2.5 70.7,-2.5 70.7,-2.4 70.6,-2.4 70.6,-2.1 70.7,-2.1 70.7,-2.1 	"/>
	<polyline class="st9" points="78.7,1 70.9,-2.5 70.7,-2.1 78.5,1.3 	"/>
	<polyline class="st9" points="78.5,1.3 78.5,1.4 78.6,1.4 78.6,1.3 78.7,1.3 78.7,1.2 78.8,1.2 78.8,1.1 78.7,1.1 78.7,1 78.7,1 	
		"/>
	<polyline class="st9" points="84.2,-7.8 84,-7.8 84,-7.7 83.9,-7.7 83.9,-7.5 84,-7.5 84,-7.5 84,-7.4 	"/>
	<polyline class="st9" points="87.5,-6.3 84.2,-7.8 84,-7.4 87.4,-5.9 	"/>
	<path class="st9" d="M87.4-5.9L87.4-5.9c0.2,0,0.3-0.1,0.3-0.3v-0.1h-0.1l-0.1-0.1"/>
	<polyline class="st10" points="56.2,-2.7 56,-2.8 55.9,-2.5 56.1,-2.3 	"/>
	<polyline class="st10" points="63,0.3 56.2,-2.7 56.1,-2.3 62.8,0.6 	"/>
	<polyline class="st10" points="62.8,0.6 63,0.7 63.1,0.3 63,0.3 	"/>
	<polyline class="st10" points="25.6,-3.2 25.6,-3.2 25.6,-3.2 25.5,-3.2 25.5,-3 25.6,-2.9 25.6,-2.9 25.6,-2.9 25.7,-2.8 
		25.7,-2.8 25.8,-2.9 	"/>
	<polyline class="st10" points="58.4,-16.5 25.6,-3.2 25.8,-2.9 58.5,-16.2 	"/>
	<polyline class="st10" points="58.5,-16.2 58.6,-16.2 58.6,-16.2 58.6,-16.2 58.6,-16.4 58.6,-16.5 58.5,-16.5 58.5,-16.5 
		58.5,-16.6 58.4,-16.6 58.4,-16.5 58.4,-16.5 	"/>
	<polyline class="st10" points="31.3,0.9 31.2,0.9 31.2,0.9 31.2,0.9 31.2,1.1 31.2,1.1 31.2,1.2 31.3,1.2 31.3,1.3 31.4,1.3 
		31.4,1.2 	"/>
	<polyline class="st10" points="70.9,-15.2 31.3,0.9 31.4,1.2 71.1,-14.9 	"/>
	<polyline class="st10" points="71.1,-14.9 71.1,-14.9 71.1,-14.9 71.2,-14.9 71.2,-15.2 71.1,-15.2 71.1,-15.2 71.1,-15.3 
		71,-15.3 70.9,-15.2 	"/>
	<polyline class="st10" points="40.3,3.5 40.3,3.5 40.3,3.5 40.2,3.5 40.2,3.7 40.3,3.8 40.3,3.8 40.3,3.8 40.4,3.9 40.4,3.9 
		40.5,3.8 	"/>
	<polyline class="st10" points="80.2,-12.7 40.3,3.5 40.5,3.8 80.3,-12.3 	"/>
	<polyline class="st10" points="80.3,-12.3 80.3,-12.4 80.4,-12.4 80.4,-12.4 80.5,-12.5 80.5,-12.5 80.4,-12.6 80.4,-12.6 
		80.3,-12.6 80.3,-12.7 80.2,-12.7 	"/>
	<polyline class="st10" points="26,-9 25.9,-8.9 25.9,-8.7 26,-8.6 26.2,-8.6 	"/>
	<polyline class="st10" points="41.7,-15.4 26,-9 26.2,-8.6 41.8,-15 	"/>
	<polyline class="st10" points="41.8,-15 41.9,-15 41.9,-15 41.9,-15 41.9,-15.1 42,-15.2 42,-15.2 41.9,-15.3 41.9,-15.3 
		41.9,-15.3 41.9,-15.4 41.7,-15.4 	"/>
	<polyline class="st10" points="52.1,4.8 51.9,4.9 51.9,5.1 52,5.1 52,5.1 52.1,5.2 52.2,5.2 	"/>
	<polyline class="st10" points="86,-9 52.1,4.8 52.2,5.2 86.1,-8.6 	"/>
	<polyline class="st10" points="86.1,-8.6 86.2,-8.6 86.2,-8.7 86.2,-8.7 86.2,-8.7 86.3,-8.8 86.3,-8.8 86.2,-8.9 86.2,-8.9 
		86.2,-8.9 86.2,-9 86,-9 	"/>
	<path class="st10" d="M73.3,3.1L73.3,3.1L73.3,3.1l-0.1,0.1v0.1c0,0.2,0,0.3,0.2,0.3h0.1"/>
	<polyline class="st10" points="85.9,-2.3 73.3,3.1 73.5,3.5 86.1,-2 	"/>
	<polyline class="st10" points="86.1,-2 86.1,-2 86.1,-2.1 86.2,-2.1 86.2,-2.3 86.1,-2.3 86.1,-2.3 86.1,-2.3 86.1,-2.4 85.9,-2.4 
		85.9,-2.3 	"/>
	<polyline class="st10" points="29,-10 28.8,-10 28.8,-10 28.8,-10 28.8,-9.9 28.7,-9.9 28.7,-9.8 28.8,-9.8 28.8,-9.7 28.8,-9.7 	
		"/>
	<polyline class="st10" points="35.4,-7.2 29,-10 28.8,-9.7 35.3,-6.8 	"/>
	<polyline class="st10" points="35.3,-6.8 35.4,-6.8 35.4,-6.9 35.5,-6.9 35.5,-6.9 35.5,-6.9 35.5,-7.1 35.5,-7.1 35.5,-7.1 
		35.4,-7.2 	"/>
	<polyline class="st10" points="41.9,-15.3 41.7,-15.3 41.7,-15.2 41.6,-15.2 41.6,-15 41.7,-15 41.7,-14.9 41.7,-14.9 41.7,-14.9 	
		"/>
	<polyline class="st10" points="48.1,-12.5 41.9,-15.3 41.7,-14.9 48,-12.2 	"/>
	<polyline class="st10" points="48,-12.2 48.2,-12.2 48.2,-12.2 48.2,-12.2 48.2,-12.4 48.2,-12.5 48.1,-12.5 	"/>
	<polyline class="st10" points="28.9,-4.4 28.7,-4.4 28.7,-4.3 28.6,-4.3 28.6,-4.1 28.7,-4.1 28.7,-4 28.7,-4 28.7,-4 	"/>
	<polyline class="st10" points="36.3,-1.1 28.9,-4.4 28.7,-4 36.1,-0.7 	"/>
	<path class="st10" d="M36.1-0.7L36.1-0.7c0.2,0,0.3-0.1,0.3-0.3l0,0h-0.1v-0.1h-0.1"/>
	<polyline class="st10" points="42,-9.7 41.8,-9.7 41.7,-9.6 41.7,-9.6 41.7,-9.3 41.7,-9.3 41.8,-9.3 	"/>
	<polyline class="st10" points="49.3,-6.4 42,-9.7 41.8,-9.3 49.1,-6.1 	"/>
	<polyline class="st10" points="49.1,-6.1 49.3,-6.1 49.3,-6.1 49.3,-6.1 49.4,-6.2 49.4,-6.3 49.3,-6.3 49.3,-6.4 49.3,-6.4 
		49.3,-6.4 	"/>
	<polyline class="st10" points="55.1,-15 54.9,-15 54.9,-15 54.9,-15 54.9,-14.7 54.9,-14.7 55,-14.7 	"/>
	<polyline class="st10" points="62.4,-11.8 55.1,-15 55,-14.7 62.2,-11.5 	"/>
	<path class="st10" d="M62.2-11.5L62.2-11.5c0.2,0.1,0.3-0.1,0.3-0.2v-0.1h-0.1v-0.1h-0.1"/>
	<polyline class="st10" points="42.8,-3.7 42.7,-3.7 42.7,-3.7 42.6,-3.7 42.6,-3.5 42.6,-3.5 42.6,-3.5 42.6,-3.4 42.6,-3.4 
		42.7,-3.4 42.7,-3.3 	"/>
	<polyline class="st10" points="50,-0.5 42.8,-3.7 42.7,-3.3 49.8,-0.2 	"/>
	<polyline class="st10" points="49.8,-0.2 49.9,-0.2 49.9,-0.2 49.9,-0.2 49.9,-0.2 50,-0.2 50,-0.3 50.1,-0.3 50.1,-0.5 50,-0.5 
		50,-0.5 50,-0.5 	"/>
	<polyline class="st10" points="56.1,-9 55.9,-9 55.9,-8.9 55.8,-8.9 55.8,-8.8 55.8,-8.8 55.8,-8.8 55.8,-8.8 55.8,-8.7 55.9,-8.7 
		55.9,-8.6 	"/>
	<polyline class="st10" points="63.2,-5.8 56.1,-9 55.9,-8.6 63.1,-5.5 	"/>
	<polyline class="st10" points="63.1,-5.5 63.1,-5.5 63.2,-5.5 63.2,-5.5 63.3,-5.5 63.3,-5.6 63.3,-5.6 63.3,-5.7 63.3,-5.7 
		63.3,-5.8 63.2,-5.8 	"/>
	<polyline class="st10" points="69.2,-14.4 68.9,-14.4 68.9,-14.4 68.9,-14.4 68.9,-14.1 68.9,-14.1 69,-14.1 	"/>
	<polyline class="st10" points="76.4,-11.3 69.2,-14.4 69,-14.1 76.2,-10.9 	"/>
	<polyline class="st10" points="76.2,-10.9 76.4,-10.9 76.4,-11 76.4,-11 76.4,-11 76.5,-11.1 76.5,-11.2 76.4,-11.2 76.4,-11.2 
		76.4,-11.2 76.4,-11.3 	"/>
	<polyline class="st10" points="70.4,-8.3 70.3,-8.3 70.2,-8.2 70.2,-8.2 70.1,-8.2 70.1,-8 70.3,-7.9 	"/>
	<polyline class="st10" points="77,-5.4 70.4,-8.3 70.3,-7.9 76.8,-5 	"/>
	<polyline class="st10" points="76.8,-5 77,-5 77,-5.1 77,-5.1 77,-5.1 77.1,-5.2 77.1,-5.3 77,-5.3 77,-5.3 77,-5.4 	"/>
	<polyline class="st10" points="57.6,2.7 57.3,2.7 57.3,2.7 57.3,2.7 57.3,3 57.3,3 57.4,3 	"/>
	<polyline class="st10" points="62,4.6 57.6,2.7 57.4,3 61.8,5 	"/>
	<path class="st10" d="M61.8,5L61.8,5c0.2,0,0.3-0.1,0.3-0.3V4.6H62V4.5l0,0"/>
	<polyline class="st10" points="70.6,-2.6 70.5,-2.6 70.4,-2.5 70.4,-2.3 70.4,-2.3 70.4,-2.3 70.5,-2.3 	"/>
	<polyline class="st10" points="78.4,0.8 70.6,-2.6 70.5,-2.3 78.2,1.1 	"/>
	<polyline class="st10" points="78.2,1.1 78.4,1.1 78.4,1.1 78.5,1 78.5,0.9 78.4,0.9 78.4,0.8 78.4,0.8 78.4,0.8 	"/>
	<polyline class="st10" points="83.9,-8 83.8,-8 83.8,-7.9 83.7,-7.9 83.7,-7.8 83.7,-7.8 83.7,-7.7 83.7,-7.7 83.7,-7.6 83.8,-7.6 
		83.8,-7.6 	"/>
	<polyline class="st10" points="87.6,-6.3 83.9,-8 83.8,-7.6 87.5,-5.9 	"/>
	<path class="st10" d="M87.5-5.9L87.5-5.9c0.2,0,0.3-0.1,0.3-0.3v-0.1h-0.1v-0.1h-0.1"/>
	<path class="st5" d="M56.1,5.3h0.8c5.5,0.2,30-1.8,31-10.8v-0.2h-0.4v0.4l-0.1,0.1c0,0.4-0.1,0.7-0.3,1L87-4v0.2
		c-0.1,0.3-0.5,0.9-0.8,1.1l-0.1,0.2l-0.2,0.2c-1.1,1-2.4,1.9-3.7,2.6l-0.7,0.3c-7.2,3.2-16,4.2-23.8,4.4h-0.8l-0.8,0V5.3"/>
	<path class="st5" d="M24.4-5.7v0.2c1,9,25.4,11.1,31,10.8h0.8V5l-0.8-0.1h-0.8C46.8,4.8,38,3.7,30.8,0.5L30,0.2
		c-1.3-0.6-2.5-1.5-3.5-2.4l-0.1-0.2l-0.2-0.1l-0.1-0.1c-0.3-0.4-0.6-0.7-0.8-1.1l-0.1-0.1V-4l-0.1-0.1L25-4.2v-0.2l-0.1-0.2
		l-0.1-0.2v-0.1V-5v-0.2l-0.1-0.2v-0.3H24.4"/>
	<path class="st5" d="M56.1-16.6h-0.8c-5.6-0.2-30,1.8-31,10.8v0.1h0.4V-6l0.1-0.1c0-0.9,0.7-2,1.3-2.7L26.4-9c1-1,2.2-1.7,3.4-2.4
		l0.7-0.3c7-3.3,16.4-4.3,24-4.5h1.6V-16.6"/>
	<path class="st5" d="M87.9-5.7v-0.1c-0.9-9-25.4-11.1-31-10.8h-0.8v0.4h0.8c5.3-0.3,29.6,1.9,30.6,10.5v0.1"/>
	<polyline class="st8" points="56.9,-8 61.6,-6.5 72.5,-10.8 77.7,-9.6 75,-13.5 61.8,-13.5 67.3,-12.2 56.9,-8 	"/>
	<polyline class="st8" points="55,-3.6 50.4,-5.1 39.4,-0.8 34.2,-2 37,1.9 50.2,1.9 44.6,0.5 55,-3.6 	"/>
	<polyline class="st8" points="35.4,-12.2 40,-13.7 51,-9.3 56.1,-10.6 53.4,-6.7 40.2,-6.7 45.7,-8 35.4,-12.2 	"/>
	<polyline class="st3" points="57.3,-7.6 62,-6.1 72.9,-10.5 78.1,-9.2 75.4,-13.1 62.1,-13.1 67.7,-11.8 57.3,-7.6 	"/>
	<polyline class="st3" points="55.4,-3.2 50.7,-4.7 39.7,-0.4 34.6,-1.6 37.3,2.2 50.6,2.2 45,0.9 55.4,-3.2 	"/>
	<polyline class="st3" points="35.8,-11.8 40.4,-13.3 51.4,-8.9 56.5,-10.2 53.8,-6.3 40.6,-6.3 46.1,-7.6 35.8,-11.8 	"/>
	<polyline class="st8" points="76.5,1.3 71.9,2.8 61,-1.6 56,-0.3 58.6,-4.1 71.7,-4.1 66.3,-2.8 76.5,1.3 	"/>
	<polyline class="st3" points="76.9,1.7 72.3,3.3 61.4,-1.1 56.3,0.2 59,-3.7 72.1,-3.7 66.6,-2.3 76.9,1.7 	"/>
</g>
</svg>
