<?xml version="1.0" encoding="utf-8"?>
<!-- Generator: Adobe Illustrator 19.0.0, SVG Export Plug-In . SVG Version: 6.00 Build 0)  -->
<svg version="1.1" id="图层_1" xmlns="http://www.w3.org/2000/svg" xmlns:xlink="http://www.w3.org/1999/xlink" x="0px" y="0px"
	 viewBox="-281 404.9 32 32" style="enable-background:new -281 404.9 32 32;" xml:space="preserve" width="50" height="50">
<style type="text/css">
	.st0{fill:#AA8333;}
	.st1{fill:#FFFFFF;}
	.st2{fill:#D8B05B;}
</style>
<g id="图层_2">
</g>
<path class="st0" d="M-249.1,426.3c-0.8,4.1-7.6,7.2-15.9,7.2c-8.3,0-15.1-3.2-15.9-7.2h-0.1v-9.6c0-4.4,7.2-8,16-8s16,3.6,16,8
	L-249.1,426.3L-249.1,426.3L-249.1,426.3z"/>
<path class="st1" d="M-265,410.1c-8.1,0-14.7,3-14.7,6.7s6.6,6.7,14.7,6.7s14.7-3,14.7-6.7C-250.3,413.1-256.9,410.1-265,410.1z"/>
<path class="st2" d="M-250.2,419.5c-2.4,2.7-8.1,4.6-14.7,4.6s-12.3-1.9-14.7-4.6l-0.1,5.8c0,3.3,6.6,6,14.7,6
	c8.1,0,14.7-2.7,14.7-6L-250.2,419.5z"/>
<g id="XMLID_38_">
	<path id="XMLID_42_" class="st0" d="M-266.9,415l-3.6-2.2h2.9v-1h-6v3.4h1.7v-1.6l3,1.7l-2.2,1.3l1.4,0.8l2.7-1.7
		C-266.5,415.5-266.5,415.1-266.9,415z"/>
	<path id="XMLID_41_" class="st0" d="M-261.7,415.7l3.6-2.1v1.7h1.7v-3.5h-6v0.9h2.9l-3,1.7l-2.1-1.2l-1.3,0.8l2.7,1.7
		C-262.7,415.9-262.1,415.9-261.7,415.7z"/>
	<path id="XMLID_40_" class="st0" d="M-263.1,418.6l3.6,2.1h-2.9v1.1h6v-3.4h-1.7v1.6l-3-1.7l2.1-1.2l-1.4-0.8l-2.7,1.7
		C-263.4,418.1-263.4,418.6-263.1,418.6z"/>
	<path id="XMLID_39_" class="st0" d="M-268.3,418l-3.6,2v-1.6h-1.7v3.4h6v-1h-2.9l2.9-1.7l2.1,1.2l1.4-0.8l-2.7-1.7
		C-267.3,417.7-267.8,417.7-268.3,418z"/>
</g>
</svg>
