<?xml version="1.0" encoding="utf-8"?>
<!-- Generator: Adobe Illustrator 19.0.0, SVG Export Plug-In . SVG Version: 6.00 Build 0)  -->
<svg version="1.1" id="图层_1" xmlns="http://www.w3.org/2000/svg" xmlns:xlink="http://www.w3.org/1999/xlink" x="0px" y="0px"
	 viewBox="92 -90 200 200" style="enable-background:new 92 -90 200 200;" xml:space="preserve" width="50" height="50">
<style type="text/css">
	.st0{fill:#0095D4;}
	.st1{fill:#006B84;}
	.st2{fill:#FFFFFF;}
	.st3{fill:#E29191;}
	.st4{fill:#9E2D2D;}
	.st5{fill:#3DB58D;}
	.st6{fill:#231815;}
	
		.st7{clip-path:url(#SVGID_2_);fill:none;stroke:#231815;stroke-width:0.6611;stroke-linecap:round;stroke-linejoin:round;stroke-miterlimit:10;}
	
		.st8{clip-path:url(#SVGID_4_);fill:none;stroke:#231815;stroke-width:0.6611;stroke-linecap:round;stroke-linejoin:round;stroke-miterlimit:10;}
	
		.st9{clip-path:url(#SVGID_6_);fill:none;stroke:#231815;stroke-width:0.6611;stroke-linecap:round;stroke-linejoin:round;stroke-miterlimit:10;}
	.st10{fill:none;stroke:#231815;stroke-width:0.3306;stroke-linecap:round;stroke-miterlimit:10;}
	
		.st11{clip-path:url(#SVGID_8_);fill:none;stroke:#231815;stroke-width:0.6611;stroke-linecap:round;stroke-linejoin:round;stroke-miterlimit:10;}
	
		.st12{clip-path:url(#SVGID_10_);fill:none;stroke:#FFFFFF;stroke-width:0.6611;stroke-linecap:round;stroke-linejoin:round;stroke-miterlimit:10;}
	
		.st13{clip-path:url(#SVGID_12_);fill:none;stroke:#FFFFFF;stroke-width:0.6611;stroke-linecap:round;stroke-linejoin:round;stroke-miterlimit:10;}
	
		.st14{clip-path:url(#SVGID_14_);fill:none;stroke:#FFFFFF;stroke-width:0.6611;stroke-linecap:round;stroke-linejoin:round;stroke-miterlimit:10;}
	.st15{fill:none;stroke:#FFFFFF;stroke-width:0.3306;stroke-linecap:round;stroke-miterlimit:10;}
	
		.st16{clip-path:url(#SVGID_16_);fill:none;stroke:#FFFFFF;stroke-width:0.6611;stroke-linecap:round;stroke-linejoin:round;stroke-miterlimit:10;}
</style>
<path class="st0" d="M216.8,97.1c-0.2,0-0.3-0.1-0.5-0.1l-82.9-46.5c-0.3-0.2-0.5-0.5-0.5-0.9l0.7-106.8c0-0.3,0.2-0.7,0.5-0.9
	l31.7-18.8c0.1-0.1,0.3-0.1,0.5-0.1s0.3,0.1,0.5,0.1l82,45.7c0.3,0.2,0.5,0.5,0.5,0.9V77.5c0,0.3-0.2,0.7-0.5,0.9l-31.6,18.5
	C217.1,97,217,97.1,216.8,97.1L216.8,97.1z"/>
<path class="st1" d="M215.5,36.1l1.7,0.9l0.2,60.6l-1.9-0.9C215.5,96.8,215.5,36.1,215.5,36.1z"/>
<path class="st2" d="M135.8-57.8l80.7,47.6L250-28.4l-82-49.8L135.8-57.8z"/>
<polygon class="st3" points="248.1,18.7 217.3,35.6 217.3,-9 248.2,-27.5 "/>
<polygon class="st3" points="216.6,35.6 135.9,-10.7 136.3,-56.1 216.4,-10.3 "/>
<path class="st4" d="M216.6-8.9c-0.2,0-0.3-0.1-0.5-0.1l-79.8-47c-0.5-0.3-0.6-0.9-0.3-1.4s0.9-0.6,1.4-0.3L216.7-11l30.1-17.4
	c0.5-0.3,1.1-0.1,1.4,0.3s0.1,1.1-0.3,1.4L217.3-9C216.9-8.9,216.8-8.9,216.6-8.9z"/>
<path class="st5" d="M-767.8,1631.9l2.8,0.6l0.4,31.1l-3.2-0.6V1631.9z"/>
<path class="st4" d="M216.5,37.8c-0.2,0-0.3-0.1-0.5-0.1l-79.8-47c-0.5-0.3-0.6-0.9-0.3-1.4s0.9-0.6,1.4-0.3l79.3,46.7l30.1-17.4
	c0.5-0.3,1.1-0.1,1.4,0.3c0.3,0.5,0.1,1.1-0.3,1.4l-30.7,17.6C216.8,37.8,216.7,37.8,216.5,37.8z"/>
<path class="st4" d="M215.5-10l1.7,0.9l0.2,45.6l-1.9-0.9C215.5,35.7,215.5-10,215.5-10z"/>
<g>
	<polyline class="st6" points="166.1,36.6 152.1,27.8 152.3,26.2 148,27 151.4,33.1 151.6,31.5 165.3,40.5 166.1,36.6 	"/>
	<polyline class="st6" points="166.1,36.6 152.1,27.8 152.3,26.2 148,27 151.4,33.1 151.6,31.5 165.3,40.5 166.1,36.6 	"/>
	<polyline class="st6" points="170,36 160.6,19.9 162.4,19.3 156.3,16 155.5,21.5 157.2,21 166.1,36.6 170,36 	"/>
	<polyline class="st6" points="170,36 160.6,19.9 162.4,19.3 156.3,16 155.5,21.5 157.2,21 166.1,36.6 170,36 	"/>
	<polyline class="st6" points="175.2,39.2 178.9,24.7 181.4,26 177.3,19.2 170.8,20.5 173.3,21.8 170,36 175.2,39.2 	"/>
	<polyline class="st6" points="175.2,39.2 178.9,24.7 181.4,26 177.3,19.2 170.8,20.5 173.3,21.8 170,36 175.2,39.2 	"/>
	<polyline class="st6" points="178,44.2 195.2,42.6 196.9,45.4 199.2,39.2 190.1,34.3 191.9,37.1 175.2,39.2 178,44.2 	"/>
	<polyline class="st6" points="178,44.2 195.2,42.6 196.9,45.4 199.2,39.2 190.1,34.3 191.9,37.1 175.2,39.2 178,44.2 	"/>
	<polyline class="st6" points="176.9,48.1 196.4,60.9 195.7,62.6 203.3,62.4 198.8,54.9 198,56.8 178,44.2 176.9,48.1 	"/>
	<polyline class="st6" points="176.9,48.1 196.4,60.9 195.7,62.6 203.3,62.4 198.8,54.9 198,56.8 178,44.2 176.9,48.1 	"/>
	<polyline class="st6" points="172.8,48.3 182.5,65.2 180.2,64.9 187.7,70 189.4,65.6 187,65.5 176.9,48.1 172.8,48.3 	"/>
	<polyline class="st6" points="172.8,48.3 182.5,65.2 180.2,64.9 187.7,70 189.4,65.6 187,65.5 176.9,48.1 172.8,48.3 	"/>
	<polyline class="st6" points="168,45.1 165.4,56.5 163.4,55 167.1,61.2 171.9,61.4 169.9,59.9 172.8,48.3 168,45.1 	"/>
	<polyline class="st6" points="168,45.1 165.4,56.5 163.4,55 167.1,61.2 171.9,61.4 169.9,59.9 172.8,48.3 168,45.1 	"/>
	<polyline class="st6" points="165.3,40.5 153.9,41.9 152.8,39.9 152.2,44.3 157.3,48.1 156.2,46 168,45.1 165.3,40.5 	"/>
	<polyline class="st6" points="165.3,40.5 153.9,41.9 152.8,39.9 152.2,44.3 157.3,48.1 156.2,46 168,45.1 165.3,40.5 	"/>
	<polyline class="st2" points="166.5,37.5 152.5,28.6 152.7,26.9 148.4,27.6 151.8,33.7 152,32.1 165.8,41.2 166.5,37.5 	"/>
	<polyline class="st2" points="166.5,37.5 152.5,28.6 152.7,26.9 148.4,27.6 151.8,33.7 152,32.1 165.8,41.2 166.5,37.5 	"/>
	<polyline class="st2" points="170.5,36.8 161,20.7 162.9,20 156.7,16.7 155.9,22.2 157.6,21.7 166.5,37.5 170.5,36.8 	"/>
	<polyline class="st2" points="170.5,36.8 161,20.7 162.9,20 156.7,16.7 155.9,22.2 157.6,21.7 166.5,37.5 170.5,36.8 	"/>
	<polyline class="st2" points="175.6,39.9 179.3,25.5 182,27 177.9,20.1 171.3,21.3 173.8,22.6 170.5,36.8 175.6,39.9 	"/>
	<polyline class="st2" points="175.6,39.9 179.3,25.5 182,27 177.9,20.1 171.3,21.3 173.8,22.6 170.5,36.8 175.6,39.9 	"/>
	<polyline class="st2" points="178.5,45 195.8,43.6 197.5,46.4 199.8,40.2 190.7,35.2 192.4,38 175.6,39.9 178.5,45 	"/>
	<polyline class="st2" points="178.5,45 195.8,43.6 197.5,46.4 199.8,40.2 190.7,35.2 192.4,38 175.6,39.9 178.5,45 	"/>
	<polyline class="st2" points="177.4,48.8 196.9,61.7 196.2,63.5 203.9,63.4 199.3,55.9 198.5,57.8 178.5,45 177.4,48.8 	"/>
	<polyline class="st2" points="177.4,48.8 196.9,61.7 196.2,63.5 203.9,63.4 199.3,55.9 198.5,57.8 178.5,45 177.4,48.8 	"/>
	<polyline class="st2" points="173.2,49 183,66 180.7,65.7 188.2,70.8 189.9,66.5 187.5,66.3 177.4,48.8 173.2,49 	"/>
	<polyline class="st2" points="173.2,49 183,66 180.7,65.7 188.2,70.8 189.9,66.5 187.5,66.3 177.4,48.8 173.2,49 	"/>
	<polyline class="st2" points="168.4,45.8 165.8,57.3 163.8,55.8 167.5,62 172.4,62.2 170.2,60.6 173.2,49 168.4,45.8 	"/>
	<polyline class="st2" points="168.4,45.8 165.8,57.3 163.8,55.8 167.5,62 172.4,62.2 170.2,60.6 173.2,49 168.4,45.8 	"/>
	<polyline class="st2" points="165.8,41.2 154.3,42.6 153.2,40.5 152.5,44.9 157.7,48.8 156.6,46.7 168.4,45.8 165.8,41.2 	"/>
	<polyline class="st2" points="165.8,41.2 154.3,42.6 153.2,40.5 152.5,44.9 157.7,48.8 156.6,46.7 168.4,45.8 165.8,41.2 	"/>
	<path class="st6" d="M181,48.8c1.2-4-2.4-10.3-7.9-13.6c-5.3-3.1-9.9-2.2-10.6,1.7c-0.7,3.7,2.3,9.2,7.2,12.6
		C174.7,52.9,179.8,52.7,181,48.8"/>
	<path class="st2" d="M182,50.5c1.2-4-2.4-10.3-7.9-13.7c-5.3-3.2-10-2.3-10.7,1.5c-0.7,3.7,2.3,9.2,7.2,12.6
		C175.5,54.5,180.8,54.4,182,50.5"/>
	<path class="st4" d="M181.5,49.7c1.2-4.1-2.4-10.3-7.9-13.6c-5.3-3.2-9.9-2.4-10.7,1.6c-0.7,3.7,2.3,9.1,7.2,12.5
		C175.1,53.6,180.3,53.6,181.5,49.7"/>
</g>
<g>
	<g>
		<g>
			<g>
				<g>
					<defs>
						<polygon id="SVGID_1_" points="161.4,-27.1 191.2,-9.5 191.2,6.3 161,-11.5 						"/>
					</defs>
					<clipPath id="SVGID_2_">
						<use xlink:href="#SVGID_1_"  style="overflow:visible;"/>
					</clipPath>
					<line class="st7" x1="133.9" y1="-56.9" x2="219.6" y2="37.2"/>
				</g>
			</g>
		</g>
	</g>
	<g>
		<g>
			<g>
				<g>
					<defs>
						<polygon id="SVGID_3_" points="152.6,-35.9 199.4,-8 199.4,-6.5 152.5,-34.3 						"/>
					</defs>
					<clipPath id="SVGID_4_">
						<use xlink:href="#SVGID_3_"  style="overflow:visible;"/>
					</clipPath>
					<line class="st8" x1="106.8" y1="-62.2" x2="243.7" y2="19.2"/>
				</g>
			</g>
		</g>
	</g>
	<g>
		<g>
			<g>
				<g>
					<defs>
						<polygon id="SVGID_5_" points="151.9,-15.6 199.6,12.5 199.6,14.2 151.8,-14 						"/>
					</defs>
					<clipPath id="SVGID_6_">
						<use xlink:href="#SVGID_5_"  style="overflow:visible;"/>
					</clipPath>
					<line class="st9" x1="105.2" y1="-42.3" x2="244.7" y2="40.1"/>
				</g>
			</g>
		</g>
	</g>
	<polygon class="st6" points="148.7,-41.1 163,-32.6 162.8,-24.5 148.4,-33.1 	"/>
	<polygon class="st10" points="148.7,-41.1 163,-32.6 162.8,-24.5 148.4,-33.1 	"/>
	<polygon class="st6" points="189,-17.1 202.5,-9.1 202.6,-0.9 189,-9 	"/>
	<polygon class="st10" points="189,-17.1 202.5,-9.1 202.6,-0.9 189,-9 	"/>
	<polygon class="st6" points="147.9,-21 162.5,-12.4 162.3,-4 147.6,-12.7 	"/>
	<polygon class="st10" points="147.9,-21 162.5,-12.4 162.3,-4 147.6,-12.7 	"/>
	<polygon class="st6" points="189,3.3 202.7,11.4 202.8,19.9 189,11.7 	"/>
	<polygon class="st10" points="189,3.3 202.7,11.4 202.8,19.9 189,11.7 	"/>
	<g>
		<g>
			<g>
				<g>
					<defs>
						<polygon id="SVGID_7_" points="160.8,-27.5 190.6,-9.8 190.6,6 160.4,-11.9 						"/>
					</defs>
					<clipPath id="SVGID_8_">
						<use xlink:href="#SVGID_7_"  style="overflow:visible;"/>
					</clipPath>
					<line class="st11" x1="217.8" y1="-6.8" x2="131" y2="-14.8"/>
				</g>
			</g>
		</g>
	</g>
	<g>
		<g>
			<g>
				<g>
					<defs>
						<polygon id="SVGID_9_" points="162,-26 191.8,-8.3 191.8,7.5 161.6,-10.4 						"/>
					</defs>
					<clipPath id="SVGID_10_">
						<use xlink:href="#SVGID_9_"  style="overflow:visible;"/>
					</clipPath>
					<line class="st12" x1="134.5" y1="-55.9" x2="220.2" y2="38.3"/>
				</g>
			</g>
		</g>
	</g>
	<g>
		<g>
			<g>
				<g>
					<defs>
						<polygon id="SVGID_11_" points="153.2,-34.9 200,-7 200,-5.5 153.1,-33.3 						"/>
					</defs>
					<clipPath id="SVGID_12_">
						<use xlink:href="#SVGID_11_"  style="overflow:visible;"/>
					</clipPath>
					<line class="st13" x1="107.2" y1="-61.3" x2="244.2" y2="20.1"/>
				</g>
			</g>
		</g>
	</g>
	<g>
		<g>
			<g>
				<g>
					<defs>
						<polygon id="SVGID_13_" points="152.5,-14.6 200.2,13.6 200.2,15.2 152.4,-13 						"/>
					</defs>
					<clipPath id="SVGID_14_">
						<use xlink:href="#SVGID_13_"  style="overflow:visible;"/>
					</clipPath>
					<line class="st14" x1="105.6" y1="-41.3" x2="245.2" y2="41.1"/>
				</g>
			</g>
		</g>
	</g>
	<polygon class="st2" points="149.3,-40.1 163.6,-31.5 163.4,-23.5 149,-32.1 	"/>
	<polygon class="st15" points="149.3,-40.1 163.6,-31.5 163.4,-23.5 149,-32.1 	"/>
	<polygon class="st2" points="189.6,-16.1 203.2,-8 203.3,0.2 189.6,-7.9 	"/>
	<polygon class="st15" points="189.6,-16.1 203.2,-8 203.3,0.2 189.6,-7.9 	"/>
	<polygon class="st2" points="148.5,-20 163.2,-11.3 162.9,-2.9 148.2,-11.6 	"/>
	<polygon class="st15" points="148.5,-20 163.2,-11.3 162.9,-2.9 148.2,-11.6 	"/>
	<polygon class="st2" points="189.6,4.3 203.4,12.5 203.5,21 189.6,12.8 	"/>
	<polygon class="st15" points="189.6,4.3 203.4,12.5 203.5,21 189.6,12.8 	"/>
	<g>
		<g>
			<g>
				<g>
					<defs>
						<polygon id="SVGID_15_" points="161.4,-26.4 191.2,-8.7 191.2,7.1 161,-10.7 						"/>
					</defs>
					<clipPath id="SVGID_16_">
						<use xlink:href="#SVGID_15_"  style="overflow:visible;"/>
					</clipPath>
					<line class="st16" x1="218.4" y1="-5.8" x2="131.6" y2="-13.8"/>
				</g>
			</g>
		</g>
	</g>
</g>
<g>
	<path class="st1" d="M216.6,99.1c-0.5,0-1-0.1-1.4-0.3l-80.9-47.6c-0.9-0.5-1.4-1.4-1.4-2.4V-57.7c0-1,0.6-1.9,1.4-2.4L166-78.9
		c0.4-0.3,0.9-0.3,1.4-0.3s1,0.1,1.5,0.4l80.8,48.1c0.8,0.5,1.4,1.4,1.4,2.4V78.1c0,1-0.6,1.9-1.4,2.4l-31.6,18.3
		C217.5,99,217.1,99.1,216.6,99.1z M216.6,95.3l30.8-17.8V-27.9l-80-47.6l-30.8,18.3V48.3L216.6,95.3z"/>
</g>
</svg>
