<?xml version="1.0" encoding="utf-8"?>
<!-- Generator: Adobe Illustrator 19.0.0, SVG Export Plug-In . SVG Version: 6.00 Build 0)  -->
<svg version="1.1" id="图层_1" xmlns="http://www.w3.org/2000/svg" xmlns:xlink="http://www.w3.org/1999/xlink" x="0px" y="0px"
	 viewBox="-281 404.9 32 32" style="enable-background:new -281 404.9 32 32;" xml:space="preserve" width="50" height="50">
<style type="text/css">
	.st0{fill:#e29191;}
	.st1{fill:#9E2D2D;}
	.st2{fill:#FFFFFF;}
</style>
<g id="图层_2">
</g>
<path class="st0" d="M-265,433c-0.1,0-0.1,0-0.1,0l-15.2-8.8c-0.1-0.1-0.1-0.1-0.1-0.3v-6c0-0.1,0.1-0.2,0.1-0.3l15.2-9
	c0,0,0.1,0,0.1,0s0.1,0,0.1,0l15.2,9c0.1,0.1,0.1,0.1,0.1,0.3v6c0,0.1-0.1,0.2-0.1,0.3l-15.2,8.8C-264.9,433-265,433-265,433
	L-265,433z"/>
<g>
	<path class="st1" d="M-265,433.6c-0.1,0-0.3,0-0.4-0.1l-15.2-8.8c-0.3-0.1-0.4-0.4-0.4-0.7v-6c0-0.3,0.2-0.5,0.4-0.7l15.2-9
		c0.1-0.1,0.3-0.1,0.4-0.1s0.3,0,0.4,0.1l15.2,9c0.2,0.1,0.4,0.4,0.4,0.7v6c0,0.3-0.2,0.5-0.4,0.7l-2.5,1.4l-12.7,7.4
		C-264.7,433.5-264.9,433.6-265,433.6z M-265,432.5l15-8.7v-5.7l-15-8.8l-15,8.8v5.7L-265,432.5z"/>
</g>
<path class="st2" d="M-279.9,418.1l14.9,8.7l15-8.7l-15-8.8L-279.9,418.1z"/>
<path class="st1" d="M-265,427.1c-0.1,0-0.1,0-0.1,0l-14.9-8.7c-0.1-0.1-0.2-0.3-0.1-0.4s0.3-0.2,0.4-0.1l14.8,8.6l14.8-8.6
	c0.1-0.1,0.3,0,0.4,0.1c0.1,0.1,0,0.3-0.1,0.4l-14.9,8.7C-264.9,427.1-265,427.1-265,427.1z"/>
<path class="st1" d="M-265.3,426.9l0.5,0.1l0.1,6l-0.6-0.1V426.9L-265.3,426.9z"/>
<g id="XMLID_212_">
	<path id="XMLID_234_" class="st1" d="M-262.4,417.9c0,0.2-0.1,0.4-0.2,0.6l2.7,1.6l1.1-0.7l-1.8-1.1h4.5c0.4,0,0.7-0.2,0.7-0.4
		c0-0.3-0.3-0.4-0.7-0.4h-4.5l1.8-1.1l-1.1-0.7l-2.7,1.6C-262.5,417.5-262.4,417.8-262.4,417.9z"/>
	<path id="XMLID_233_" class="st1" d="M-267.6,417.9c0-0.2,0.1-0.4,0.2-0.6l-2.7-1.6l-1.1,0.7l1.8,1.1h-4.5c-0.4,0-0.7,0.2-0.7,0.4
		c0,0.3,0.3,0.4,0.7,0.4h4.5l-1.8,1.1l1.1,0.7l2.7-1.6C-267.5,418.3-267.6,418.2-267.6,417.9z"/>
	<path id="XMLID_232_" class="st1" d="M-265,416.5c0.3,0,0.7,0,1,0.1l2.7-1.6l-1.1-0.7l-1.8,1.1v-2.7c0-0.3-0.3-0.4-0.7-0.4
		s-0.7,0.2-0.7,0.4v2.6l-1.8-1.1l-1.1,0.7l2.7,1.6C-265.6,416.5-265.3,416.5-265,416.5z"/>
	<path id="XMLID_214_" class="st1" d="M-264.3,423.2v-2.6l1.8,1.1l1.1-0.7l-2.7-1.6c-0.3,0.1-0.7,0.1-1,0.1c-0.3,0-0.7,0-1-0.1
		l-2.7,1.6l1.1,0.7l1.8-1.1v2.6c0,0.3,0.3,0.4,0.7,0.4C-264.6,423.6-264.3,423.4-264.3,423.2z"/>
	<ellipse id="XMLID_213_" class="st1" cx="-265" cy="417.9" rx="1.2" ry="0.7"/>
</g>
</svg>
