<?xml version="1.0" encoding="utf-8"?>
<!-- Generator: Adobe Illustrator 19.0.0, SVG Export Plug-In . SVG Version: 6.00 Build 0)  -->
<svg version="1.1" id="图层_1" xmlns="http://www.w3.org/2000/svg" xmlns:xlink="http://www.w3.org/1999/xlink" x="0px" y="0px"
	 viewBox="-281 404.9 32 32" style="enable-background:new -281 404.9 32 32;" xml:space="preserve" width="50" height="50">
<style type="text/css">
	.st0{fill:#82E0BE;}
	.st1{fill:#3DB58D;}
	.st2{fill:#FFFFFF;}
	.st3{fill:#B5D6FB;}
</style>
<g id="图层_2">
</g>
<path class="st0" d="M-268.7,436.5c0,0-0.1,0-0.1,0l-8-4.3c-0.1,0-0.1-0.1-0.1-0.2v-17.6c0-0.1,0.1-0.2,0.1-0.2l15.1-8.9
	c0,0,0.1,0,0.1,0c0,0,0.1,0,0.1,0l8.1,4.4c0.1,0,0.1,0.1,0.1,0.2v17.8c0,0.1-0.1,0.2-0.1,0.2l-15.2,8.5
	C-268.6,436.5-268.7,436.5-268.7,436.5z"/>
<g>
	<path class="st1" d="M-268.7,436.9c-0.1,0-0.2,0-0.3-0.1l-8-4.3c-0.2-0.1-0.3-0.3-0.3-0.6v-17.6c0-0.2,0.1-0.4,0.3-0.5l15.3-8.9
		c0.1-0.1,0.2-0.1,0.3-0.1c0.1,0,0.2,0,0.3,0.1l8.1,4.4c0.2,0.1,0.3,0.3,0.3,0.6v17.8c0,0.2-0.1,0.4-0.3,0.6l-15.4,8.5
		C-268.5,436.9-268.6,436.9-268.7,436.9z M-268.7,436l15.2-8.4v-17.6l-7.9-4.3l-4.5,2.6l-10.6,6.2v17.4L-268.7,436z"/>
</g>
<path class="st2" d="M-261.4,405.7l-14.9,8.7l7.8,4.2l15-8.6L-261.4,405.7z"/>
<path class="st3" d="M-268.7,435.2v-16.6"/>
<path class="st1" d="M-268.7,436.4c-0.1,0-0.2-0.1-0.2-0.2v-17.4c0-0.1,0.1-0.2,0.2-0.2c0.1,0,0.2,0.1,0.2,0.2v17.4
	C-268.5,436.3-268.6,436.4-268.7,436.4L-268.7,436.4z"/>
<path class="st3" d="M-259.2,413.3l-9.4,5.3"/>
<path class="st1" d="M-268.7,418.8c-0.1,0-0.2,0-0.2-0.1c-0.1-0.1,0-0.2,0.1-0.3l15.1-8.6c0.1-0.1,0.3,0,0.3,0.1
	c0.1,0.1,0,0.2-0.1,0.3l-15.1,8.6C-268.6,418.8-268.7,418.8-268.7,418.8z"/>
<path class="st3" d="M-275.7,414.9l7,3.7"/>
<path class="st1" d="M-268.7,418.8c0,0-0.1,0-0.1,0l-7.7-4c-0.1-0.1-0.2-0.2-0.1-0.3c0.1-0.1,0.2-0.2,0.3-0.1l7.7,4
	c0.1,0.1,0.2,0.2,0.1,0.3C-268.5,418.8-268.6,418.8-268.7,418.8z"/>
<path class="st3" d="M-275.8,429.6l5.9,3.2"/>
<path class="st1" d="M-269.9,433c0,0-0.1,0-0.1,0l-5.9-3.2c-0.1-0.1-0.2-0.2-0.1-0.3c0.1-0.1,0.2-0.2,0.3-0.1l5.9,3.2
	c0.1,0.1,0.2,0.2,0.1,0.3C-269.7,433-269.8,433-269.9,433L-269.9,433z"/>
<path class="st3" d="M-275.8,428l5.9,3.2"/>
<path class="st1" d="M-269.9,431.4c0,0-0.1,0-0.1,0l-5.9-3.2c-0.1-0.1-0.2-0.2-0.1-0.3c0.1-0.1,0.2-0.2,0.3-0.1l5.9,3.2
	c0.1,0.1,0.2,0.2,0.1,0.3C-269.7,431.4-269.8,431.4-269.9,431.4L-269.9,431.4z"/>
<path class="st3" d="M-275.8,426.4l5.9,3.2"/>
<path class="st1" d="M-269.9,429.8c0,0-0.1,0-0.1,0l-5.9-3.2c-0.1-0.1-0.2-0.2-0.1-0.3c0.1-0.1,0.2-0.2,0.3-0.1l5.9,3.2
	c0.1,0.1,0.2,0.2,0.1,0.3C-269.7,429.8-269.8,429.8-269.9,429.8z"/>
<path class="st3" d="M-277,423.1l8.3,4.4"/>
<path class="st1" d="M-277.1,423.3l0.2-0.4l8.3,4.4l-0.2,0.4L-277.1,423.3z"/>
<path class="st3" d="M-271.3,419.6l1.3,0.7"/>
<g>
	<path class="st1" d="M-270.2,420.6c-0.1,0-0.1,0-0.2,0l-1.3-0.7c-0.1-0.1-0.2-0.1-0.2-0.2c0-0.1,0-0.2,0-0.3
		c0.1-0.1,0.2-0.2,0.4-0.2c0.1,0,0.1,0,0.2,0l1.3,0.7c0.1,0.1,0.2,0.1,0.2,0.2c0,0.1,0,0.2,0,0.3
		C-269.9,420.5-270,420.6-270.2,420.6z"/>
</g>
</svg>
