<?xml version="1.0" encoding="utf-8"?>
<!-- Generator: Adobe Illustrator 19.0.0, SVG Export Plug-In . SVG Version: 6.00 Build 0)  -->
<svg version="1.1" id="图层_1" xmlns="http://www.w3.org/2000/svg" xmlns:xlink="http://www.w3.org/1999/xlink" x="0px" y="0px"
	 viewBox="-281 404.9 32 32" style="enable-background:new -281 404.9 32 32;" xml:space="preserve" width="50" height="50">
<style type="text/css">
	.st0{fill:#82E0BE;}
	.st1{fill:#3DB58D;}
	.st2{fill:#005BFF;}
	.st3{fill:#FFFFFF;}
</style>
<g id="图层_2">
</g>
<polygon class="st0" points="-251.2,412.8 -265.1,404.9 -278.9,413 -278.8,429 -264.9,436.9 -251.1,428.8 "/>
<g>
	<polygon class="st1" points="-269.8,432.5 -269.9,418.1 -257.4,410.7 -256.8,411 -269.3,418.4 -269.2,432.8 	"/>
</g>
<path class="st2" d="M-252.1,420.1l-0.4,0.2c-0.2,0.1-0.3,0.4-0.2,0.6c0.1,0.1,0.2,0.2,0.4,0.2c0.1,0,0.2,0,0.2-0.1l0.4-0.2
	c0.2-0.1,0.3-0.4,0.2-0.6C-251.6,420.1-251.9,420-252.1,420.1z"/>
<polygon class="st1" points="-265.9,425.6 -265.9,428.2 -264.8,424.9 "/>
<path class="st1" d="M-251.2,412.8l-13.9-7.9l-13.8,8.1l0.1,16l13.9,7.9l13.8-8.1L-251.2,412.8z M-277.1,428l-0.1-14l12.1-7.1
	l3.1,1.7l0,0l8.4,4.8l-4-2.3l4,2.2l-12.2,7.2l1.1-0.7l11.1-6.6l-4.3-2.3l0.9,0.5l3.3,1.9l-11,6.5l-1.1,0.7l0.1,14l-3.3-1.9
	 M-265,434.5v-13.6l11.9-7.2l0.3,14.1L-265,434.5z"/>
<polygon class="st3" points="-252.8,427.8 -265,434.5 -265,420.9 -253.1,413.7 "/>
<path class="st1" d="M-265.6,420.9c0,0-0.1,0-0.1,0l-11.9-6.9c-0.1-0.1-0.2-0.2-0.1-0.3c0.1-0.1,0.2-0.2,0.3-0.1l11.9,6.9
	c0.1,0.1,0.2,0.2,0.1,0.3C-265.4,420.8-265.5,420.9-265.6,420.9z"/>
<g>
	<polygon class="st1" points="-273.7,430.2 -273.8,415.8 -261.3,408.4 -260.7,408.8 -273.2,416.1 -273.1,430.5 	"/>
</g>
<g>
	<g>
		<path class="st1" d="M-259,428.6c-2.4,0-4.3-1.9-4.3-4.1s1.9-4.1,4.3-4.1s4.3,1.9,4.3,4.1S-256.7,428.6-259,428.6z M-259,421.4
			c-1.8,0-3.2,1.4-3.2,3.1c0,1.7,1.4,3.1,3.2,3.1s3.2-1.4,3.2-3.1C-255.8,422.8-257.2,421.4-259,421.4z"/>
	</g>
	<g>
		<polygon class="st1" points="-259.3,423.8 -255.6,420.2 -254.9,421 -258.6,424.6 		"/>
	</g>
</g>
<polygon class="st1" points="-263.1,432.3 -264.1,433 -264.1,431.9 -263.1,431.2 "/>
<polygon class="st1" points="-263.1,421.7 -264.1,422.4 -264.1,421.3 -263.1,420.6 "/>
<polygon class="st1" points="-253.7,426.7 -254.3,427.1 -254.3,426 -253.7,425.6 "/>
<polygon class="st1" points="-253.6,416.1 -254.3,416.4 -254.3,415.3 -253.6,415 "/>
</svg>
