<?xml version="1.0" encoding="utf-8"?>
<!-- Generator: Adobe Illustrator 22.0.1, SVG Export Plug-In . SVG Version: 6.00 Build 0)  -->
<svg version="1.1" id="图层_1" xmlns="http://www.w3.org/2000/svg" xmlns:xlink="http://www.w3.org/1999/xlink" x="0px" y="0px"
	 viewBox="0 0 32 32" style="enable-background:new 0 0 32 32;" xml:space="preserve" width="50" height="50">
<style type="text/css">
	.st0{fill:#FFFFFF;}
	.st1{fill:#83C2AA;stroke:#41A582;stroke-width:0.75;stroke-linecap:round;stroke-linejoin:round;stroke-miterlimit:10;}
	.st2{fill:#83C2AA;}
	.st3{fill:none;stroke:#41A582;stroke-width:0.75;stroke-linecap:round;stroke-linejoin:round;stroke-miterlimit:10;}
</style>
<g id="图层_2_1_">
</g>
<g>
	<polygon class="st0" points="24.4,20.5 24.7,29.8 30.9,30.8 31.2,22.5 	"/>
	<polygon class="st1" points="15.8,30.8 23.4,30.8 23.4,5.1 15.8,0.9 	"/>
	<g>
		<polygon class="st0" points="7.6,5.4 7.7,27.5 15.2,25.7 15.2,2.4 		"/>
		<polygon class="st0" points="0.7,15.7 0.7,29.2 6.1,27.3 6.4,14.1 		"/>
		<path class="st2" d="M6.4,13.1L6.4,13.1l-6.1,2.1v15.6h6.5V12.9L6.4,13.1z M2.1,30.2H0.9v-1.7h1.2V30.2z M2.1,27.7l-1.2,0.1V26
			h1.2V27.7z M2.1,25.2l-1.2,0.2v-1.7l1.2-0.2V25.2z M2.1,22.7l-1.2,0.2v-1.7l1.2-0.3V22.7z M2.1,20.2l-1.2,0.3v-1.7l1.2-0.3V20.2z
			 M2.1,17.7L0.9,18v-1.7l1.2-0.4V17.7z M4,30.2H2.7v-1.7L4,28.3V30.2z M4,27.5l-1.3,0.1V26L4,25.8V27.5z M4,25l-1.3,0.2v-1.7
			L4,23.2V25z M4,22.3l-1.3,0.2v-1.7L4,20.5V22.3z M4,19.8L2.7,20v-1.7L4,18V19.8z M4,17.2l-1.3,0.4v-1.7L4,15.3V17.2z M6.1,30H4.6
			v-1.8l1.5-0.1V30z M6.1,27.3l-1.5,0.1v-1.8l1.5-0.2V27.3z M6.1,24.7l-1.5,0.2v-1.8l1.5-0.2V24.7z M6.1,22l-1.5,0.3v-1.8l1.5-0.3
			V22z M6.1,19.2l-1.5,0.3v-1.8l1.5-0.4V19.2z M6.1,16.5L4.6,17v-1.8l1.5-0.5V16.5z"/>
		<path class="st2" d="M15.2,1.2L15.2,1.2L7.3,4.3v22.8h8.4V0.9L15.2,1.2z M10.4,5.1l1.7-0.6v2.6l-1.7,0.6V5.1z M9.6,26.3H8v-2.5
			l1.6-0.1V26.3z M9.6,22.7L8,22.8v-2.5L9.6,20V22.7z M9.6,19L8,19.2v-2.5l1.6-0.3V19z M9.6,15.2L8,15.7v-2.5l1.6-0.4V15.2z
			 M9.6,11.6L8,12.1V9.6l1.6-0.5V11.6z M9.6,7.9L8,8.4V6l1.6-0.6V7.9z M12.1,26.2l-1.7,0.1v-2.6l1.7-0.1V26.2z M12.1,22.5l-1.7,0.2
			V20l1.7-0.2V22.5z M12.1,18.7L10.4,19v-2.6l1.7-0.3C12.1,16.1,12.1,18.7,12.1,18.7z M12.1,14.8l-1.7,0.4v-2.6l1.7-0.4V14.8z
			 M12.1,10.9L12.1,10.9l-1.7,0.5V8.8l1.7-0.5V10.9z M14.8,26.2l-1.9,0.1v-2.7l1.9-0.1V26.2z M14.8,22.2l-1.9,0.2v-2.7l1.9-0.2V22.2
			z M14.8,18.2l-1.9,0.2v-2.7l1.9-0.4C14.8,15.3,14.8,18.2,14.8,18.2z M14.8,14.2l-1.9,0.4v-2.7l1.9-0.5V14.2z M14.8,10.2l-1.9,0.5
			V8.1l1.9-0.6V10.2z M14.8,6.3l-1.9,0.6V4.2l1.9-0.7V6.3z"/>
		<path class="st2" d="M14.8,6.3"/>
		<path class="st2" d="M0.4,28l15.4,1.2l-0.1-4.9L0.4,28z"/>
	</g>
	<path class="st2" d="M24.6,30.3L24.6,30.3h5.5l-0.8-0.1v-2.1l1.5,0.3v1.9h0.7v-9.1l-7.2-2.5l0,0l-0.5-0.2v11.8L24.6,30.3L24.6,30.3
		L24.6,30.3L24.6,30.3z M29.3,22.2l1.5,0.5v2l-1.5-0.4V22.2z M29.3,25.2l1.5,0.4v2l-1.5-0.3V25.2z M27,21.5l1.6,0.5v2L27,23.5V21.5z
		 M27,24.5l1.6,0.4V27L27,26.7V24.5z M27,27.7l1.6,0.3v2L27,29.8V27.7z M24.6,20.7l1.7,0.6v2.2L24.6,23V20.7z M24.6,23.8l1.7,0.5
		v2.2l-1.7-0.4V23.8z M24.6,27.2l1.7,0.4v2.2l-1.7-0.3V27.2z"/>
	<polygon class="st2" points="24.2,28.3 31.3,30.5 24.2,30.5 	"/>
	<rect x="-0.1" y="28" class="st2" width="15.5" height="2.6"/>
	<path class="st2" d="M-0.1,28"/>
	<polygon class="st3" points="0.3,30.8 15.8,30.8 15.8,0.9 7.3,4.3 7.3,26 6.8,26 6.8,12.9 0.3,15.2 	"/>
	<polygon class="st3" points="23.7,19 23.7,30.8 31.5,30.8 31.5,21.7 	"/>
</g>
</svg>
