<?xml version="1.0" encoding="utf-8"?>
<!-- Generator: Adobe Illustrator 19.0.0, SVG Export Plug-In . SVG Version: 6.00 Build 0)  -->
<svg version="1.1" id="图层_1" xmlns="http://www.w3.org/2000/svg" xmlns:xlink="http://www.w3.org/1999/xlink" x="0px" y="0px"
	 viewBox="-281 404.9 32 32" style="enable-background:new -281 404.9 32 32;" xml:space="preserve" width="50" height="50">
<style type="text/css">
	.st0{fill:#FFFFFF;}
	.st1{fill:#82E0BE;}
	.st2{fill:#3DB58D;}
</style>
<path class="st0" d="M-266.4,421.6l-13.1-6.7c-0.4,0-0.4-1.1-0.4-1.5l12.8-6c0-0.4,1-0.5,1.4-0.5l12.7,6.3c0.4,0,0.6,1.2,0.6,1.6
	l-12.8,6.4C-265.2,421.6-266,421.6-266.4,421.6z"/>
<polygon class="st1" points="-266,427.7 -279.9,420.1 -275.9,417.2 -266,421.8 -256.5,417.2 -252.2,420.5 "/>
<polygon class="st1" points="-266.2,433.4 -280.1,425.9 -276.1,423 -266.2,427.6 -256.8,423 -252.4,426.2 "/>
<g id="图层_2">
</g>
<path class="st2" d="M-266.2,422.2c-0.3,0-0.6-0.1-0.8-0.2l-12.6-6.4c-0.5-0.3-0.9-0.9-0.8-1.5c0-0.6,0.3-1.1,0.9-1.4l12.7-6
	c0.5-0.2,1-0.2,1.5,0l12.6,6c0.6,0.3,0.9,0.8,0.9,1.4c0,0.6-0.3,1.2-0.8,1.4l0,0l-12.6,6.4C-265.6,422.1-265.9,422.2-266.2,422.2
	L-266.2,422.2z M-266.2,407.4c-0.1,0-0.2,0-0.3,0.1l-12.7,6c-0.2,0.1-0.3,0.3-0.4,0.6c0,0.3,0.1,0.5,0.4,0.6l12.6,6.4
	c0.2,0.1,0.5,0.1,0.7,0l12.6-6.4c0.2-0.1,0.3-0.4,0.3-0.6c0-0.3-0.1-0.5-0.4-0.6l-12.6-6C-266,407.5-266.1,407.4-266.2,407.4z
	 M-253,415.2L-253,415.2L-253,415.2z"/>
<path class="st2" d="M-266.2,434.3c-0.4,0-0.7-0.1-1.1-0.3l-12.6-6.4c-0.7-0.4-1.1-1.1-1.1-1.9s0.4-1.4,1.1-1.8l3.2-1.8
	c0.5-0.2,1-0.1,1.3,0.4c0.2,0.5,0.1,1-0.4,1.3l-3.1,1.8c-0.1,0.1-0.1,0.1-0.1,0.2s0,0.2,0.1,0.2l12.6,6.4c0.1,0.1,0.2,0.1,0.3,0
	l12.6-6.4c0.1,0,0.1-0.1,0.1-0.2c0-0.1,0-0.2-0.1-0.2l-3.2-1.7c-0.5-0.2-0.6-0.8-0.4-1.3c0.2-0.5,0.8-0.6,1.3-0.4l3.2,1.7
	c0.7,0.3,1.1,1.1,1.1,1.8s-0.4,1.5-1.1,1.9l-12.7,6.4C-265.5,434.3-265.8,434.3-266.2,434.3z"/>
<path class="st2" d="M-266.2,428.2c-0.3,0-0.6-0.1-0.9-0.2l-12.6-6.4c-0.6-0.4-1-1-1-1.7c0-0.7,0.4-1.3,1-1.6l2.9-1.5
	c0.3-0.2,0.8-0.1,0.9,0.3c0.2,0.3,0.1,0.8-0.3,0.9l-2.9,1.5c-0.2,0.1-0.2,0.3-0.2,0.4c0,0.1,0,0.3,0.2,0.4l12.6,6.4
	c0.2,0.1,0.4,0.1,0.5,0l12.7-6.4c0.2-0.1,0.2-0.3,0.2-0.4c0-0.1,0-0.3-0.2-0.4l-2.9-1.6c-0.3-0.2-0.5-0.6-0.3-0.9
	c0.2-0.3,0.6-0.5,0.9-0.3l2.9,1.6c0.6,0.3,1,0.9,1,1.6c0,0.7-0.3,1.3-0.9,1.7l-12.7,6.4C-265.6,428.2-265.9,428.2-266.2,428.2
	L-266.2,428.2z M-264.1,416.6c-0.4,0-0.8-0.2-1.1-0.4l-2.6-2.4c-0.2-0.2-0.5-0.3-0.7-0.3l-4.7,0.9l-0.1-0.5l4.8-0.9
	c0.4,0,0.8,0.1,1.1,0.4l2.6,2.4c0.3,0.3,0.7,0.4,1.2,0.2l3.5-1.4l0.2,0.4l-3.5,1.4C-263.8,416.5-264,416.6-264.1,416.6z"/>
<path class="st2" d="M-273.7,414.8c0.5,0.1,0.9-0.1,1-0.6c0.1-0.5-0.1-0.9-0.6-1l0,0c-0.5-0.1-0.9,0.1-1,0.6
	C-274.4,414.2-274.1,414.7-273.7,414.8z"/>
<path class="st2" d="M-268.1,414.1c0.5,0.1,0.9-0.2,1-0.7c0.1-0.5-0.2-0.9-0.7-1l0,0c-0.5-0.1-0.9,0.2-1,0.7
	C-268.9,413.5-268.6,414-268.1,414.1L-268.1,414.1z"/>
<path class="st2" d="M-264.5,417c0.5,0.1,0.9-0.2,1-0.7c0.1-0.5-0.2-0.9-0.7-1l0,0c-0.5-0.1-0.9,0.2-1,0.7
	C-265.3,416.5-264.9,416.9-264.5,417L-264.5,417z"/>
<path class="st2" d="M-259.6,415.4c0.5,0.1,0.9-0.2,1-0.7c0.1-0.5-0.2-0.9-0.7-1l0,0c-0.5-0.1-0.9,0.2-1,0.7
	C-260.4,414.9-260.1,415.3-259.6,415.4L-259.6,415.4z"/>
<path class="st2" d="M-250.2,426.4c0.6-0.1,1.1,0.3,1.1,0.8c0,0.1,0.3,2.2-1.1,4c-1,1.3-2.7,2-5,2.3v1.8l-3.9-2.7l3.9-3v1.8
	c1.7-0.1,2.7-0.7,3.4-1.6c0.9-1,0.7-2.3,0.7-2.3C-251.1,427-250.7,426.4-250.2,426.4L-250.2,426.4z"/>
</svg>
