<?xml version="1.0" encoding="utf-8"?>
<!-- Generator: Adobe Illustrator 19.0.0, SVG Export Plug-In . SVG Version: 6.00 Build 0)  -->
<svg version="1.1" id="图层_1" xmlns="http://www.w3.org/2000/svg" xmlns:xlink="http://www.w3.org/1999/xlink" x="0px" y="0px"
	 viewBox="-281 404.9 32 32" style="enable-background:new -281 404.9 32 32;" xml:space="preserve" width="50" height="50">
<style type="text/css">
	.st0{fill:#82E0BE;}
	.st1{fill:#3DB58D;}
	.st2{fill:#FFFFFF;}
</style>
<g id="图层_2">
</g>
<path class="st0" d="M-265,433c-0.1,0-0.1,0-0.1,0l-15.2-8.8c-0.1-0.1-0.1-0.1-0.1-0.3v-6c0-0.1,0.1-0.2,0.1-0.3l15.2-9h0.1h0.1
	l15.2,9c0.1,0.1,0.1,0.1,0.1,0.3v6c0,0.1-0.1,0.2-0.1,0.3l-15.2,8.8H-265L-265,433z"/>
<g>
	<path class="st1" d="M-265,433.6c-0.1,0-0.3,0-0.4-0.1l-15.2-8.8c-0.3-0.1-0.4-0.4-0.4-0.7v-6c0-0.3,0.2-0.5,0.4-0.7l15.2-9
		c0.1-0.1,0.3-0.1,0.4-0.1s0.3,0,0.4,0.1l15.2,9c0.2,0.1,0.4,0.4,0.4,0.7v6c0,0.3-0.2,0.5-0.4,0.7l-2.5,1.4l-12.7,7.4
		C-264.7,433.5-264.9,433.6-265,433.6z M-265,432.5l15-8.7v-5.7l-15-8.8l-15,8.8v5.7L-265,432.5z"/>
</g>
<path class="st2" d="M-279.9,418.1l14.9,8.7l15-8.7l-15-8.8L-279.9,418.1z"/>
<path class="st1" d="M-265,427.1c-0.1,0-0.1,0-0.1,0l-14.9-8.7c-0.1-0.1-0.2-0.3-0.1-0.4s0.3-0.2,0.4-0.1l14.8,8.6l14.8-8.6
	c0.1-0.1,0.3,0,0.4,0.1c0.1,0.1,0,0.3-0.1,0.4l-14.9,8.7C-264.9,427.1-265,427.1-265,427.1z"/>
<path class="st1" d="M-265.3,426.9l0.5,0.1l0.1,6l-0.6-0.1V426.9L-265.3,426.9z"/>
<path class="st1" d="M-263.5,412.7l-5.1-0.3l1.2,2.1l1.3-0.6l4.5,1.7l1.3-0.6l-4.5-1.7L-263.5,412.7z M-268.9,415.3l-5.1-0.4
	l1.2,2.2l1.3-0.6l4.4,1.9l1.3-0.6l-4.4-1.8L-268.9,415.3z M-260.2,420.2l5.1,0.3l-1.2-2.3l-1.3,0.7l-4.5-1.8l-1.3,0.6l4.5,1.8
	L-260.2,420.2z M-263.2,421.7l-4.4-1.9l-1.3,0.6l4.4,1.9l-1.3,0.7l5.1,0.4l-1.2-2.4L-263.2,421.7z"/>
</svg>
