<?xml version="1.0" encoding="utf-8"?>
<!-- Generator: Adobe Illustrator 19.0.0, SVG Export Plug-In . SVG Version: 6.00 Build 0)  -->
<svg version="1.1" id="图层_1" xmlns="http://www.w3.org/2000/svg" xmlns:xlink="http://www.w3.org/1999/xlink" x="0px" y="0px"
	 viewBox="-281 404.9 32 32" style="enable-background:new -281 404.9 32 32;" xml:space="preserve" width="50" height="50">
<style type="text/css">
	.st0{fill:#e29191;}
	.st1{fill:#9E2D2D;}
	.st2{fill:#FFFFFF;}
</style>
<g id="图层_2">
</g>
<path class="st0" d="M-265.1,436.5c-0.1,0-0.1,0-0.1,0l-15.4-9.1c-0.1-0.1-0.1-0.1-0.1-0.3l0.2-11.6c0-0.1,0.1-0.2,0.1-0.3l15.2-8.9
	c0,0,0.1,0,0.1,0s0.1,0,0.1,0l15.1,8.9c0.1,0.1,0.1,0.1,0.1,0.3v11.9c0,0.1-0.1,0.2-0.1,0.3l-15.1,8.9
	C-265,436.5-265,436.5-265.1,436.5L-265.1,436.5z"/>
<g>
	<path class="st1" d="M-265.1,436.9c-0.1,0-0.3,0-0.4-0.1l-15.2-8.8c-0.3-0.1-0.4-0.4-0.4-0.7v-12.7c0-0.3,0.2-0.5,0.4-0.7l15.2-8.9
		c0.1-0.1,0.3-0.1,0.4-0.1s0.3,0,0.4,0.1l15.1,8.9c0.2,0.1,0.4,0.4,0.4,0.7v12.7c0,0.3-0.2,0.5-0.4,0.7l-2.5,1.4l-12.7,7.4
		C-264.8,436.9-264.9,436.9-265.1,436.9z M-265.1,435.8l14.9-8.7v-12.5l-14.9-8.8l-14.9,8.8v12.5L-265.1,435.8z"/>
</g>
<path class="st2" d="M-280,414.8l14.9,8.7l14.9-8.7l-14.9-8.8L-280,414.8z"/>
<path class="st1" d="M-265.1,423.7c-0.1,0-0.1,0-0.1,0l-14.9-8.6c-0.1-0.1-0.2-0.3-0.1-0.4c0.1-0.1,0.3-0.2,0.4-0.1l14.7,8.5
	l14.7-8.5c0.1-0.1,0.3,0,0.4,0.1s0,0.3-0.1,0.4l-14.9,8.6C-265,423.7-265,423.7-265.1,423.7z"/>
<g id="XMLID_1_">
	<polygon id="XMLID_4_" class="st1" points="-260.4,415.1 -260.4,416 -255,416 -255,412.9 -256.8,412.9 -256.8,414.4 -267.1,408.3 
		-268.2,409 -257.8,415.1 	"/>
	<polygon id="XMLID_3_" class="st1" points="-265.9,411.8 -265.9,410.9 -271.3,410.9 -271.3,414 -269.6,414 -269.6,412.5 
		-259.3,418.5 -258.1,417.9 -268.6,411.8 	"/>
	<polygon id="XMLID_2_" class="st1" points="-264.1,417.3 -264.1,418.7 -274.5,412.7 -275.5,413.3 -265.2,419.3 -267.7,419.3 
		-267.7,420.3 -262.4,420.3 -262.4,417.3 	"/>
</g>
<path class="st1" d="M-265.1,430.2c-0.1,0-0.1,0-0.1,0l-14.9-8.6c-0.1-0.1-0.2-0.3-0.1-0.4c0.1-0.1,0.3-0.2,0.4-0.1l14.7,8.5
	l14.7-8.5c0.1-0.1,0.3,0,0.4,0.1c0.1,0.1,0,0.3-0.1,0.4l-14.9,8.6C-265,430.2-265,430.2-265.1,430.2z"/>
<path class="st1" d="M-265.4,423.4l0.5,0.3l0.1,12.6l-0.5-0.3C-265.4,436.1-265.4,423.4-265.4,423.4z"/>
</svg>
