<?xml version="1.0" encoding="utf-8"?>
<!-- Generator: Adobe Illustrator 19.0.0, SVG Export Plug-In . SVG Version: 6.00 Build 0)  -->
<svg version="1.1" id="图层_1" xmlns="http://www.w3.org/2000/svg" xmlns:xlink="http://www.w3.org/1999/xlink" x="0px" y="0px"
	 viewBox="-281 404.9 32 32" style="enable-background:new -281 404.9 32 32;" xml:space="preserve" width="50" height="50">
<style type="text/css">
	.st0{fill:#82E0BE;}
	.st1{fill:#3DB58D;}
	.st2{fill:#FFFFFF;}
</style>
<g id="图层_2">
</g>
<path class="st0" d="M-265,433c-0.1,0-0.1,0-0.1,0l-15.2-8.8c-0.1-0.1-0.1-0.1-0.1-0.3v-6c0-0.1,0.1-0.2,0.1-0.3l15.2-9
	c0,0,0.1,0,0.1,0s0.1,0,0.1,0l15.2,9c0.1,0.1,0.1,0.1,0.1,0.3v6c0,0.1-0.1,0.2-0.1,0.3l-15.2,8.8C-265,433-265,433-265,433L-265,433
	z"/>
<g>
	<path class="st1" d="M-265,433.5c-0.1,0-0.3,0-0.4-0.1l-15.2-8.8c-0.3-0.1-0.4-0.4-0.4-0.7v-6c0-0.3,0.2-0.5,0.4-0.7l15.2-9
		c0.1-0.1,0.3-0.1,0.4-0.1s0.3,0,0.4,0.1l15.2,9c0.2,0.1,0.4,0.4,0.4,0.7v6c0,0.3-0.2,0.5-0.4,0.7l-2.5,1.4l-12.7,7.4
		C-264.8,433.5-264.9,433.5-265,433.5z M-265,432.5l15-8.7v-5.7l-15-8.8l-15,8.8v5.7L-265,432.5z"/>
</g>
<path class="st2" d="M-280,418.1l14.9,8.7l15-8.7l-15-8.8L-280,418.1z"/>
<path class="st1" d="M-265,427.1c-0.1,0-0.1,0-0.1,0l-14.9-8.7c-0.1-0.1-0.2-0.3-0.1-0.4s0.3-0.2,0.4-0.1l14.8,8.6l14.8-8.6
	c0.1-0.1,0.3,0,0.4,0.1c0.1,0.1,0,0.3-0.1,0.4l-14.9,8.7C-265,427.1-265,427.1-265,427.1z"/>
<path class="st1" d="M-265.3,426.9l0.5,0.1l0.1,6l-0.6-0.1V426.9L-265.3,426.9z"/>
<path id="XMLID_1_" class="st1" d="M-258.1,419.9l1.3,0.6l4.5-2.6l-4.5-2.6l-1.3,0.7l2.3,1.4l-4.5-0.1c-0.5-1.3-1.6-2.1-3.7-2.4
	v-2.1l2.1,1.2l1.3-0.7l-4.5-2.5l-4.5,2.6l1.3,0.7l2.1-1.3v2.2c-1.1,0.2-3,0.4-3.9,2.3l-4,0.1l1.9-0.9l-1.1-1l-4.5,2.4l4.5,2.5
	l1.3-0.5l-2.2-1.2h4.2c0.3,1.4,2.6,1.9,3.8,2v2.2l-2.1-1.3l-1.3,0.7l4.5,2.6l4.5-2.6l-1.3-0.6l-2.1,1.2v-2.2c2.1-0.2,3.4-1,3.8-2h4
	L-258.1,419.9z M-268.2,417.9c0-1.1,1.5-1.9,3.2-1.9c1.8,0,3.2,0.9,3.2,1.9c0,1.1-1.5,1.9-3.2,1.9
	C-266.8,419.8-268.2,419-268.2,417.9z"/>
</svg>
