<?xml version="1.0" encoding="utf-8"?>
<!-- Generator: Adobe Illustrator 19.0.0, SVG Export Plug-In . SVG Version: 6.00 Build 0)  -->
<svg version="1.1" id="图层_1" xmlns="http://www.w3.org/2000/svg" xmlns:xlink="http://www.w3.org/1999/xlink" x="0px" y="0px"
	 viewBox="-281 404.9 32 32" style="enable-background:new -281 404.9 32 32;" xml:space="preserve" width="50" height="50">
<style type="text/css">
	.st0{fill:#40AD88;}
	.st1{fill:#FFFFFF;}
	.st2{fill:#87CAB1;}
	.st3{enable-background:new    ;}
</style>
<path id="XMLID_7_" class="st0" d="M-249.1,426.2c-0.8,4.1-7.6,7.2-15.9,7.2s-15.1-3.2-15.9-7.2h-0.1v-9.4c0-4.4,7.2-8,16-8
	s16,3.6,16,8L-249.1,426.2L-249.1,426.2L-249.1,426.2L-249.1,426.2z"/>
<path id="XMLID_6_" class="st1" d="M-265,410.3c-8.1,0-14.7,3-14.7,6.7s6.6,6.7,14.7,6.7s14.7-3,14.7-6.7S-256.9,410.3-265,410.3z"
	/>
<path id="XMLID_5_" class="st2" d="M-250.2,419.7c-2.5,2.7-8.1,4.6-14.7,4.6s-12.3-1.9-14.7-4.6l-0.1,5.8c0,3.3,6.6,6,14.7,6
	s14.7-2.7,14.7-6L-250.2,419.7z"/>
<g class="st3">
	<path class="st0" d="M-271.2,412.4h2.1l-0.4,4.5c0,0.5-0.2,1-0.3,1.5c-0.2,0.6-0.5,0.9-0.8,1.3c-0.3,0.4-0.8,0.6-1.1,0.8
		c-0.5,0.2-1.2,0.4-1.9,0.4c-0.4,0-0.8,0-1.3-0.1c-0.5-0.1-0.9-0.2-1.1-0.4c-0.3-0.1-0.5-0.5-0.7-0.8c-0.2-0.3-0.2-0.7-0.2-1
		c-0.1-0.5,0.1-1.1,0.2-1.5l1.1-4.5h2.1l-0.9,4.6c-0.1,0.4-0.1,0.9,0.2,1.1c0.2,0.2,0.5,0.4,0.9,0.4c0.4,0,0.8-0.1,1-0.4
		c0.2-0.2,0.5-0.6,0.5-1.1L-271.2,412.4L-271.2,412.4z"/>
	<path class="st0" d="M-268.2,420.6l0.5-8.2h3.6c0.7,0,1.2,0.1,1.5,0.2c0.3,0.1,0.6,0.3,0.9,0.6c0.3,0.4,0.4,0.7,0.5,1.2
		c0,0.5,0,0.8-0.2,1.1c-0.1,0.4-0.4,0.6-0.7,0.8c-0.2,0.1-0.5,0.2-0.8,0.3c0.3,0.1,0.5,0.2,0.7,0.3c0.1,0.1,0.2,0.2,0.4,0.4
		c0.2,0.2,0.3,0.4,0.4,0.5l1.4,2.7h-2.8l-1.4-2.9c-0.2-0.3-0.3-0.5-0.5-0.6c-0.2-0.1-0.4-0.2-0.6-0.2h-0.2l0,3.7L-268.2,420.6
		L-268.2,420.6z M-265.6,415.4h1c0.1,0,0.3,0,0.6-0.1c0.2,0,0.3-0.1,0.4-0.3c0.1-0.2,0.2-0.3,0.2-0.5c0-0.3-0.1-0.5-0.2-0.6
		c-0.2-0.1-0.4-0.2-0.8-0.2h-1l0,1.6H-265.6z"/>
	<path class="st0" d="M-260.3,412.4h2.1l1,5.9h3.8l0.6,2.3h-6.5L-260.3,412.4z"/>
</g>
</svg>
