<?xml version="1.0" encoding="utf-8"?>
<!-- Generator: Adobe Illustrator 19.0.0, SVG Export Plug-In . SVG Version: 6.00 Build 0)  -->
<svg version="1.1" id="图层_1" xmlns="http://www.w3.org/2000/svg" xmlns:xlink="http://www.w3.org/1999/xlink" x="0px" y="0px"
	 viewBox="8 -6 32 32" style="enable-background:new 8 -6 32 32;" xml:space="preserve" width="50" height="50">
<style type="text/css">
	.st0{fill:#006B84;}
	.st1{fill:#FFFFFF;}
	.st2{fill:#0095D4;}
	.st3{enable-background:new    ;}
	.st4{fill:#9E2D2D;}
</style>
<path id="XMLID_7_" class="st0" d="M39.9,15.8C39.1,19.9,32.3,23,24,23S8.9,19.8,8.1,15.8H8V6.4c0-4.4,7.2-8,16-8s16,3.6,16,8
	L39.9,15.8L39.9,15.8L39.9,15.8L39.9,15.8z"/>
<path id="XMLID_6_" class="st1" d="M24-0.1c-8.1,0-14.7,3-14.7,6.7s6.6,6.7,14.7,6.7s14.7-3,14.7-6.7S32.1-0.1,24-0.1z"/>
<path id="XMLID_5_" class="st2" d="M38.8,9.3c-2.5,2.7-8.1,4.6-14.7,4.6S11.8,12,9.4,9.3l-0.1,5.8c0,3.3,6.6,6,14.7,6
	s14.7-2.7,14.7-6L38.8,9.3z"/>
<g class="st3">
	<path class="st4" d="M17.8,2h2.1l-0.4,4.5c0,0.5-0.2,1-0.3,1.5c-0.2,0.6-0.5,0.9-0.8,1.3s-0.8,0.6-1.1,0.8
		c-0.5,0.2-1.2,0.4-1.9,0.4c-0.4,0-0.8,0-1.3-0.1S13.2,10.2,13,10c-0.3-0.1-0.5-0.5-0.7-0.8s-0.2-0.7-0.2-1
		c-0.1-0.5,0.1-1.1,0.2-1.5l1.1-4.5h2.1l-0.9,4.6c-0.1,0.4-0.1,0.9,0.2,1.1c0.2,0.2,0.5,0.4,0.9,0.4s0.8-0.1,1-0.4
		c0.2-0.2,0.5-0.6,0.5-1.1L17.8,2L17.8,2z"/>
	<path class="st4" d="M20.8,10.2L21.3,2h3.6c0.7,0,1.2,0.1,1.5,0.2s0.6,0.3,0.9,0.6c0.3,0.4,0.4,0.7,0.5,1.2c0,0.5,0,0.8-0.2,1.1
		c-0.1,0.4-0.4,0.6-0.7,0.8c-0.2,0.1-0.5,0.2-0.8,0.3c0.3,0.1,0.5,0.2,0.7,0.3c0.1,0.1,0.2,0.2,0.4,0.4c0.2,0.2,0.3,0.4,0.4,0.5
		l1.4,2.7h-2.8l-1.4-2.9c-0.2-0.3-0.3-0.5-0.5-0.6s-0.4-0.2-0.6-0.2h-0.2v3.7L20.8,10.2L20.8,10.2z M23.4,5h1c0.1,0,0.3,0,0.6-0.1
		c0.2,0,0.3-0.1,0.4-0.3c0.1-0.2,0.2-0.3,0.2-0.5c0-0.3-0.1-0.5-0.2-0.6c-0.2-0.1-0.4-0.2-0.8-0.2h-1v1.6h-0.2V5z"/>
	<path class="st4" d="M28.7,2h2.1l1,5.9h3.8l0.6,2.3h-6.5L28.7,2z"/>
</g>
</svg>
