<?xml version="1.0" encoding="utf-8"?>
<!-- Generator: Adobe Illustrator 19.0.0, SVG Export Plug-In . SVG Version: 6.00 Build 0)  -->
<svg version="1.1" id="图层_1" xmlns="http://www.w3.org/2000/svg" xmlns:xlink="http://www.w3.org/1999/xlink" x="0px" y="0px"
	 viewBox="-281 404.9 32 32" style="enable-background:new -281 404.9 32 32;" xml:space="preserve" width="50" height="50">
<style type="text/css">
	.st0{fill:#3DB58D;}
	.st1{fill:#FFFFFF;}
	.st2{fill:#82E0BE;}
</style>
<g id="图层_2">
</g>
<g id="图层_1_1_">
	<g>
		<path class="st0" d="M-265,436.7c-0.1,0-0.3,0-0.4-0.1l-15.2-8.8c-0.3-0.2-0.4-0.4-0.4-0.7v-6c0-0.3,0.2-0.6,0.4-0.7l15.2-8.9
			c0.1-0.1,0.3-0.1,0.4-0.1s0.3,0,0.4,0.1l15.1,8.9c0.3,0.1,0.4,0.4,0.4,0.7v6c0,0.3-0.2,0.6-0.4,0.7l-15.2,8.8
			C-264.7,436.6-264.9,436.7-265,436.7z M-265,435.5l14.9-8.6v-5.6l-14.9-8.8l-14.9,8.8v5.6L-265,435.5z"/>
	</g>
	<path class="st1" d="M-280.2,421.1l15.2,8.9l15.2-8.9l-15.2-8.9L-280.2,421.1z"/>
	<g>
		<path class="st0" d="M-265,430.5c-0.1,0-0.3,0-0.4-0.1l-15.2-8.8c-0.3-0.2-0.4-0.4-0.4-0.7v-6c0-0.3,0.2-0.6,0.4-0.7l15.2-8.9
			c0.1-0.1,0.3-0.1,0.4-0.1s0.3,0,0.4,0.1l15.1,8.9c0.3,0.1,0.4,0.4,0.4,0.7v6c0,0.3-0.2,0.6-0.4,0.7l-15.2,8.8
			C-264.7,430.5-264.9,430.5-265,430.5z M-265,429.3l14.9-8.6v-5.6l-14.9-8.8l-14.9,8.8v5.6L-265,429.3z"/>
	</g>
	<polygon class="st2" points="-250.1,426.8 -265,435.7 -279.9,426.8 -279.9,421.7 -264.9,430.3 -250.1,421.4 	"/>
	<polygon class="st2" points="-250.1,420.7 -264.9,429.8 -279.9,421.2 -279.9,415.5 -265,424.1 -250,415.4 	"/>
	<path class="st1" d="M-279.9,415.1l14.9,8.7l14.9-8.7l-14.9-8.8L-279.9,415.1z"/>
	<path class="st0" d="M-265,424.1c-0.1,0-0.1,0-0.1,0l-15.2-8.8c-0.1-0.1-0.2-0.3-0.1-0.4c0.1-0.1,0.3-0.2,0.4-0.1l15,8.7l14.7-8.6
		c0.1-0.1,0.3,0,0.4,0.1s0,0.3-0.1,0.4l-14.9,8.7C-264.9,424.1-265,424.1-265,424.1L-265,424.1z"/>
	<path class="st0" d="M-274.8,426.9c-0.1,0-0.1,0-0.2,0l-0.7-0.4c-0.1-0.1-0.2-0.3-0.1-0.4c0.1-0.1,0.3-0.2,0.4-0.1l0.7,0.4
		c0.1,0.1,0.2,0.3,0.1,0.4C-274.6,426.8-274.7,426.9-274.8,426.9L-274.8,426.9z M-273.1,427.8c-0.1,0-0.1,0-0.2,0l-0.7-0.4
		c-0.1-0.1-0.2-0.3-0.1-0.4c0.1-0.1,0.3-0.2,0.4-0.1l0.7,0.4c0.1,0.1,0.2,0.3,0.1,0.4C-272.9,427.8-273,427.8-273.1,427.8
		L-273.1,427.8z M-271.5,428.8c-0.1,0-0.1,0-0.2,0l-0.7-0.4c-0.1-0.1-0.2-0.3-0.1-0.4c0.1-0.1,0.3-0.2,0.4-0.1l0.7,0.4
		c0.1,0.1,0.2,0.3,0.1,0.4C-271.3,428.7-271.4,428.8-271.5,428.8L-271.5,428.8z M-269.8,429.7c-0.1,0-0.1,0-0.2,0l-0.7-0.4
		c-0.1-0.1-0.2-0.3-0.1-0.4c0.1-0.1,0.3-0.2,0.4-0.1l0.7,0.4c0.1,0.1,0.2,0.3,0.1,0.4C-269.7,429.6-269.8,429.7-269.8,429.7
		L-269.8,429.7z M-268.2,430.6c-0.1,0-0.1,0-0.2,0l-0.7-0.4c-0.1-0.1-0.2-0.3-0.1-0.4c0.1-0.1,0.3-0.2,0.4-0.1l0.7,0.4
		c0.1,0.1,0.2,0.3,0.1,0.4C-268,430.6-268.1,430.6-268.2,430.6L-268.2,430.6z M-266.5,431.6c-0.1,0-0.1,0-0.2,0l-0.7-0.4
		c-0.1-0.1-0.2-0.3-0.1-0.4c0.1-0.1,0.3-0.2,0.4-0.1l0.7,0.4c0.1,0.1,0.2,0.3,0.1,0.4C-266.4,431.5-266.4,431.6-266.5,431.6
		L-266.5,431.6z M-274.8,428.8c-0.1,0-0.1,0-0.2,0l-0.7-0.4c-0.1-0.1-0.2-0.3-0.1-0.4c0.1-0.1,0.3-0.2,0.4-0.1l0.7,0.4
		c0.1,0.1,0.2,0.3,0.1,0.4C-274.6,428.8-274.7,428.8-274.8,428.8L-274.8,428.8z M-273.1,429.8c-0.1,0-0.1,0-0.2,0l-0.7-0.4
		c-0.1-0.1-0.2-0.3-0.1-0.4c0.1-0.1,0.3-0.2,0.4-0.1l0.7,0.4c0.1,0.1,0.2,0.3,0.1,0.4C-272.9,429.7-273,429.8-273.1,429.8
		L-273.1,429.8z M-271.5,430.7c-0.1,0-0.1,0-0.2,0l-0.7-0.4c-0.1-0.1-0.2-0.3-0.1-0.4c0.1-0.1,0.3-0.2,0.4-0.1l0.7,0.4
		c0.1,0.1,0.2,0.3,0.1,0.4C-271.3,430.7-271.4,430.7-271.5,430.7L-271.5,430.7z"/>
	<path class="st0" d="M-254.8,426.9c-0.1,0-0.2-0.1-0.2-0.1c-0.1-0.1,0-0.3,0.1-0.4l0.7-0.4c0.1-0.1,0.3,0,0.4,0.1
		c0.1,0.1,0,0.3-0.1,0.4l-0.7,0.4C-254.7,426.9-254.7,426.9-254.8,426.9L-254.8,426.9z M-256.4,427.8c-0.1,0-0.2,0-0.2-0.1
		c-0.1-0.1,0-0.3,0.1-0.4l0.7-0.4c0.1-0.1,0.3,0,0.4,0.1c0.1,0.1,0,0.3-0.1,0.4l-0.7,0.4C-256.3,427.8-256.4,427.8-256.4,427.8
		L-256.4,427.8z M-258.1,428.8c-0.1,0-0.2,0-0.2-0.1c-0.1-0.1,0-0.3,0.1-0.4l0.7-0.4c0.1-0.1,0.3,0,0.4,0.1c0.1,0.1,0,0.3-0.1,0.4
		l-0.7,0.4C-258,428.7-258,428.8-258.1,428.8L-258.1,428.8z M-259.7,429.7c-0.1,0-0.2,0-0.2-0.1c-0.1-0.1,0-0.3,0.1-0.4l0.7-0.4
		c0.1-0.1,0.3,0,0.4,0.1c0.1,0.1,0,0.3-0.1,0.4l-0.7,0.4C-259.6,429.7-259.7,429.7-259.7,429.7L-259.7,429.7z M-261.4,430.6
		c-0.1,0-0.2,0-0.2-0.1c-0.1-0.1,0-0.3,0.1-0.4l0.7-0.4c0.1-0.1,0.3,0,0.4,0.1c0.1,0.1,0,0.3-0.1,0.4l-0.7,0.4
		C-261.3,430.6-261.3,430.6-261.4,430.6L-261.4,430.6z M-263,431.6c-0.1,0-0.2,0-0.2-0.1c-0.1-0.1,0-0.3,0.1-0.4l0.7-0.4
		c0.1-0.1,0.3,0,0.4,0.1c0.1,0.1,0,0.3-0.1,0.4l-0.7,0.4C-262.9,431.5-263,431.6-263,431.6L-263,431.6z M-254.8,428.8
		c-0.1,0-0.2,0-0.2-0.1c-0.1-0.1,0-0.3,0.1-0.4l0.7-0.4c0.1-0.1,0.3,0,0.4,0.1c0.1,0.1,0,0.3-0.1,0.4l-0.7,0.4
		C-254.7,428.8-254.7,428.8-254.8,428.8L-254.8,428.8z M-256.4,429.8c-0.1,0-0.2-0.1-0.2-0.1c-0.1-0.1,0-0.3,0.1-0.4l0.7-0.4
		c0.1-0.1,0.3,0,0.4,0.1c0.1,0.1,0,0.3-0.1,0.4l-0.7,0.4C-256.3,429.8-256.4,429.8-256.4,429.8L-256.4,429.8z M-258.1,430.7
		c-0.1,0-0.2,0-0.2-0.1c-0.1-0.1,0-0.3,0.1-0.4l0.7-0.4c0.1-0.1,0.3,0,0.4,0.1c0.1,0.1,0,0.3-0.1,0.4l-0.7,0.4
		C-258,430.7-258,430.7-258.1,430.7L-258.1,430.7z"/>
	<g id="XMLID_10_">
		<g>
			<g id="XMLID_18_">
				<path class="st0" d="M-270.8,418.7c-0.7,0-1.3-0.2-1.5-0.6c-0.2-0.3-0.3-0.7-0.1-1.2l1.6-4.5c0.2-0.5,1.1-1,2-1h1.1l0.1-0.8
					c0.1-0.4,0.7-0.7,1.6-0.7h4.6c0.9,0,1.6,0.4,1.7,0.8l1.3,3.6c0.1,0.3,0.1,0.5-0.1,0.7c-0.2,0.4-0.7,0.5-1.4,0.5h-1.5l0.2,1.3
					c0.1,0.4,0,0.8-0.3,1.1c-0.4,0.4-1,0.7-1.7,0.7L-270.8,418.7L-270.8,418.7L-270.8,418.7z M-269.1,411.7c-0.4,0-0.7,0.2-0.7,0.5
					l-1.2,4.4c0,0.2,0,0.3,0.1,0.5c0.1,0.2,0.4,0.3,0.6,0.3h7c0.2,0,0.5-0.1,0.6-0.3c0.1-0.1,0.2-0.3,0.2-0.5l-0.2-2h2.4
					c0.2,0,0.4-0.1,0.6-0.3c0.1-0.1,0.1-0.3,0.1-0.4l-0.9-3.5c-0.1-0.3-0.3-0.4-0.6-0.4h-4.9c-0.2,0-0.5,0-0.6,0.2
					c-0.1,0.1-0.1,0.2-0.1,0.3l-0.1,1.1C-266.9,411.7-269.1,411.7-269.1,411.7z"/>
			</g>
			<g id="XMLID_17_">
				<polygon class="st0" points="-268.6,415.5 -268.1,413.2 -265,413.2 -265,411.4 -262.2,411.4 -261.9,413.1 -264.9,413.1 
					-264.9,415.5 				"/>
			</g>
		</g>
	</g>
</g>
</svg>
