<?xml version="1.0" encoding="utf-8"?>
<!-- Generator: Adobe Illustrator 19.0.0, SVG Export Plug-In . SVG Version: 6.00 Build 0)  -->
<svg version="1.1" id="图层_1" xmlns="http://www.w3.org/2000/svg" xmlns:xlink="http://www.w3.org/1999/xlink" x="0px" y="0px"
	 viewBox="-281 404.9 32 32" style="enable-background:new -281 404.9 32 32;" xml:space="preserve" width="50" height="50">
<style type="text/css">
	.st0{fill:#82E0BE;}
	.st1{fill:#FFFFFF;}
	.st2{fill:#3DB58D;}
</style>
<g id="图层_2">
</g>
<polygon class="st0" points="-265.1,435.3 -277.6,428.4 -277.6,413.7 -264.8,406.5 -252.2,413.7 -252.5,428.1 "/>
<polygon class="st0" points="-265.1,432.9 -275.5,426.8 -275.3,415.3 -264.9,408.9 -254.6,414.9 -254.4,426.8 "/>
<path class="st1" d="M-266,414.2l-3.1-1.8v-1.1l4.1-2.4l4,2.4v1.1l-3,1.8l-0.1,1.1l-0.9-0.6l-1,0.6V414.2z M-259.6,421.4v-3.6
	l-3.1-1.8v-1.1l4-2.3l4.1,2.3v4.7l-4.1,2.3L-259.6,421.4L-259.6,421.4z M-269.1,430.5v-4.6l0.9-0.6l3.1,1.8l3.2-1.8l0.9,0.5v4.7
	l-4.1,2.4L-269.1,430.5L-269.1,430.5z M-259.6,428.7V425l-1-0.6l1-0.5v-1.1l0.9,0.6l3.1-1.8l1,0.5v4.7l-4.1,2.3L-259.6,428.7
	L-259.6,428.7z M-269.1,423.3v-4.7l4.1-2.3l4,2.3v4.7l-4.1,2.3L-269.1,423.3L-269.1,423.3z M-275.5,426.8l0.1-4.7l0.9-0.5l3.1,1.8
	l1-0.6v1.1l1,0.6l-1,0.5v3.6l-1,0.5L-275.5,426.8z M-275.5,419.6l0.1-4.7l4.1-2.3l4,2.3v1.1l-3.1,1.8v3.5l-1,0.6L-275.5,419.6
	L-275.5,419.6z"/>
<polygon class="st2" points="-254.1,430.7 -254.9,429.5 -252.5,428.1 -252.5,413.6 -259.7,409.4 -259,408.2 -251.1,412.8 
	-251.1,428.9 "/>
<polygon class="st2" points="-277.6,425.4 -279,425.4 -279,412.9 -264.8,404.9 -259,408.2 -259.7,409.4 -264.8,406.5 -277.6,413.7 
	-277.6,422.3 "/>
<polygon class="st2" points="-265.1,436.9 -279,429 -279,425 -277.6,425 -277.6,428.2 -265.1,435.3 -254.9,429.5 -254.1,430.7 "/>
<rect x="-265.3" y="420.9" class="st2" width="0.4" height="15"/>
<rect x="-271.8" y="409.9" transform="matrix(0.4967 -0.8679 0.8679 0.4967 -498.84 -25.656)" class="st2" width="0.4" height="14.8"/>
<rect x="-258.9" y="409.9" transform="matrix(-0.5095 -0.8605 0.8605 -0.5095 -749.5379 407.2777)" class="st2" width="0.4" height="14.8"/>
<rect x="-269.3" y="403.8" transform="matrix(-0.5095 -0.8605 0.8605 -0.5095 -759.9756 389.1237)" class="st2" width="0.4" height="14.8"/>
<rect x="-258.9" y="422" transform="matrix(-0.5095 -0.8605 0.8605 -0.5095 -759.9362 425.5198)" class="st2" width="0.4" height="14.8"/>
<rect x="-275.8" y="415" class="st2" width="0.4" height="15"/>
<rect x="-254.6" y="414.7" class="st2" width="0.4" height="15"/>
<rect x="-271.8" y="422" transform="matrix(0.4967 -0.8679 0.8679 0.4967 -509.3289 -19.5733)" class="st2" width="0.4" height="14.8"/>
<rect x="-260.9" y="403.8" transform="matrix(0.4967 -0.8679 0.8679 0.4967 -488.0585 -19.2663)" class="st2" width="0.4" height="14.8"/>
</svg>
