<?xml version="1.0" encoding="utf-8"?>
<!-- Generator: Adobe Illustrator 19.0.0, SVG Export Plug-In . SVG Version: 6.00 Build 0)  -->
<svg version="1.1" id="图层_1" xmlns="http://www.w3.org/2000/svg" xmlns:xlink="http://www.w3.org/1999/xlink" x="0px" y="0px"
	 viewBox="-281 404.9 32 32" style="enable-background:new -281 404.9 32 32;" xml:space="preserve" width="50" height="50">
<style type="text/css">
	.st0{fill:#82E0BE;}
	.st1{fill:#3DB58D;}
	.st2{fill:#FFFFFF;}
</style>
<g id="图层_2">
</g>
<path class="st0" d="M-265,432.7c-0.1,0-0.1,0-0.1,0l-15.2-8.8c-0.1-0.1-0.1-0.1-0.1-0.3v-6c0-0.1,0.1-0.2,0.1-0.3l15.2-9
	c0,0,0.1,0,0.1,0s0.1,0,0.1,0l15.2,9c0.1,0.1,0.1,0.1,0.1,0.3v6c0,0.1-0.1,0.2-0.1,0.3l-15.2,8.8C-264.9,432.7-265,432.7-265,432.7
	L-265,432.7z"/>
<g>
	<path class="st1" d="M-265,433.2c-0.1,0-0.3,0-0.4-0.1l-15.2-8.8c-0.3-0.1-0.4-0.4-0.4-0.7v-6c0-0.3,0.2-0.5,0.4-0.7l15.2-9
		c0.1-0.1,0.3-0.1,0.4-0.1s0.3,0,0.4,0.1l15.2,9c0.2,0.1,0.4,0.4,0.4,0.7v6c0,0.3-0.2,0.5-0.4,0.7l-2.5,1.4l-12.7,7.4
		C-264.7,433.1-264.9,433.2-265,433.2z M-265,432.1l15-8.7v-5.7l-15-8.8l-15,8.8v5.7L-265,432.1z"/>
</g>
<path class="st2" d="M-280,417.7l14.9,8.7l15-8.7l-15-8.8L-280,417.7z"/>
<path class="st1" d="M-265,426.8c-0.1,0-0.1,0-0.1,0l-14.9-8.7c-0.1-0.1-0.2-0.3-0.1-0.4c0.1-0.1,0.3-0.2,0.4-0.1l14.8,8.6l14.8-8.6
	c0.1-0.1,0.3,0,0.4,0.1c0.1,0.1,0,0.3-0.1,0.4l-14.9,8.7C-264.9,426.8-265,426.8-265,426.8z"/>
<path class="st1" d="M-265.3,426.5l0.5,0.1l0.1,6.1l-0.6-0.1C-265.3,432.5-265.3,426.5-265.3,426.5z"/>
<g id="XMLID_707_">
	<path id="XMLID_708_" class="st1" d="M-267.7,415.4h5.5l-2.7,1.6L-267.7,415.4 M-266.3,420.5c-0.3,0.2-0.4,0.4-0.4,0.7
		c0,0.6,0.8,1.1,1.8,1.1c1.1,0,1.8-0.5,1.8-1.1c0-0.3-0.2-0.5-0.5-0.7l1.3-0.7c0.6,0.4,1.1,1,1.1,1.5c0,1.1-1.7,2.1-3.7,2.1
		c-2,0-3.7-1-3.7-2.1c0-0.5,0.4-1.1,1.1-1.5l0,0l6.5-3.8l0,0c0.6-0.4,1.6-0.6,2.6-0.6c2,0,3.7,1,3.7,2.1s-1.7,2.1-3.7,2.1
		c-1.1,0-1.9-0.2-2.6-0.6l1.3-0.7c0.3,0.2,0.7,0.3,1.3,0.3c1.1,0,1.8-0.5,1.8-1.1c0-0.6-0.8-1.1-1.8-1.1c-0.5,0-1,0.1-1.3,0.3
		L-266.3,420.5 M-270,416.8c-0.3-0.2-0.7-0.3-1.3-0.3c-1.1,0-1.8,0.5-1.8,1.1c0,0.6,0.8,1.1,1.8,1.1c0.5,0,1-0.1,1.3-0.3l1.3,0.7
		c-0.6,0.4-1.6,0.6-2.6,0.6c-2,0-3.7-1-3.7-2.1s1.7-2.1,3.7-2.1c1.1,0,1.9,0.2,2.6,0.6l0,0l2.5,1.5l-1.3,0.7L-270,416.8L-270,416.8z
		 M-267.7,413.6h5.5l-2.7,1.6L-267.7,413.6 M-267.7,411.7h5.5l-2.7,1.6L-267.7,411.7"/>
</g>
</svg>
