<?xml version="1.0" encoding="utf-8"?>
<!-- Generator: Adobe Illustrator 19.0.0, SVG Export Plug-In . SVG Version: 6.00 Build 0)  -->
<svg version="1.1" id="图层_1" xmlns="http://www.w3.org/2000/svg" xmlns:xlink="http://www.w3.org/1999/xlink" x="0px" y="0px"
	 viewBox="-281 404.9 32 32" style="enable-background:new -281 404.9 32 32;" xml:space="preserve" width="50" height="50">
<style type="text/css">
	.st0{fill:#82E0BE;}
	.st1{fill:#3DB58D;}
	.st2{fill:#FFFFFF;}
	.st3{fill:#B5D6FB;}
</style>
<g id="图层_2">
</g>
<path class="st0" d="M-272.4,436.5c0,0-0.1,0-0.1,0l-8-4.3c-0.1,0-0.1-0.1-0.1-0.2v-17.6c0-0.1,0.1-0.2,0.1-0.2l15.1-8.9
	c0,0,0.1,0,0.1,0c0,0,0.1,0,0.1,0l8.1,4.4c0.1,0,0.1,0.1,0.1,0.2v17.8c0,0.1-0.1,0.2-0.1,0.2l-15.2,8.5
	C-272.3,436.5-272.4,436.5-272.4,436.5z"/>
<g>
	<path class="st1" d="M-272.4,436.9c-0.1,0-0.2,0-0.3-0.1l-8-4.3c-0.2-0.1-0.3-0.3-0.3-0.6v-17.6c0-0.2,0.1-0.4,0.3-0.5l15.3-8.9
		c0.1-0.1,0.2-0.1,0.3-0.1c0.1,0,0.2,0,0.3,0.1l8.1,4.4c0.2,0.1,0.3,0.3,0.3,0.6v17.8c0,0.2-0.1,0.4-0.3,0.6l-15.4,8.5
		C-272.2,436.9-272.3,436.9-272.4,436.9z M-272.4,436l15.2-8.4v-17.6l-7.9-4.3l-4.5,2.6l-10.6,6.2v17.4L-272.4,436z"/>
</g>
<path class="st2" d="M-265.1,405.7l-14.9,8.7l7.8,4.2l15-8.6L-265.1,405.7z"/>
<path class="st3" d="M-272.4,435.2v-16.6"/>
<path class="st1" d="M-272.4,436.4c-0.1,0-0.2-0.1-0.2-0.2v-17.4c0-0.1,0.1-0.2,0.2-0.2c0.1,0,0.2,0.1,0.2,0.2v17.4
	C-272.2,436.3-272.3,436.4-272.4,436.4L-272.4,436.4z"/>
<path class="st3" d="M-262.9,413.3l-9.4,5.3"/>
<path class="st1" d="M-272.4,418.8c-0.1,0-0.2,0-0.2-0.1c-0.1-0.1,0-0.2,0.1-0.3l15.1-8.6c0.1-0.1,0.3,0,0.3,0.1
	c0.1,0.1,0,0.2-0.1,0.3l-15.1,8.6C-272.3,418.8-272.4,418.8-272.4,418.8z"/>
<path class="st3" d="M-279.4,414.9l7,3.7"/>
<path class="st1" d="M-272.4,418.8c0,0-0.1,0-0.1,0l-7.7-4c-0.1-0.1-0.2-0.2-0.1-0.3c0.1-0.1,0.2-0.2,0.3-0.1l7.7,4
	c0.1,0.1,0.2,0.2,0.1,0.3C-272.2,418.8-272.3,418.8-272.4,418.8z"/>
<path class="st3" d="M-279.5,429.6l5.9,3.2"/>
<path class="st1" d="M-273.6,433c0,0-0.1,0-0.1,0l-5.9-3.2c-0.1-0.1-0.2-0.2-0.1-0.3c0.1-0.1,0.2-0.2,0.3-0.1l5.9,3.2
	c0.1,0.1,0.2,0.2,0.1,0.3C-273.4,433-273.5,433-273.6,433L-273.6,433z"/>
<path class="st3" d="M-279.5,428l5.9,3.2"/>
<path class="st1" d="M-273.6,431.4c0,0-0.1,0-0.1,0l-5.9-3.2c-0.1-0.1-0.2-0.2-0.1-0.3c0.1-0.1,0.2-0.2,0.3-0.1l5.9,3.2
	c0.1,0.1,0.2,0.2,0.1,0.3C-273.4,431.4-273.5,431.4-273.6,431.4L-273.6,431.4z"/>
<path class="st3" d="M-279.5,426.4l5.9,3.2"/>
<path class="st1" d="M-273.6,429.8c0,0-0.1,0-0.1,0l-5.9-3.2c-0.1-0.1-0.2-0.2-0.1-0.3c0.1-0.1,0.2-0.2,0.3-0.1l5.9,3.2
	c0.1,0.1,0.2,0.2,0.1,0.3C-273.4,429.8-273.5,429.8-273.6,429.8z"/>
<path class="st3" d="M-280.7,423.1l8.3,4.4"/>
<path class="st1" d="M-280.8,423.3l0.2-0.4l8.3,4.4l-0.2,0.4L-280.8,423.3z"/>
<path class="st3" d="M-275,419.6l1.3,0.7"/>
<g>
	<path class="st1" d="M-273.9,420.6c-0.1,0-0.1,0-0.2,0l-1.3-0.7c-0.1-0.1-0.2-0.1-0.2-0.2c0-0.1,0-0.2,0-0.3
		c0.1-0.1,0.2-0.2,0.4-0.2c0.1,0,0.1,0,0.2,0l1.3,0.7c0.1,0.1,0.2,0.1,0.2,0.2c0,0.1,0,0.2,0,0.3
		C-273.6,420.5-273.7,420.6-273.9,420.6z"/>
</g>
<path class="st2" d="M-253.6,419.7L-253.6,419.7c-0.1-0.1-0.2-0.1-0.3-0.1c0,0,0,0,0,0c0,0,0,0-0.1,0c0,0-0.1,0-0.1,0
	c0,0-0.1,0-0.1,0c0,0-0.1,0-0.1,0c0,0,0,0,0,0c-0.1,0-0.2,0-0.3,0h-0.1c-0.1,0-0.2,0-0.2,0c0,0,0,0-0.1,0l-0.1,0c0,0-0.1,0-0.1,0
	c0,0-0.1,0-0.1,0c-0.1,0-0.1,0-0.2,0c0,0-0.1,0-0.1,0c0,0-0.1,0-0.1,0c-0.1,0-0.2,0.1-0.4,0.1c0,0-0.1,0-0.1,0c0,0,0,0-0.1,0
	c-0.2,0.1-0.4,0.2-0.7,0.3c-0.2,0.1-0.3,0.2-0.5,0.3l-0.1,0.1c-0.1,0.1-0.2,0.2-0.3,0.2c-0.1,0-0.1,0.1-0.2,0.1
	c-0.1,0.1-0.2,0.2-0.3,0.3c0,0-0.1,0.1-0.2,0.2c0,0-0.1,0.1-0.1,0.1c0,0-0.1,0.1-0.1,0.1c-0.1,0.1-0.2,0.2-0.3,0.4
	c0,0-0.1,0.1-0.1,0.1c0,0,0,0.1-0.1,0.1c-0.1,0.1-0.1,0.2-0.2,0.2c0,0-0.1,0.1-0.1,0.1c0,0-0.1,0.1-0.1,0.1c0,0.1-0.1,0.1-0.1,0.2
	c0,0-0.1,0.1-0.1,0.1c0,0.1-0.1,0.1-0.1,0.2c0,0-0.1,0.1-0.1,0.1c0,0,0,0,0,0.1c-0.1,0.1-0.2,0.3-0.3,0.4c0,0,0,0,0,0
	c0,0,0,0.1,0,0.1c-0.1,0.1-0.1,0.2-0.2,0.3c0,0,0,0.1-0.1,0.1c0,0,0,0.1-0.1,0.1c0,0,0,0.1-0.1,0.1c0,0.1-0.1,0.2-0.2,0.4
	c0,0,0,0,0,0.1v0c-0.1,0.1-0.1,0.3-0.2,0.5l0,0.1c0,0,0,0.1-0.1,0.2c0,0.1,0,0.1-0.1,0.2c0,0.1,0,0.1,0,0.2c0,0.1,0,0.1-0.1,0.2
	c0,0,0,0.1,0,0.1c0,0.1,0,0.1,0,0.2c0,0.1,0,0.2-0.1,0.3c0,0,0,0.1,0,0.1c0,0.1,0,0.1,0,0.2c0,0.1,0,0.3-0.1,0.4c0,0,0,0.1,0,0.1
	s0,0.1,0,0.1c0,0.3-0.1,0.6,0,0.9c0,1.7,0.6,2.8,1.5,3.4l2.7,1.6c-0.9-0.5-1.5-1.7-1.5-3.4c0-0.3,0-0.6,0-0.9c0-0.1,0-0.1,0-0.2
	c0-0.1,0-0.3,0.1-0.4c0-0.1,0-0.2,0-0.3s0-0.2,0.1-0.3c0-0.1,0.1-0.2,0.1-0.4c0-0.1,0-0.1,0.1-0.2c0-0.1,0.1-0.3,0.1-0.4
	c0,0,0-0.1,0.1-0.2c0.1-0.2,0.1-0.4,0.2-0.6c0,0,0,0,0-0.1c0.1-0.2,0.1-0.3,0.2-0.5c0,0,0-0.1,0.1-0.1c0.1-0.1,0.2-0.3,0.2-0.5
	c0,0,0-0.1,0-0.1c0.1-0.2,0.2-0.4,0.3-0.5c0,0,0.1-0.1,0.1-0.1c0.1-0.1,0.2-0.2,0.3-0.4c0-0.1,0.1-0.1,0.1-0.2
	c0.1-0.1,0.1-0.2,0.2-0.3l0.2-0.2c0.1-0.1,0.1-0.1,0.2-0.2c0.1-0.1,0.2-0.2,0.3-0.4c0.1-0.1,0.1-0.1,0.2-0.2c0,0,0.1-0.1,0.2-0.2
	c0.1-0.1,0.2-0.2,0.3-0.3c0,0,0.1-0.1,0.2-0.1c0.1-0.1,0.2-0.2,0.3-0.2l0.1-0.1c0.2-0.1,0.3-0.2,0.5-0.3c0.2-0.1,0.4-0.2,0.7-0.3
	c0.1,0,0.1,0,0.2-0.1c0.1,0,0.2-0.1,0.4-0.1c0.1,0,0.1,0,0.2-0.1c0.1,0,0.1,0,0.2,0c0.1,0,0.2,0,0.3,0c0,0,0.1,0,0.1,0
	c0.1,0,0.2,0,0.3,0h0.1c0.1,0,0.3,0,0.4,0c0,0,0.1,0,0.1,0c0.1,0,0.2,0,0.3,0.1c0,0,0,0,0.1,0c0.1,0,0.2,0.1,0.3,0.2L-253.6,419.7
	L-253.6,419.7z"/>
<path class="st1" d="M-258.5,434.5C-258.5,434.5-258.5,434.5-258.5,434.5l-2.7-1.6c-1.1-0.6-1.7-1.9-1.7-3.7c0-0.3,0-0.6,0.1-1
	c0,0,0-0.1,0-0.1l0-0.1c0-0.2,0-0.3,0.1-0.5v-0.1c0,0,0-0.1,0-0.1l0-0.1c0-0.1,0-0.2,0.1-0.2l0.4-1.3c0.1-0.2,0.1-0.3,0.2-0.5l0-0.1
	c0.1-0.1,0.1-0.3,0.2-0.4l0.2-0.5c0-0.1,0.1-0.2,0.2-0.3l0.3,0.1l-0.3-0.2l0-0.1c0.1-0.2,0.2-0.3,0.3-0.5l0.2-0.3
	c0-0.1,0.1-0.1,0.1-0.2l0.5-0.6c0.1-0.1,0.1-0.2,0.2-0.2l0.2-0.2c0.1-0.2,0.3-0.3,0.4-0.4l0.4-0.4c0.1-0.1,0.2-0.2,0.3-0.3l0.2-0.1
	c0.1-0.1,0.2-0.2,0.3-0.3l0.2-0.1c0.2-0.1,0.3-0.2,0.5-0.3c0.2-0.1,0.4-0.2,0.7-0.3c0,0,0,0,0.1,0c0,0,0.1,0,0.1,0
	c0.2-0.1,0.3-0.1,0.4-0.1c0.1,0,0.1,0,0.1,0l0.1,0c0.1,0,0.2,0,0.3,0c0.1,0,0.1,0,0.1,0l0.1,0c0.1,0,0.2,0,0.2,0h0.1
	c0.1,0,0.2,0,0.3,0l0.1,0.3l0-0.3c0.1,0,0.3,0,0.4,0l0.1,0v0.3l0.1-0.3c0,0,0.1,0,0.1,0c0,0,0.1,0,0.1,0l0.1,0
	c0.1,0.1,0.3,0.1,0.3,0.2l0,0l2.7,1.6l-0.3,0.6c-0.1,0-0.2-0.1-0.3-0.1v0l-0.1,0l0,0c-0.1,0-0.2,0-0.2-0.1v-0.1l0,0l0,0.1
	c-0.1,0-0.2,0-0.3,0l0-0.3v0.3c-0.1,0-0.2,0-0.3,0l-0.1,0c-0.1,0-0.2,0-0.3,0s-0.1,0-0.2,0l-0.2,0c-0.1,0-0.2,0.1-0.3,0.1
	c-0.1,0-0.1,0-0.2,0.1c-0.2,0.1-0.4,0.2-0.6,0.3c-0.2,0.1-0.3,0.2-0.5,0.3l-0.1,0.1c-0.1,0.1-0.2,0.1-0.3,0.2l-0.1,0.1
	c-0.1,0.1-0.2,0.2-0.3,0.3l-0.3,0.3c-0.1,0.1-0.3,0.3-0.4,0.4c-0.1,0.1-0.1,0.1-0.2,0.2c-0.1,0.1-0.1,0.1-0.2,0.2s-0.1,0.2-0.2,0.3
	l-0.1,0.2c-0.1,0.1-0.2,0.2-0.2,0.4l-0.1,0.1c-0.1,0.2-0.2,0.3-0.3,0.5l-0.3-0.1l0.3,0.2c-0.1,0.1-0.2,0.3-0.2,0.5l-0.1,0.1
	c-0.1,0.2-0.1,0.3-0.2,0.5l-0.3-0.1l0.3,0.1c-0.1,0.2-0.1,0.4-0.2,0.6l0,0.1c-0.1,0.2-0.1,0.3-0.1,0.5l-0.1,0.2
	c0,0.1-0.1,0.2-0.1,0.4l-0.1,0.2c0,0.1,0,0.1,0,0.2l0,0.1c0,0.1,0,0.3-0.1,0.4l0,0.2c0,0.4-0.1,0.7-0.1,0.9c0,1.5,0.5,2.6,1.4,3.1
	l0,0L-258.5,434.5L-258.5,434.5z M-261.9,425.9l0.3,0.1l-0.4,1.4l-0.3,0l0.3,0.1l0,0.2c0,0.1,0,0.3-0.1,0.4v0.1h-0.3l0.3,0.1v0.1
	c0,0.3,0,0.6,0,0.9c0,1.5,0.5,2.6,1.4,3.1l1.1,0.6c-0.2-0.6-0.4-1.3-0.4-2.1c0-0.3,0-0.6,0.1-1l0-0.2c0-0.1,0-0.3,0.1-0.4l0-0.1
	c0-0.1,0-0.1,0-0.2l0.1-0.3c0-0.1,0.1-0.3,0.1-0.4l0.1-0.2c0-0.1,0.1-0.3,0.1-0.4l0.1-0.2c0.1-0.2,0.1-0.4,0.2-0.6l0-0.1
	c0.1-0.2,0.1-0.3,0.2-0.5l0.1-0.2c0.1-0.2,0.2-0.3,0.3-0.5l0-0.1c0.1-0.2,0.2-0.4,0.3-0.5l0.1-0.1c0.1-0.2,0.2-0.3,0.3-0.4l0.1-0.2
	c0.1-0.1,0.2-0.2,0.2-0.3c0.1-0.1,0.1-0.2,0.2-0.2c0-0.1,0.1-0.1,0.2-0.2c0.1-0.1,0.3-0.3,0.4-0.4c0.1-0.1,0.2-0.2,0.2-0.2l0.2-0.2
	c0.1-0.1,0.2-0.2,0.3-0.3l0.2-0.1c0.1-0.1,0.2-0.2,0.3-0.3l0.2-0.1c0.2-0.1,0.3-0.2,0.5-0.3c0.2-0.1,0.4-0.2,0.7-0.3
	c0.1,0,0.1,0,0.2-0.1c0.2-0.1,0.3-0.1,0.4-0.1c0.1,0,0.2,0,0.2-0.1c0.1,0,0.1,0,0.2,0c0.1,0,0.2,0,0.3,0l0,0l-1.1-0.6
	c-0.1,0-0.2-0.1-0.2-0.1l-0.5-0.1c-0.1,0-0.2,0-0.3,0l-0.1-0.3v0.3c-0.1,0-0.1,0-0.2,0l-0.1-0.3l0,0.3l-0.4,0c-0.1,0-0.1,0-0.2,0
	l-0.2,0c-0.1,0-0.2,0.1-0.3,0.1l-0.2,0.1c-0.2,0.1-0.4,0.2-0.6,0.3c-0.1,0.1-0.3,0.2-0.5,0.3l-0.1,0.1c-0.1,0.1-0.2,0.1-0.3,0.2
	l-0.1,0.1c-0.1,0.1-0.2,0.2-0.3,0.3l-0.4,0.4c-0.1,0.1-0.2,0.2-0.3,0.4l-0.2,0.2c-0.1,0.1-0.1,0.1-0.2,0.2l-0.7,1l-0.3-0.1l0.3,0.2
	c-0.1,0.1-0.2,0.3-0.3,0.4l-0.3-0.1l0.3,0.2l0,0.1c0,0.1-0.1,0.2-0.1,0.3l-0.2,0.4c0,0.1-0.1,0.2-0.2,0.4l-0.3-0.1l0.3,0.1
	c-0.1,0.2-0.1,0.3-0.2,0.5L-261.9,425.9L-261.9,425.9z"/>
<path class="st0" d="M-249.3,424.7c0,3.3-2.4,7.4-5.2,9.1s-5.3,0.3-5.3-3c0-3.3,2.4-7.4,5.2-9.1C-251.7,420-249.3,421.4-249.3,424.7
	L-249.3,424.7z"/>
<path class="st1" d="M-256.9,434.9c-0.6,0-1.1-0.1-1.6-0.4c-1.1-0.6-1.7-1.9-1.7-3.7c0-3.4,2.4-7.7,5.4-9.4c1.5-0.9,3-1,4.1-0.4
	c1.1,0.6,1.7,1.9,1.7,3.7c0,3.4-2.4,7.7-5.4,9.4C-255.3,434.6-256.2,434.9-256.9,434.9L-256.9,434.9z M-252.2,421.3
	c-0.7,0-1.4,0.2-2.2,0.7c-2.8,1.6-5.1,5.6-5.1,8.8c0,1.5,0.5,2.6,1.4,3.1c0.9,0.5,2.1,0.4,3.4-0.4c2.8-1.6,5.1-5.6,5.1-8.8
	c0-1.5-0.5-2.6-1.4-3.1C-251.4,421.4-251.8,421.3-252.2,421.3L-252.2,421.3z"/>
<path class="st2" d="M-254.1,423.9c0,0-0.7,0.3-1.8,1.7c0,0-1,1.5-1.1,2.2C-257.1,427.8-256,425.8-254.1,423.9z M-251.2,423.8
	c0.2-0.3,0.2-0.9,0.2-0.9c0-0.7-0.2-0.8-0.2-0.8c-0.5-0.2-1.7,0.9-1.7,0.9c-1.6,1.4-3,3.4-3,3.4c-2.4,3.3-2.6,5.3-2.6,5.3
	c-0.1,1.4,1.2,0.6,1.2,0.6c1.3-0.8,1.9-1.6,1.9-1.7c0.8-0.1,1.5-0.6,1.5-0.6c2.5-1.8,3-4,3-4l-1.6,1c-0.4,1.1-1.5,1.7-1.5,1.7
	c-1.2,0.5-1.2-0.7-1.2-0.7l4.5-2.7l0,0C-250.8,424.5-250.9,424-251.2,423.8z M-252.6,423.4c-1.7,1.9-2.1,2.6-2.1,2.6
	c0.4-0.6,1-0.9,1-0.9c1.3-0.6,1.2,0.4,1.2,0.4l-2.8,1.7c0.1-0.5,0.3-0.8,0.3-0.9c-1.2,1.7-2,3.7-2,3.7c0.2,0.5,0.9,0.7,1.4,0.6
	c-0.4,0.5-0.8,0.8-0.8,0.8c-1.1,0.9-1.1,0-1.1,0c0-0.9,1-2.8,1-2.8c0.8-1.6,2-3.1,2-3.1C-253.5,424.2-252.6,423.3-252.6,423.4
	c0.8-1,1.3-0.9,1.3-0.9l0,0l0,0c0.5,0.1,0.1,1.1,0.1,1.3C-251.8,423.1-252.6,423.4-252.6,423.4z"/>
</svg>
