<?xml version="1.0" encoding="UTF-8"?>
<svg width="16px" height="16px" viewBox="0 0 16 16" version="1.1" xmlns="http://www.w3.org/2000/svg" xmlns:xlink="http://www.w3.org/1999/xlink">
    <title>icon_add</title>
    <g id="Page-1" stroke="none" stroke-width="1" fill="none" fill-rule="evenodd">
        <g id="3-1-2-2-边缘端/边缘集群/边缘节点/详情-常规" transform="translate(-232.000000, -189.000000)" fill="#3579FF">
            <g id="编组-6" transform="translate(232.000000, 136.000000)">
                <g id="icon_add" transform="translate(0.000000, 53.000000)">
                    <path d="M8.70588235,12 L7.29411765,12 L7.29411765,8.70588235 L4,8.70588235 L4,7.29411765 L7.29411765,7.29411765 L7.29411765,4 L8.70588235,4 L8.70588235,7.29411765 L12,7.29411765 L12,8.70588235 L8.70588235,8.70588235 L8.70588235,12 Z M8,1 C4.13376,1 1,4.13376 1,8 C1,11.86568 4.13376,15 8,15 C11.86624,15 15,11.86568 15,8 C15,4.13376 11.86624,1 8,1 L8,1 Z M8,16 C3.58141935,16 0,12.4185806 0,8 C0,3.58141935 3.58141935,0 8,0 C12.4185806,0 16,3.58141935 16,8 C16,12.4185806 12.4185806,16 8,16 L8,16 Z"></path>
                </g>
            </g>
        </g>
    </g>
</svg>