<svg width="1045" height="955" xmlns="http://www.w3.org/2000/svg"><polygon fill="#00000000" points=" 9, 7 1036, 7 1036, 948 9, 948" data-v-2d04d159=""></polygon><circle fill="#235fa7" cx="5" cy="5" r="2" data-v-2d04d159=""></circle><circle fill="#235fa7" cx="1040" cy="5" r="2" data-v-2d04d159=""></circle><circle fill="#235fa7" cx="1040" cy="950" r="2" data-v-2d04d159=""></circle><circle fill="#235fa7" cx="5" cy="950" r="2" data-v-2d04d159=""></circle><polyline stroke="#3140ad" points="10, 4 1035, 4" data-v-2d04d159=""></polyline><polyline stroke="#3140ad" points="10, 951 1035, 951" data-v-2d04d159=""></polyline><polyline stroke="#3140ad" points="5, 70 5, 885" data-v-2d04d159=""></polyline><polyline stroke="#3140ad" points="1040, 70 1040, 885" data-v-2d04d159=""></polyline><polyline stroke="#3140ad" points="3, 10, 3, 50" data-v-2d04d159=""></polyline><polyline stroke="#3140ad" points="7, 30 7, 80" data-v-2d04d159=""></polyline><polyline stroke="#3140ad" points="1042, 10 1042, 50" data-v-2d04d159=""></polyline><polyline stroke="#3140ad" points="1038, 30 1038, 80" data-v-2d04d159=""></polyline><polyline stroke="#3140ad" points="3, 945 3, 905" data-v-2d04d159=""></polyline><polyline stroke="#3140ad" points="7, 925 7, 875" data-v-2d04d159=""></polyline><polyline stroke="#3140ad" points="1042, 945 1042, 905" data-v-2d04d159=""></polyline><polyline stroke="#3140ad" points="1038, 925 1038, 875" data-v-2d04d159=""></polyline></svg>