<svg width="505" height="290" xmlns="http://www.w3.org/2000/svg"><polygon fill="#00000000" points=" 9, 7 496, 7 496, 283 9, 283" data-v-2d04d159=""></polygon><circle fill="#235fa7" cx="5" cy="5" r="2" data-v-2d04d159=""></circle><circle fill="#235fa7" cx="500" cy="5" r="2" data-v-2d04d159=""></circle><circle fill="#235fa7" cx="500" cy="285" r="2" data-v-2d04d159=""></circle><circle fill="#235fa7" cx="5" cy="285" r="2" data-v-2d04d159=""></circle><polyline stroke="#3140ad" points="10, 4 495, 4" data-v-2d04d159=""></polyline><polyline stroke="#3140ad" points="10, 286 495, 286" data-v-2d04d159=""></polyline><polyline stroke="#3140ad" points="5, 70 5, 220" data-v-2d04d159=""></polyline><polyline stroke="#3140ad" points="500, 70 500, 220" data-v-2d04d159=""></polyline><polyline stroke="#3140ad" points="3, 10, 3, 50" data-v-2d04d159=""></polyline><polyline stroke="#3140ad" points="7, 30 7, 80" data-v-2d04d159=""></polyline><polyline stroke="#3140ad" points="502, 10 502, 50" data-v-2d04d159=""></polyline><polyline stroke="#3140ad" points="498, 30 498, 80" data-v-2d04d159=""></polyline><polyline stroke="#3140ad" points="3, 280 3, 240" data-v-2d04d159=""></polyline><polyline stroke="#3140ad" points="7, 260 7, 210" data-v-2d04d159=""></polyline><polyline stroke="#3140ad" points="502, 280 502, 240" data-v-2d04d159=""></polyline><polyline stroke="#3140ad" points="498, 260 498, 210" data-v-2d04d159=""></polyline></svg>