<svg width="360" height="160" xmlns="http://www.w3.org/2000/svg"><polygon fill="#00000000" points=" 9, 7 351, 7 351, 153 9, 153" data-v-2d04d159=""></polygon><circle fill="#235fa7" cx="5" cy="5" r="2" data-v-2d04d159=""></circle><circle fill="#235fa7" cx="355" cy="5" r="2" data-v-2d04d159=""></circle><circle fill="#235fa7" cx="355" cy="155" r="2" data-v-2d04d159=""></circle><circle fill="#235fa7" cx="5" cy="155" r="2" data-v-2d04d159=""></circle><polyline stroke="#3140ad" points="10, 4 350, 4" data-v-2d04d159=""></polyline><polyline stroke="#3140ad" points="10, 156 350, 156" data-v-2d04d159=""></polyline><polyline stroke="#3140ad" points="5, 70 5, 90" data-v-2d04d159=""></polyline><polyline stroke="#3140ad" points="355, 70 355, 90" data-v-2d04d159=""></polyline><polyline stroke="#3140ad" points="3, 10, 3, 50" data-v-2d04d159=""></polyline><polyline stroke="#3140ad" points="7, 30 7, 80" data-v-2d04d159=""></polyline><polyline stroke="#3140ad" points="357, 10 357, 50" data-v-2d04d159=""></polyline><polyline stroke="#3140ad" points="353, 30 353, 80" data-v-2d04d159=""></polyline><polyline stroke="#3140ad" points="3, 150 3, 110" data-v-2d04d159=""></polyline><polyline stroke="#3140ad" points="7, 130 7, 80" data-v-2d04d159=""></polyline><polyline stroke="#3140ad" points="357, 150 357, 110" data-v-2d04d159=""></polyline><polyline stroke="#3140ad" points="353, 130 353, 80" data-v-2d04d159=""></polyline></svg>