<svg width="104" height="165" xmlns="http://www.w3.org/2000/svg"><polygon fill="#00000000" points=" 9, 7 95, 7 95, 158 9, 158" data-v-2d04d159=""></polygon><circle fill="#235fa7" cx="5" cy="5" r="2" data-v-2d04d159=""></circle><circle fill="#235fa7" cx="99" cy="5" r="2" data-v-2d04d159=""></circle><circle fill="#235fa7" cx="99" cy="160" r="2" data-v-2d04d159=""></circle><circle fill="#235fa7" cx="5" cy="160" r="2" data-v-2d04d159=""></circle><polyline stroke="#3140ad" points="10, 4 94, 4" data-v-2d04d159=""></polyline><polyline stroke="#3140ad" points="10, 161 94, 161" data-v-2d04d159=""></polyline><polyline stroke="#3140ad" points="5, 70 5, 95" data-v-2d04d159=""></polyline><polyline stroke="#3140ad" points="99, 70 99, 95" data-v-2d04d159=""></polyline><polyline stroke="#3140ad" points="3, 10, 3, 50" data-v-2d04d159=""></polyline><polyline stroke="#3140ad" points="7, 30 7, 80" data-v-2d04d159=""></polyline><polyline stroke="#3140ad" points="101, 10 101, 50" data-v-2d04d159=""></polyline><polyline stroke="#3140ad" points="97, 30 97, 80" data-v-2d04d159=""></polyline><polyline stroke="#3140ad" points="3, 155 3, 115" data-v-2d04d159=""></polyline><polyline stroke="#3140ad" points="7, 135 7, 85" data-v-2d04d159=""></polyline><polyline stroke="#3140ad" points="101, 155 101, 115" data-v-2d04d159=""></polyline><polyline stroke="#3140ad" points="97, 135 97, 85" data-v-2d04d159=""></polyline></svg>