<?xml version="1.0" standalone="no"?><!DOCTYPE svg PUBLIC "-//W3C//DTD SVG 1.1//EN" "http://www.w3.org/Graphics/SVG/1.1/DTD/svg11.dtd"><svg class="icon" width="200px" height="200.00px" viewBox="0 0 1024 1024" version="1.1" xmlns="http://www.w3.org/2000/svg"><path fill="#333333" d="M832 164.64c-268.8 29.952-433.76 75.04-492.32 132.864-54.08 53.344-10.048 124.416 147.2 217.6 172.992 102.528 233.92 189.76 167.776 260-56.128 59.648-209.408 98.784-462.656 120.224V928H96v-96h96v31.2c243.424-20.832 390.784-58.432 439.36-110.016 44.992-47.808-3.584-117.376-160.768-210.528-172.864-102.432-229.056-193.216-153.408-267.936C382.976 209.76 553.76 163.2 832 132.48V96h96v96h-96v-27.36z" /></svg>